<svg xmlns="http://www.w3.org/2000/svg" display="none">
    <symbol id="facebook-icon" viewBox="0 0 96.124 96.123">
        <g>
            <path d="M72.089,0.02L59.624,0C45.62,0,36.57,9.285,36.57,23.656v10.907H24.037c-1.083,0-1.96,0.878-1.96,1.961v15.803
                c0,1.083,0.878,1.96,1.96,1.96h12.533v39.876c0,1.083,0.877,1.96,1.96,1.96h16.352c1.083,0,1.96-0.878,1.96-1.96V54.287h14.654
                c1.083,0,1.96-0.877,1.96-1.96l0.006-15.803c0-0.52-0.207-1.018-0.574-1.386c-0.367-0.368-0.867-0.575-1.387-0.575H56.842v-9.246
                c0-4.444,1.059-6.7,6.848-6.7l8.397-0.003c1.082,0,1.959-0.878,1.959-1.96V1.98C74.046,0.899,73.17,0.022,72.089,0.02z"/>
        </g>
    </symbol>
    <symbol id="instagram-icon" viewBox="0 0 511 511.9">
        <g>
            <path d="m510.949219 150.5c-1.199219-27.199219-5.597657-45.898438-11.898438-62.101562-6.5-17.199219-16.5-32.597657-29.601562-45.398438-12.800781-13-28.300781-23.101562-45.300781-29.5-16.296876-6.300781-34.898438-10.699219-62.097657-11.898438-27.402343-1.300781-36.101562-1.601562-105.601562-1.601562s-78.199219.300781-105.5 1.5c-27.199219 1.199219-45.898438 5.601562-62.097657 11.898438-17.203124 6.5-32.601562 16.5-45.402343 29.601562-13 12.800781-23.097657 28.300781-29.5 45.300781-6.300781 16.300781-10.699219 34.898438-11.898438 62.097657-1.300781 27.402343-1.601562 36.101562-1.601562 105.601562s.300781 78.199219 1.5 105.5c1.199219 27.199219 5.601562 45.898438 11.902343 62.101562 6.5 17.199219 16.597657 32.597657 29.597657 45.398438 12.800781 13 28.300781 23.101562 45.300781 29.5 16.300781 6.300781 34.898438 10.699219 62.101562 11.898438 27.296876 1.203124 36 1.5 105.5 1.5s78.199219-.296876 105.5-1.5c27.199219-1.199219 45.898438-5.597657 62.097657-11.898438 34.402343-13.300781 61.601562-40.5 74.902343-74.898438 6.296876-16.300781 10.699219-34.902343 11.898438-62.101562 1.199219-27.300781 1.5-36 1.5-105.5s-.101562-78.199219-1.300781-105.5zm-46.097657 209c-1.101562 25-5.300781 38.5-8.800781 47.5-8.601562 22.300781-26.300781 40-48.601562 48.601562-9 3.5-22.597657 7.699219-47.5 8.796876-27 1.203124-35.097657 1.5-103.398438 1.5s-76.5-.296876-103.402343-1.5c-25-1.097657-38.5-5.296876-47.5-8.796876-11.097657-4.101562-21.199219-10.601562-29.398438-19.101562-8.5-8.300781-15-18.300781-19.101562-29.398438-3.5-9-7.699219-22.601562-8.796876-47.5-1.203124-27-1.5-35.101562-1.5-103.402343s.296876-76.5 1.5-103.398438c1.097657-25 5.296876-38.5 8.796876-47.5 4.101562-11.101562 10.601562-21.199219 19.203124-29.402343 8.296876-8.5 18.296876-15 29.398438-19.097657 9-3.5 22.601562-7.699219 47.5-8.800781 27-1.199219 35.101562-1.5 103.398438-1.5 68.402343 0 76.5.300781 103.402343 1.5 25 1.101562 38.5 5.300781 47.5 8.800781 11.097657 4.097657 21.199219 10.597657 29.398438 19.097657 8.5 8.300781 15 18.300781 19.101562 29.402343 3.5 9 7.699219 22.597657 8.800781 47.5 1.199219 27 1.5 35.097657 1.5 103.398438s-.300781 76.300781-1.5 103.300781zm0 0"/><path d="m256.449219 124.5c-72.597657 0-131.5 58.898438-131.5 131.5s58.902343 131.5 131.5 131.5c72.601562 0 131.5-58.898438 131.5-131.5s-58.898438-131.5-131.5-131.5zm0 216.800781c-47.097657 0-85.300781-38.199219-85.300781-85.300781s38.203124-85.300781 85.300781-85.300781c47.101562 0 85.300781 38.199219 85.300781 85.300781s-38.199219 85.300781-85.300781 85.300781zm0 0"/><path d="m423.851562 119.300781c0 16.953125-13.746093 30.699219-30.703124 30.699219-16.953126 0-30.699219-13.746094-30.699219-30.699219 0-16.957031 13.746093-30.699219 30.699219-30.699219 16.957031 0 30.703124 13.742188 30.703124 30.699219zm0 0"/>
        </g>
    </symbol>
    <symbol id="twitter-icon" viewBox="0 0 512 512">
        <g>
            <path d="M512,97.248c-19.04,8.352-39.328,13.888-60.48,16.576c21.76-12.992,38.368-33.408,46.176-58.016
                c-20.288,12.096-42.688,20.64-66.56,25.408C411.872,60.704,384.416,48,354.464,48c-58.112,0-104.896,47.168-104.896,104.992
                c0,8.32,0.704,16.32,2.432,23.936c-87.264-4.256-164.48-46.08-216.352-109.792c-9.056,15.712-14.368,33.696-14.368,53.056
                c0,36.352,18.72,68.576,46.624,87.232c-16.864-0.32-33.408-5.216-47.424-12.928c0,0.32,0,0.736,0,1.152
                c0,51.008,36.384,93.376,84.096,103.136c-8.544,2.336-17.856,3.456-27.52,3.456c-6.72,0-13.504-0.384-19.872-1.792
                c13.6,41.568,52.192,72.128,98.08,73.12c-35.712,27.936-81.056,44.768-130.144,44.768c-8.608,0-16.864-0.384-25.12-1.44
                C46.496,446.88,101.6,464,161.024,464c193.152,0,298.752-160,298.752-298.688c0-4.64-0.16-9.12-0.384-13.568
                C480.224,136.96,497.728,118.496,512,97.248z"/>
        </g>
    </symbol>
    <symbol id="linkedin-icon" viewBox="0 0 310 310">
        <g>
            <path id="XMLID_802_" d="M72.16,99.73H9.927c-2.762,0-5,2.239-5,5v199.928c0,2.762,2.238,5,5,5H72.16c2.762,0,5-2.238,5-5V104.73
                C77.16,101.969,74.922,99.73,72.16,99.73z"/>
            <path id="XMLID_803_" d="M41.066,0.341C18.422,0.341,0,18.743,0,41.362C0,63.991,18.422,82.4,41.066,82.4
                c22.626,0,41.033-18.41,41.033-41.038C82.1,18.743,63.692,0.341,41.066,0.341z"/>
            <path id="XMLID_804_" d="M230.454,94.761c-24.995,0-43.472,10.745-54.679,22.954V104.73c0-2.761-2.238-5-5-5h-59.599
                c-2.762,0-5,2.239-5,5v199.928c0,2.762,2.238,5,5,5h62.097c2.762,0,5-2.238,5-5v-98.918c0-33.333,9.054-46.319,32.29-46.319
                c25.306,0,27.317,20.818,27.317,48.034v97.204c0,2.762,2.238,5,5,5H305c2.762,0,5-2.238,5-5V194.995
                C310,145.43,300.549,94.761,230.454,94.761z"/>
        </g>
    </symbol>
    <symbol id="google-maps-icon" viewBox="0 0 512 512">
        <g>
            <path d="m307.79 223.476-53.135 78.467-78.573 78.18c-29.222-37.139-61.132-73.116-80.587-116.631l42.352-64.879 64.957-62.668c-21.71 26.831-20.089 66.293 4.864 91.246 26.696 26.696 69.968 26.696 96.663 0 1.203-1.203 2.365-2.446 3.459-3.715z"/><path d="m309.02 222.003c21.9-26.844 20.346-66.442-4.688-91.462-26.696-26.696-69.968-26.696-96.663 0-1.121 1.121-2.189 2.27-3.215 3.445l44.811-72.847 60.795-52.809c45.407 14.374 82.964 46.379 104.648 87.977l-44.352 71.516z"/><path d="m202.802 135.949-107.312 127.549c-10.643-23.783-17.562-49.817-18.276-79.529-.054-1.689-.081-3.391-.081-5.093 0-43.718 15.685-83.789 41.746-114.861z"/><path d="m202.802 135.949-83.926-71.939c32.816-39.125 82.06-64.01 137.126-64.01 18.845 0 37.009 2.916 54.065 8.32z"/><path d="m434.867 178.865c0-29.779-7.278-57.859-20.151-82.558l-238.64 283.826c27.113 34.488 51.887 69.985 62.183 113.454.33 1.392.685 3.019 1.063 4.848 3.733 18.086 29.63 18.086 33.363 0 .378-1.829.733-3.456 1.063-4.848 27.448-115.892 157.807-175.118 161.043-309.618.046-1.696.076-3.397.076-5.104z"/>
        </g>
    </symbol>
    <symbol id="waze-icon" viewBox="0 0 512 512">
        <g>
            <g>
                <path d="M288,16C164.48,16,64,109.312,64.192,226.432c1.76,11.584,2.88,45.568-12.8,63.776C43.424,299.488,31.84,304,16,304
                    c-8.832,0-16,7.168-16,16c0,48.352,40.096,81.408,119.264,98.208c1.12,0.224,2.208,0.352,3.328,0.352
                    c7.392,0,14.016-5.152,15.616-12.672c1.824-8.64-3.68-17.12-12.32-18.976c-52.256-11.104-82.912-28.768-91.424-52.576
                    c16.864-3.168,30.72-10.976,41.312-23.36C104.16,277.76,96.192,224,96,224c0-97.056,86.112-176,192-176s192,78.944,192,176
                    c0,66.112-40.032,126.176-104.448,156.736c-8,3.776-11.392,13.344-7.616,21.312c3.808,8.032,13.44,11.264,21.312,7.616
                    C464.96,373.76,512,302.624,512,224C512,109.312,411.488,16,288,16z"/>
            </g>
            <g>
                <path d="M323.104,413.408c-0.896-8.8-9.44-15.232-17.536-14.272C299.712,399.712,293.856,400,288,400
                    c-32.736,0-58.976-0.896-82.56-2.816c-8.672-0.48-16.512,5.856-17.248,14.624c-0.704,8.8,5.856,16.544,14.656,17.248
                    C227.296,431.072,254.368,432,288,432c6.976,0,13.92-0.352,20.832-1.056C317.632,430.048,324,422.176,323.104,413.408z"/>
            </g>
            <g>
                <path d="M352,368c-35.296,0-64,28.704-64,64c0,35.296,28.704,64,64,64c35.296,0,64-28.704,64-64C416,396.704,387.296,368,352,368z
                    M352,464c-17.664,0-32-14.336-32-32s14.336-32,32-32s32,14.336,32,32S369.664,464,352,464z"/>
            </g>
            <g>
                <path d="M160,368c-35.296,0-64,28.704-64,64c0,35.296,28.704,64,64,64s64-28.704,64-64C224,396.704,195.296,368,160,368z M160,464
                    c-17.632,0-32-14.336-32-32s14.368-32,32-32s32,14.336,32,32S177.632,464,160,464z"/>
            </g>
            <g>
                <path d="M224.64,160h-0.32c-8.832,0-15.84,7.168-15.84,16c0,8.832,7.328,16,16.16,16c8.832,0,16-7.168,16-16
                    C240.64,167.168,233.472,160,224.64,160z"/>
            </g>
            <g>
                <path d="M352.64,160h-0.32c-8.832,0-15.84,7.168-15.84,16c0,8.832,7.36,16,16.16,16c8.832,0,16-7.168,16-16
                    C368.64,167.168,361.472,160,352.64,160z"/>
            </g>
            <g>
                <path d="M371.52,240.384c-8.672-1.856-17.152,3.488-19.136,12.128C345.568,282.816,319.104,304,288,304
                    s-57.568-21.184-64.384-51.488c-1.952-8.64-10.496-14.08-19.136-12.096c-8.608,1.92-14.016,10.496-12.096,19.072
                    C202.528,304.576,241.856,336,288,336c46.176,0,85.504-31.456,95.648-76.48C385.568,250.88,380.16,242.336,371.52,240.384z"/>
            </g>
        </g>
    </symbol>
    <symbol id="long-arrow-right" viewBox="0 0 448 512">
        <g>
            <path d="M311.03 131.515l-7.071 7.07c-4.686 4.686-4.686 12.284 0 16.971L387.887 239H12c-6.627 0-12 5.373-12 12v10c0 6.627 5.373 12 12 12h375.887l-83.928 83.444c-4.686 4.686-4.686 12.284 0 16.971l7.071 7.07c4.686 4.686 12.284 4.686 16.97 0l116.485-116c4.686-4.686 4.686-12.284 0-16.971L328 131.515c-4.686-4.687-12.284-4.687-16.97 0z" class=""></path>
        </g>
    </symbol>
    <symbol id="long-arrow-left" viewBox="0 0 448 512">
        <g>
            <path d="M136.97 380.485l7.071-7.07c4.686-4.686 4.686-12.284 0-16.971L60.113 273H436c6.627 0 12-5.373 12-12v-10c0-6.627-5.373-12-12-12H60.113l83.928-83.444c4.686-4.686 4.686-12.284 0-16.971l-7.071-7.07c-4.686-4.686-12.284-4.686-16.97 0l-116.485 116c-4.686 4.686-4.686 12.284 0 16.971l116.485 116c4.686 4.686 12.284 4.686 16.97-.001z" class=""></path>
        </g>
    </symbol>
</svg>