<?xml version="1.0" standalone="no"?>
<!DOCTYPE svg PUBLIC "-//W3C//DTD SVG 1.1//EN" "http://www.w3.org/Graphics/SVG/1.1/DTD/svg11.dtd" >
<svg>
<metadata>
Created by FontForge 20090914 at Sun May  2 13:51:03 2021
 By www-data
Copyright (c) Cornel Windlin, 2003. All rights reserved.
</metadata>
<defs>
<font id="AlphaHeadline" horiz-adv-x="671" >
  <font-face 
    font-family="AlphaHeadline"
    font-weight="400"
    font-stretch="normal"
    units-per-em="1000"
    panose-1="2 0 5 3 2 0 0 2 0 4"
    ascent="801"
    descent="-199"
    x-height="512.999"
    cap-height="712"
    bbox="-2 -213 995 948"
    underline-thickness="62"
    underline-position="-119"
    unicode-range="U+000D-U+FB02"
  />
<missing-glyph horiz-adv-x="598" 
 />
    <glyph glyph-name="fi" unicode="fi" horiz-adv-x="823" 
d="M119 0l0.000976562 404h-60v85h60v84c0 39.333 13.167 72.333 39.5 99s58.833 40 97.5 40h92v-85h-83c-18.667 0 -32.834 -6 -42.501 -18s-14.5 -27 -14.5 -45v-75h96v-85h-96v-404h-89zM428.001 0v85h137v319h-112v86h201v-405h117v-85h-343zM577.001 635
c-4.66699 0 -8.5 1.5 -11.5 4.5s-4.5 6.5 -4.5 10.5v64c0 4 1.5 7.5 4.5 10.5s6.83301 4.5 11.5 4.5h66c4 0 7.66699 -1.5 11 -4.5s5 -6.5 5 -10.5v-64c0 -4 -1.66699 -7.5 -5 -10.5s-7 -4.5 -11 -4.5h-66z" />
    <glyph glyph-name="fl" unicode="fl" horiz-adv-x="834" 
d="M428 0v85h138v542h-113v85h202v-627h115v-85h-342zM119 0l0.000976562 403h-60v86h60v84c0 39.333 13.167 72.333 39.5 99s58.833 40 97.5 40h92v-85h-83c-18.667 0 -32.834 -6 -42.501 -18s-14.5 -27 -14.5 -45v-75h96v-86h-96v-403h-89z" />
    <glyph glyph-name="r_u_b_coma" unicode="&#x440;&#x443;&#x431;&#x2e;" horiz-adv-x="659" 
d="M114 242v58h-104v84h104v328h319c50.667 0 93.5 -17.5 128.5 -52.5s52.5 -77.833 52.5 -128.5v-50c0 -50.667 -17.5 -93.5 -52.5 -128.5s-77.833 -52.5 -128.5 -52.5h-228v-58h147v-84h-147v-158h-91v158h-104v84h104zM205 384l234 0.000976562c24 0 44 8.16699 60 24.5
s24 36.166 24 59.499v68c0 24 -8 44.167 -24 60.5s-36 24.5 -60 24.5h-234v-237z" />
    <glyph glyph-name=".notdef" horiz-adv-x="598" 
 />
    <glyph glyph-name="CR" unicode="&#xd;" horiz-adv-x="305" 
 />
    <glyph glyph-name="space" unicode=" " horiz-adv-x="305" 
 />
    <glyph glyph-name="exclam" unicode="!" horiz-adv-x="342" 
d="M185 206h-30c-13.333 0 -21 7.66699 -23 23l-19 143v317c0 6 2.33301 11.333 7 16s10 7 16 7h71c6 0 11.167 -2.33301 15.5 -7s6.5 -10 6.5 -16v-317l-19 -143c-2 -15.333 -10.333 -23 -25 -23zM205 0h-68c-6.66699 0 -12.834 2.66699 -18.501 8s-8.5 11.333 -8.5 18v68
c0 6.66699 2.83301 12.667 8.5 18s11.834 8 18.501 8h68c6.66699 0 12.834 -2.66699 18.501 -8s8.5 -11.333 8.5 -18v-68c0 -6.66699 -2.83301 -12.667 -8.5 -18s-11.834 -8 -18.501 -8z" />
    <glyph glyph-name="quotedbl" unicode="&#x22;" horiz-adv-x="457" 
d="M318 429h-14.999c-16.667 0 -25.667 9 -27 27l-20 232c0 6.66699 2.5 12.334 7.5 17.001s11.167 7 18.5 7h56c7.33301 0 13.666 -2.33301 18.999 -7s8 -10.334 8 -17.001l-21 -232c-2 -18 -10.667 -27 -26 -27zM154.001 429h-14.998c-7.33301 0 -13.333 2.5 -18 7.5
s-7.33398 11.5 -8.00098 19.5l-21 232c0 6.66699 2.66699 12.334 8 17.001s11.666 7 18.999 7h56c7.33301 0 13.5 -2.33301 18.5 -7s7.5 -10.334 7.5 -17.001l-20 -232c-1.33301 -18 -10.333 -27 -27 -27z" />
    <glyph glyph-name="numbersign" unicode="#" 
d="M145 159l28 135h-109l16 75h110l28 134h-110l16 74h109l29 135h74l-28 -135h114l28 135h74l-29 -135h110l-16 -74h-110l-28 -134h110l-16 -75h-110l-28 -135h-74l28 135h-114l-28 -135h-74zM263 369h114l29 134h-115z" />
    <glyph glyph-name="dollar" unicode="$" 
d="M294 -67l0.000976562 81.0029h-39c-49.333 0 -88.166 14.167 -116.499 42.5s-46.5 67.166 -54.5 116.499l83 22l6 -27c9.33301 -43.333 34.666 -65 75.999 -65h166c20.667 0 38.334 7.33301 53.001 22s22 33.667 22 57v44c0 15.333 -4.33301 29.166 -13 41.499
s-20.334 20.166 -35.001 23.499l-227 53c-35.333 8.66699 -65 27.167 -89 55.5s-36 63.166 -36 104.499v33c0 46.667 15 85 45 115s68.333 45 115 45h44v80h82v-80h40c49.333 0 88 -14.167 116 -42.5s46.333 -66.833 55 -115.5l-83 -23l-7 28
c-10.667 42.667 -35.334 64 -74.001 64h-172c-21.333 0 -38.666 -6.66699 -51.999 -20s-20 -30.666 -20 -51.999v-30c0 -43.333 22.333 -70 67 -80l216 -49c35.333 -8 63.666 -26.333 84.999 -55s32 -60.667 32 -96v-41c0 -48 -16 -88.5 -48 -121.5
s-71.333 -49.5 -118 -49.5h-37v-81h-82z" />
    <glyph glyph-name="percent" unicode="%" horiz-adv-x="692" 
d="M202 -49l-75 33l357 763l75 -34zM202 470h-86c-8 0 -14.833 3 -20.5 9s-8.5 13 -8.5 21v82c0 8 2.83301 14.833 8.5 20.5s12.5 8.5 20.5 8.5h86c8 0 14.833 -2.83301 20.5 -8.5s8.5 -12.5 8.5 -20.5v-82c0 -8 -2.83301 -15 -8.5 -21s-12.5 -9 -20.5 -9zM576 114h-86
c-8 0 -14.833 2.83301 -20.5 8.5s-8.5 12.5 -8.5 20.5v82c0 8 2.83301 15 8.5 21s12.5 9 20.5 9h86c8 0 14.833 -3 20.5 -9s8.5 -13 8.5 -21v-82c0 -8 -2.83301 -14.833 -8.5 -20.5s-12.5 -8.5 -20.5 -8.5z" />
    <glyph glyph-name="ampersand" unicode="&#x26;" horiz-adv-x="710" 
d="M370 0l-113 0.00195312c-48 0 -88 16.167 -120 48.5s-48 72.833 -48 121.5v52c0 61.333 36.667 111 110 149c-50 40 -75 84.333 -75 133v46c0 47.333 15.167 86.166 45.5 116.499s68.833 45.5 115.5 45.5h62c48 0 88.167 -14 120.5 -42s48.5 -62.667 48.5 -104v-54
c0 -31.333 -11.167 -58.833 -33.5 -82.5s-56.5 -47.5 -102.5 -71.5l147 -112l44 57l70 -49l-45 -61l60 -48l-58 -68l-55 43l-12 -15c-32.667 -40.667 -59 -68.334 -79 -83.001s-47.333 -22 -82 -22zM250 90.002l118.002 -0.000976562c17.333 0 31.666 4.33301 42.999 13
s26.666 25.334 45.999 50.001l16 20l-190 142l-62 -34c-28.667 -16 -43 -37.667 -43 -65v-52c0 -20 7 -37.333 21 -52s31 -22 51 -22zM298.002 412.001l64 30.999c42.667 20.667 64 48.334 64 83.001v22c0 22 -7.66699 39.833 -23 53.5s-33.333 20.5 -54 20.5h-62
c-20 0 -37.167 -7.33301 -51.5 -22s-21.5 -32 -21.5 -52v-26c0 -33.333 11.667 -58.333 35 -75z" />
    <glyph glyph-name="quotesingle" unicode="'" horiz-adv-x="275" 
d="M143 429h-14.998c-7.33301 0 -13.333 2.5 -18 7.5s-7.33398 11.5 -8.00098 19.5l-21 232c0 6.66699 2.66699 12.334 8 17.001s11.666 7 18.999 7h56c7.33301 0 13.5 -2.33301 18.5 -7s7.5 -10.334 7.5 -17.001l-20 -232c-1.33301 -18 -10.333 -27 -27 -27z" />
    <glyph glyph-name="parenleft" unicode="(" horiz-adv-x="358" 
d="M243 -213c-52 90 -89.5 175.831 -112.5 257.498s-34.5 167.5 -34.5 257.5c0 90.667 11.5 176.834 34.5 258.501s60.5 167.5 112.5 257.5l55 -34c-69.333 -159.333 -104 -320 -104 -482c0 -161.333 34.667 -321.666 104 -480.999z" />
    <glyph glyph-name="parenright" unicode=")" horiz-adv-x="358" 
d="M116 -213l-55 34.002c69.333 159.333 104 319.666 104 480.999c0 162 -34.667 322.667 -104 482l55 34c52 -90 89.5 -175.833 112.5 -257.5s34.5 -167.834 34.5 -258.501c0 -90 -11.5 -175.833 -34.5 -257.5s-60.5 -167.5 -112.5 -257.5z" />
    <glyph glyph-name="asterisk" unicode="*" horiz-adv-x="531" 
d="M350 355c-6 0 -10.667 2.66699 -14 8l-69 112l-69 -111c-3.33301 -5.33301 -8.33301 -8 -15 -8c-4.66699 0 -8.33398 1 -11.001 3l-33 25c-5.33301 4 -8 8.66699 -8 14c0 2.66699 1.33301 6 4 10l86 101l-128 31c-8.66699 2 -13 7.66699 -13 17
c0 2.66699 0.333008 4.66699 1 6l13 39c2 8 7.66699 12 17 12c2.66699 0 4.66699 -0.333008 6 -1l121 -50l-9 132c0 4.66699 1.83301 8.66699 5.5 12s7.83398 5 12.501 5h41c4.66699 0 8.83398 -1.66699 12.501 -5s5.5 -7.33301 5.5 -12l-9 -132l120 49
c4 1.33301 6.33301 2 7 2c7.33301 0 12.666 -4.33301 15.999 -13l12 -39c1.33301 -2.66699 2 -4.66699 2 -6c0 -9.33301 -4.33301 -15 -13 -17l-128 -31l85 -100c2.66699 -4 4 -7.66699 4 -11c0 -5.33301 -2.66699 -10 -8 -14l-33 -24c-3.33301 -2.66699 -7 -4 -11 -4z" />
    <glyph glyph-name="plus" unicode="+" horiz-adv-x="571" 
d="M247 119v198h-200v76h200v200h76v-200h199v-76h-199v-198h-76z" />
    <glyph glyph-name="comma" unicode="," horiz-adv-x="285" 
d="M68 -151c-3.33301 0 -7.66699 1.33301 -13 4l-24 12c-8 4.66699 -12 11.334 -12 20.001c0 5.33301 0.666992 9.33301 2 12l106 254c4 10 11.333 15 22 15c3.33301 0 7 -0.666992 11 -2l58 -29c9.33301 -4.66699 14 -11.334 14 -20.001c0 -4 -1.33301 -8.33301 -4 -13
l-139 -239c-5.33301 -9.33301 -12.333 -14 -21 -14z" />
    <glyph glyph-name="hyphen" unicode="-" horiz-adv-x="487" 
d="M78 317v80h331v-80h-331z" />
    <glyph glyph-name="period" unicode="." horiz-adv-x="285" 
d="M185 0h-85c-8.66699 -0 -15.834 2.83301 -21.501 8.5s-8.5 12.167 -8.5 19.5v85c0 7.33301 2.83301 13.833 8.5 19.5s12.834 8.5 21.501 8.5h85c8 0 15 -2.83301 21 -8.5s9 -12.167 9 -19.5v-85c0 -7.33301 -3 -13.833 -9 -19.5s-13 -8.5 -21 -8.5z" />
    <glyph glyph-name="slash" unicode="/" horiz-adv-x="548" 
d="M126 -82l-66 30l395 846l66 -30z" />
    <glyph glyph-name="zero" unicode="0" 
d="M404 0h-137c-51.333 0 -94.5 17.5 -129.5 52.5s-52.5 77.833 -52.5 128.5v350c0 51.333 17.5 94.333 52.5 129s77.833 52 128.5 52h138c50 0 92.667 -17.5 128 -52.5s53 -77.833 53 -128.5v-350c0 -50.667 -17.5 -93.5 -52.5 -128.5s-77.833 -52.5 -128.5 -52.5zM260 91
h149c24 0 44.333 8.16699 61 24.5s25 36.5 25 60.5v360c0 24 -8.33301 44.167 -25 60.5s-36.667 24.5 -60 24.5h-150c-24 0 -44 -8.16699 -60 -24.5s-24 -36.5 -24 -60.5v-360c0 -24 8 -44.167 24 -60.5s36 -24.5 60 -24.5z" />
    <glyph glyph-name="one" unicode="1" 
d="M147 0v89h148v534h-131v89h221v-623h139v-89h-377z" />
    <glyph glyph-name="two" unicode="2" 
d="M86 0v105.999c0 72.667 24 123.334 72 152.001l276 165c41.333 25.333 62 55.666 62 90.999v22c0 24 -8 44.167 -24 60.5s-36 24.5 -60 24.5h-153c-22 0 -40.167 -7 -54.5 -21s-23.833 -31.667 -28.5 -53l-6 -27l-84 21l3 14c10 46 29.833 83.667 59.5 113
s68.5 44 116.5 44h148c51.333 0 93 -16 125 -48s48 -73.667 48 -125v-43c0 -59.333 -36.667 -110.666 -110 -153.999l-227 -132c-27.333 -16 -45.5 -29.5 -54.5 -40.5s-13.5 -27.5 -13.5 -49.5v-29h405v-91h-500z" />
    <glyph glyph-name="three" unicode="3" 
d="M406 0h-137c-52.667 0 -94.334 15.667 -125.001 47s-50.667 72.333 -60 123l85 23l7 -28c12 -49.333 40.333 -74 85 -74h150c24.667 0 45 8.16699 61 24.5s24 36.5 24 60.5v62c0 24.667 -6.16699 44.834 -18.5 60.501s-30.833 23.5 -55.5 23.5h-134v91h134
c24.667 0 43.167 7.66699 55.5 23s18.5 35.666 18.5 60.999v39c0 24 -8 44.167 -24 60.5s-36 24.5 -60 24.5h-151c-48 0 -77 -24.667 -87 -74l-6 -28l-85 23c8.66699 50.667 28.334 91.667 59.001 123s72.334 47 125.001 47h138c50.667 0 93.667 -17.5 129 -52.5
s53 -77.833 53 -128.5v-28c0 -25.333 -5.33301 -50.5 -16 -75.5s-25.334 -45.167 -44.001 -60.5c40 -33.333 60 -78.333 60 -135v-51c0 -50.667 -17.667 -93.5 -53 -128.5s-78 -52.5 -128 -52.5z" />
    <glyph glyph-name="four" unicode="4" 
d="M419 0v168h-335v87l331 457h94v-456h78v-88h-78v-168h-90zM186 256h233v317z" />
    <glyph glyph-name="five" unicode="5" 
d="M408 0h-145.001c-50.667 -0 -91.167 14.833 -121.5 44.5s-50.5 68.5 -60.5 116.5l85 25l5 -22c10.667 -48.667 39 -73 85 -73h158c24 0 44 8.16699 60 24.5s24 36.5 24 60.5v101c0 24 -8 43.833 -24 59.5s-36 23.5 -60 23.5h-157c-43.333 0 -69.666 -17.333 -78.999 -52
l-88 27l79 377h385v-91h-314l-35 -178c12 6 31.333 9 58 9h145c50 0 92.667 -17.667 128 -53s53 -78.333 53 -129v-89c0 -50.667 -17.667 -93.5 -53 -128.5s-78 -52.5 -128 -52.5z" />
    <glyph glyph-name="six" unicode="6" 
d="M407 0l-145.998 -0.000976562c-51.333 0 -93.833 17.333 -127.5 52s-50.5 76.334 -50.5 125.001v354c0 50.667 17.667 93.5 53 128.5s78.333 52.5 129 52.5h137c52 0 93.167 -15.333 123.5 -46s50.5 -71 60.5 -121l-84 -25l-6 25c-12 50.667 -40.667 76 -86 76h-152
c-24 0 -44 -8.16699 -60 -24.5s-24 -36.5 -24 -60.5v-127c8 14.667 21.167 25.667 39.5 33s37.166 11 56.499 11h136c49.333 0 91.166 -17.167 125.499 -51.5s51.5 -76.166 51.5 -125.499v-99c0 -48.667 -17 -90.334 -51 -125.001s-75.667 -52 -125 -52zM258.002 90.999
h149.999c24 0 44 8.16699 60 24.5s24 36.5 24 60.5v104c0 22.667 -8.16699 42 -24.5 58s-36.166 24 -59.499 24h-139c-28.667 0 -51.5 -8 -68.5 -24s-25.5 -36 -25.5 -60v-102c0 -24 7.83301 -44.167 23.5 -60.5s35.5 -24.5 59.5 -24.5z" />
    <glyph glyph-name="seven" unicode="7" 
d="M172 0l308 621h-395v91h500v-84l-313 -628h-100z" />
    <glyph glyph-name="eight" unicode="8" 
d="M404 0h-137c-50.667 0 -93.667 17.5 -129 52.5s-53 77.833 -53 128.5v52c0 24 5.16699 48.667 15.5 74s25.833 46 46.5 62c-20.667 16 -36.167 36.5 -46.5 61.5s-15.5 49.5 -15.5 73.5v27c0 50.667 17.667 93.5 53 128.5s78.333 52.5 129 52.5h137
c50 0 92.667 -17.5 128 -52.5s53 -77.833 53 -128.5v-27c0 -24 -5.16699 -48.833 -15.5 -74.5s-25.5 -45.834 -45.5 -60.501c19.333 -14.667 34.333 -35.167 45 -61.5s16 -51.166 16 -74.499v-52c0 -50.667 -17.667 -93.5 -53 -128.5s-78 -52.5 -128 -52.5zM260 91h150
c24 0 44.167 8.16699 60.5 24.5s24.5 36.5 24.5 60.5v65c0 21.333 -7.66699 40.666 -23 57.999s-36 26 -62 26h-150c-25.333 0 -45.5 -8.66699 -60.5 -26s-22.5 -36.666 -22.5 -57.999v-65c0 -24 7.83301 -44.167 23.5 -60.5s35.5 -24.5 59.5 -24.5zM260 413h150
c26 0 46.667 8.5 62 25.5s23 36.5 23 58.5v41c0 23.333 -8.16699 43 -24.5 59s-36.5 24 -60.5 24h-150c-24 0 -44 -8.16699 -60 -24.5s-24 -36.5 -24 -60.5v-39c0 -22 7.5 -41.5 22.5 -58.5s35.5 -25.5 61.5 -25.5z" />
    <glyph glyph-name="nine" unicode="9" 
d="M405 0l-137 0.00195312c-52 0 -93.167 15.333 -123.5 46s-50.5 71 -60.5 121l84 25l7 -27c12.667 -49.333 41 -74 85 -74h152c24 0 44.167 8.16699 60.5 24.5s24.5 36.5 24.5 60.5v133c-8 -14.667 -21.333 -25.834 -40 -33.501s-37.667 -11.5 -57 -11.5h-135
c-50 0 -92.167 17.167 -126.5 51.5s-51.5 76.166 -51.5 125.499v94c0 48.667 17.167 90.334 51.5 125.001s76.166 52 125.499 52h146c50.667 0 92.834 -17.333 126.501 -52s50.5 -76.334 50.5 -125.001v-354c0 -50.667 -17.667 -93.5 -53 -128.5s-78.333 -52.5 -129 -52.5z
M262 355.002l139 -0.000976562c28.667 0 51.667 8 69 24s26 36 26 60v99c0 23.333 -8 43 -24 59s-35.667 24 -59 24h-150c-24.667 0 -45 -8.16699 -61 -24.5s-24 -36.5 -24 -60.5v-97c0 -23.333 8 -43.166 24 -59.499s36 -24.5 60 -24.5z" />
    <glyph glyph-name="colon" unicode=":" horiz-adv-x="285" 
d="M185 357h-85c-8.66699 0 -15.834 2.83301 -21.501 8.5s-8.5 12.167 -8.5 19.5v85c0 7.33301 2.83301 13.833 8.5 19.5s12.834 8.5 21.501 8.5h85c8 0 15 -2.83301 21 -8.5s9 -12.167 9 -19.5v-85c0 -7.33301 -3 -13.833 -9 -19.5s-13 -8.5 -21 -8.5zM185 0h-85
c-8.66699 -0 -15.834 2.83301 -21.501 8.5s-8.5 12.167 -8.5 19.5v85c0 7.33301 2.83301 13.833 8.5 19.5s12.834 8.5 21.501 8.5h85c8 0 15 -2.83301 21 -8.5s9 -12.167 9 -19.5v-85c0 -7.33301 -3 -13.833 -9 -19.5s-13 -8.5 -21 -8.5z" />
    <glyph glyph-name="semicolon" unicode=";" horiz-adv-x="285" 
d="M56 -151c-2.66699 0 -6.66895 1.33203 -12.002 3.99902l-24 12c-8.66699 4.66699 -13 11.334 -13 20.001c0 4 1 8 3 12l106 254c4 10 11.333 15 22 15c4.66699 0 8.33398 -0.666992 11.001 -2l58 -29c9.33301 -4.66699 14 -11.334 14 -20.001
c0 -3.33301 -1.66699 -7.66602 -5 -12.999l-138 -239c-5.33301 -9.33301 -12.666 -14 -21.999 -14zM203.998 356.999h-85c-8.66699 0 -15.834 2.83301 -21.501 8.5s-8.5 12.167 -8.5 19.5v85c0 7.33301 2.83301 13.833 8.5 19.5s12.834 8.5 21.501 8.5h85
c8 0 15 -2.83301 21 -8.5s9 -12.167 9 -19.5v-85c0 -7.33301 -3 -13.833 -9 -19.5s-13 -8.5 -21 -8.5z" />
    <glyph glyph-name="less" unicode="&#x3c;" horiz-adv-x="571" 
d="M392 114c-6 0 -13 3.33301 -21 10l-229 212c-6 5.33301 -9 12 -9 20s3 14.667 9 20l229 212c8 6.66699 15 10 21 10c5.33301 0 11.666 -3 18.999 -9l15 -14c6.66699 -6.66699 10 -14 10 -22c0 -6 -3 -12.667 -9 -20l-163 -177l163 -178c6 -6 9 -12.667 9 -20
c0 -8 -3 -15 -9 -21l-16 -15c-5.33301 -5.33301 -11.666 -8 -18.999 -8z" />
    <glyph glyph-name="equal" unicode="=" horiz-adv-x="571" 
d="M86 400v76h398v-76h-398zM86 234v76h398v-76h-398z" />
    <glyph glyph-name="greater" unicode="&#x3e;" horiz-adv-x="571" 
d="M177 114c-6.66699 0 -12.667 2.66797 -18 8.00098l-15 15c-7.33301 7.33301 -11 14.333 -11 21s3.33301 13.334 10 20.001l163 178l-163 177c-6.66699 8 -10 14.667 -10 20c0 7.33301 3.66699 14.666 11 21.999l15 14c7.33301 6 13.333 9 18 9
c6.66699 0 14 -3.33301 22 -10l229 -212c6 -4.66699 9 -11.334 9 -20.001c0 -8 -3 -14.667 -9 -20l-229 -212c-8 -6.66699 -15.333 -10 -22 -10z" />
    <glyph glyph-name="question" unicode="?" horiz-adv-x="599" 
d="M291 206l-64.001 -0.000976562c-8 0 -12 4 -12 12v24c0 28 6.83301 52.333 20.5 73s35.5 43.334 65.5 68.001l70 57c22.667 18 37.834 32 45.501 42s11.5 23 11.5 39v28c0 21.333 -6.66699 38.666 -20 51.999s-30.666 20 -51.999 20h-136
c-38.667 0 -64.334 -24.667 -77.001 -74l-7 -28l-84 23c8 50.667 26.5 91.667 55.5 123s67.833 47 116.5 47h131c47.333 0 86.333 -15.167 117 -45.5s46 -69.166 46 -116.499v-36c0 -43.333 -27.667 -87 -83 -131l-98 -79c-12.667 -10 -21.667 -19.167 -27 -27.5
s-8 -19.833 -8 -34.5v-24c0 -8 -3.66699 -12 -11 -12zM292.999 -0.000976562h-68c-6.66699 0 -12.667 2.66699 -18 8s-8 11.333 -8 18v68c0 6.66699 2.66699 12.667 8 18s11.333 8 18 8h68c7.33301 0 13.666 -2.66699 18.999 -8s8 -11.333 8 -18v-68
c0 -6.66699 -2.66699 -12.667 -8 -18s-11.666 -8 -18.999 -8z" />
    <glyph glyph-name="at" unicode="@" horiz-adv-x="831" 
d="M481 -3l-165.996 0.000976562c-64.667 0 -120.334 23.333 -167.001 70s-70 101.667 -70 165v249c0 63.333 23.333 118.166 70 164.499s102.334 69.5 167.001 69.5h204c63.333 0 118.166 -23.167 164.499 -69.5s69.5 -101.166 69.5 -164.499v-172
c0 -35.333 -12.833 -63.333 -38.5 -84s-56.167 -31 -91.5 -31h-26c-33.333 0 -62.333 11.333 -87 34c-26.667 -22.667 -54.667 -34 -84 -34h-61c-32.667 0 -60.334 11.333 -83.001 34s-34 50.334 -34 83.001v89c0 32.667 11.333 60.5 34 83.5s50.334 34.5 83.001 34.5h179
v-208c0 -14 5 -25 15 -33s22.333 -12 37 -12h25c15.333 0 28.5 4 39.5 12s16.5 19 16.5 33v179c0 41.333 -14.667 76.666 -44 105.999s-64.333 44 -105 44h-224c-40.667 0 -75.834 -15 -105.501 -45s-44.5 -65.667 -44.5 -107v-264c0 -40.667 14.667 -75.834 44 -105.501
s64.666 -44.5 105.999 -44.5h181c53.333 0 98.666 18.667 135.999 56l16 16l54 -49l-13 -16c-45.333 -55.333 -111 -83 -197 -83zM363.004 267.001l65 -0.000976562c11.333 0 21.333 4.16699 30 12.5s13 18.166 13 29.499v136h-108c-11.333 0 -21.333 -4.16699 -30 -12.5
s-13 -18.166 -13 -29.499v-94c0 -11.333 4.33301 -21.166 13 -29.499s18.667 -12.5 30 -12.5z" />
    <glyph glyph-name="A" unicode="A" horiz-adv-x="609" 
d="M54 0v31c0 27.333 3.66699 52 11 74l194 607h91l194 -607c7.33301 -22 11 -46.667 11 -74v-31h-89v29c0 13.333 -1 24 -3 32l-26 99h-264l-27 -99c-2 -8 -3 -18.667 -3 -32v-29h-89zM201 250h207l-104 316z" />
    <glyph glyph-name="B" unicode="B" horiz-adv-x="684" 
d="M104 0v712h319c50.667 0 93.5 -17.5 128.5 -52.5s52.5 -77.833 52.5 -128.5v-31c0 -27.333 -6.16699 -53.166 -18.5 -77.499s-28.166 -43.833 -47.499 -58.5c19.333 -12.667 35.166 -31.334 47.499 -56.001s18.5 -50.667 18.5 -78v-49
c0 -50.667 -17.5 -93.5 -52.5 -128.5s-77.833 -52.5 -128.5 -52.5h-319zM195 91h234c24 0 44 8.16699 60 24.5s24 36.5 24 60.5v58c0 24.667 -7.5 45 -22.5 61s-35.5 24 -61.5 24h-234v-228zM195 409h234c26 0 46.5 8 61.5 24s22.5 36.333 22.5 61v42
c0 24 -8 44.167 -24 60.5s-36 24.5 -60 24.5h-234v-212z" />
    <glyph glyph-name="C" unicode="C" horiz-adv-x="647" 
d="M406 0h-138c-50.667 0 -93.5 17.5 -128.5 52.5s-52.5 77.833 -52.5 128.5v350c0 50.667 17.5 93.5 52.5 128.5s77.833 52.5 128.5 52.5h139c52.667 0 94.334 -15.667 125.001 -47s50.334 -72.333 59.001 -123l-85 -23l-7 28c-12.667 49.333 -41.334 74 -86.001 74h-151
c-24 0 -44 -8.16699 -60 -24.5s-24 -36.5 -24 -60.5v-360c0 -24 8 -44.167 24 -60.5s36 -24.5 60 -24.5h149c48 0 77.333 25 88 75l6 27l84 -23c-8 -50.667 -27.333 -91.667 -58 -123s-72.334 -47 -125.001 -47z" />
    <glyph glyph-name="D" unicode="D" horiz-adv-x="692" 
d="M104 0v712h319c50.667 0 93.5 -17.5 128.5 -52.5s52.5 -77.833 52.5 -128.5v-350c0 -50.667 -17.5 -93.5 -52.5 -128.5s-77.833 -52.5 -128.5 -52.5h-319zM195 91h234c24 0 44 8.16699 60 24.5s24 36.5 24 60.5v360c0 24 -8 44.167 -24 60.5s-36 24.5 -60 24.5h-234v-530
z" />
    <glyph glyph-name="E" unicode="E" horiz-adv-x="679" 
d="M104 0v712h500v-91h-409v-211h319v-91h-319v-228h409v-91h-500z" />
    <glyph glyph-name="F" unicode="F" horiz-adv-x="644" 
d="M104 0v712h500v-91h-409v-211h319v-91h-319v-319h-91z" />
    <glyph glyph-name="G" unicode="G" horiz-adv-x="668" 
d="M406 0h-138c-50.667 0 -93.5 17.5 -128.5 52.5s-52.5 77.833 -52.5 128.5v350c0 48 17.667 90.167 53 126.5s78 54.5 128 54.5h139c52.667 0 94.334 -15.667 125.001 -47s50.334 -72.333 59.001 -123l-85 -23l-7 28c-12.667 49.333 -41.334 74 -86.001 74h-151
c-23.333 0 -43.166 -8.83301 -59.499 -26.5s-24.5 -37.167 -24.5 -58.5v-360c0 -21.333 8.16699 -40.833 24.5 -58.5s36.166 -26.5 59.499 -26.5h150c23.333 0 43.166 8.16699 59.499 24.5s24.5 36.5 24.5 60.5v143h-147v88h238v-226c0 -50.667 -17.5 -93.5 -52.5 -128.5
s-77.833 -52.5 -128.5 -52.5z" />
    <glyph glyph-name="H" unicode="H" horiz-adv-x="709" 
d="M104 0v712h91v-303h318v303h91v-712h-91v319h-318v-319h-91z" />
    <glyph glyph-name="I" unicode="I" horiz-adv-x="474" 
d="M85 0v91h106v530h-106v91h303v-91h-105v-530h105v-91h-303z" />
    <glyph glyph-name="J" unicode="J" horiz-adv-x="629" 
d="M360 0h-137.999c-52 0 -93.333 15.667 -124 47s-50.334 72.333 -59.001 123l85 23l6 -27c10.667 -50 39.667 -75 87 -75h149c24 0 44.167 8.16699 60.5 24.5s24.5 36.5 24.5 60.5v445h-218v91h308v-531c0 -51.333 -17.5 -94.333 -52.5 -129s-77.833 -52 -128.5 -52z" />
    <glyph glyph-name="K" unicode="K" horiz-adv-x="650" 
d="M104 712l91 0.000976562v-363l271 363h106l-207 -283l190 -290c24 -36.667 36 -75.334 36 -116.001v-23h-89v23c0 22 -7.33301 44.333 -22 67l-170 259l-115 -159v-190h-91v712z" />
    <glyph glyph-name="L" unicode="L" horiz-adv-x="610" 
d="M104 0v712h91v-621h371v-91h-462z" />
    <glyph glyph-name="M" unicode="M" horiz-adv-x="806" 
d="M104 0v712h95l204 -460l204 460h94v-712h-91v482l-177 -382h-60l-177 382v-482h-92z" />
    <glyph glyph-name="N" unicode="N" horiz-adv-x="709" 
d="M104 0v712h96l313 -526v526h91v-712h-92l-317 536v-536h-91z" />
    <glyph glyph-name="O" unicode="O" horiz-adv-x="669" 
d="M403 0h-138c-50.667 0 -93.5 17.5 -128.5 52.5s-52.5 77.833 -52.5 128.5v350c0 50.667 17.5 93.5 52.5 128.5s77.833 52.5 128.5 52.5h138c50.667 0 93.5 -17.5 128.5 -52.5s52.5 -77.833 52.5 -128.5v-350c0 -50.667 -17.5 -93.5 -52.5 -128.5
s-77.833 -52.5 -128.5 -52.5zM259 91h149c24 0 44.167 8.16699 60.5 24.5s24.5 36.5 24.5 60.5v360c0 24 -8.16699 44.167 -24.5 60.5s-36.5 24.5 -60.5 24.5h-149c-24 0 -44 -8.16699 -60 -24.5s-24 -36.5 -24 -60.5v-360c0 -24 8 -44.167 24 -60.5s36 -24.5 60 -24.5z" />
    <glyph glyph-name="P" unicode="P" horiz-adv-x="649" 
d="M104 0v712h319c50.667 0 93.5 -17.5 128.5 -52.5s52.5 -77.833 52.5 -128.5v-50c0 -50.667 -17.5 -93.5 -52.5 -128.5s-77.833 -52.5 -128.5 -52.5h-228v-300h-91zM195 391l234 0.000976562c24 0 44 8.16699 60 24.5s24 36.166 24 59.499v61c0 24 -8 44.167 -24 60.5
s-36 24.5 -60 24.5h-234v-230z" />
    <glyph glyph-name="Q" unicode="Q" horiz-adv-x="664" 
d="M591 -69l-94.001 94.999c-27.333 -17.333 -58.666 -26 -93.999 -26h-138c-50.667 0 -93.5 17.5 -128.5 52.5s-52.5 77.833 -52.5 128.5v350c0 50.667 17.5 93.5 52.5 128.5s77.833 52.5 128.5 52.5h138c50.667 0 93.5 -17.5 128.5 -52.5s52.5 -77.833 52.5 -128.5v-350
c0 -35.333 -9.33301 -67.666 -28 -96.999l94 -94zM258.999 90.999h149c24 0 44.167 8.16699 60.5 24.5s24.5 36.5 24.5 60.5v360c0 24 -8.16699 44.167 -24.5 60.5s-36.5 24.5 -60.5 24.5h-149c-24 0 -44 -8.16699 -60 -24.5s-24 -36.5 -24 -60.5v-360
c0 -24 8 -44.167 24 -60.5s36 -24.5 60 -24.5z" />
    <glyph glyph-name="R" unicode="R" horiz-adv-x="684" 
d="M104 0v711.999h319c50.667 0 93.5 -17.5 128.5 -52.5s52.5 -77.833 52.5 -128.5v-40c0 -43.333 -13.333 -81.333 -40 -114s-60.667 -53 -102 -61l106 -176c24 -39.333 36 -77.666 36 -114.999v-25h-89v25c0 20.667 -7 42.667 -21 66l-132 220h-167v-311h-91zM195 400.999
l234 0.000976562c24 0 44 8.16699 60 24.5s24 36.166 24 59.499v51c0 24 -8 44.167 -24 60.5s-36 24.5 -60 24.5h-234v-220z" />
    <glyph glyph-name="S" unicode="S" horiz-adv-x="654" 
d="M395 0h-139c-88.667 0 -148 50 -178 150l-6 20l85 23l6 -27c10.667 -50 39.667 -75 87 -75h148c25.333 0 45.833 7.66699 61.5 23s23.5 37.666 23.5 66.999v34c0 16 -5.16699 31.5 -15.5 46.5s-24.166 24.833 -41.499 29.5l-221 58
c-36.667 9.33301 -66.834 28.833 -90.501 58.5s-35.5 66.834 -35.5 111.501v20c0 49.333 15.5 90.5 46.5 123.5s72.833 49.5 125.5 49.5h144c94.667 0 154 -49.667 178 -149l5 -21l-84 -23l-7 28c-6 24 -15 42.333 -27 55s-31.333 19 -58 19h-150c-27.333 0 -48 -8 -62 -24
s-21 -35.667 -21 -59v-17c0 -46.667 22.667 -76 68 -88l211 -55c37.333 -9.33301 67.5 -29.833 90.5 -61.5s34.5 -65.5 34.5 -101.5v-31c0 -52 -16.833 -95.667 -50.5 -131s-76.167 -53 -127.5 -53z" />
    <glyph glyph-name="T" unicode="T" horiz-adv-x="588" 
d="M248 0v621h-204v91h499v-91h-204v-621h-91z" />
    <glyph glyph-name="U" unicode="U" horiz-adv-x="675" 
d="M406 0h-138c-50.667 0 -93.5 17.5 -128.5 52.5s-52.5 77.833 -52.5 128.5v531h90v-536c0 -24 8 -44.167 24 -60.5s36 -24.5 60 -24.5h150c24 0 44.167 8.16699 60.5 24.5s24.5 36.5 24.5 60.5v536h91v-531c0 -50.667 -17.5 -93.5 -52.5 -128.5
s-77.833 -52.5 -128.5 -52.5z" />
    <glyph glyph-name="V" unicode="V" horiz-adv-x="589" 
d="M242 0l-183.001 576.999c-8.66699 27.333 -14.167 47 -16.5 59s-3.5 29.667 -3.5 53v23h91v-23c0 -28 2.33301 -49 7 -63l157 -497l158 497c4.66699 14 7 35 7 63v23h90v-23c0 -25.333 -1.16699 -44.166 -3.5 -56.499s-8.16602 -33.5 -17.499 -63.5l-181 -569h-105z" />
    <glyph glyph-name="W" unicode="W" horiz-adv-x="715" 
d="M169 0l-96 566c-9.33301 56 -14 93.667 -14 113v33h89v-32c0 -16 3.66699 -46 11 -90l63 -385l106 398h56l105 -398l67 385c7.33301 44 11 74 11 90v32h89v-33c0 -19.333 -4.66699 -57 -14 -113l-99 -566h-85l-102 383l-102 -383h-85z" />
    <glyph glyph-name="X" unicode="X" horiz-adv-x="653" 
d="M74 0v68c0 17.333 4.66699 32.333 14 45l182 243l-181 243c-7.33301 9.33301 -11.666 16.333 -12.999 21s-2 12.667 -2 24v68h90v-49c0 -12.667 2.66699 -22.667 8 -30l153 -202l154 202c6 7.33301 9 17.333 9 30v49h89v-68c0 -11.333 -0.833008 -19.333 -2.5 -24
s-5.83398 -11.667 -12.501 -21l-181 -243l182 -243c9.33301 -12.667 14 -27.667 14 -45v-68h-89v49c0 12.667 -3 22.667 -9 30l-153 202l-154 -202c-6 -8 -9 -18 -9 -30v-49h-89z" />
    <glyph glyph-name="Y" unicode="Y" horiz-adv-x="598" 
d="M254 0v277l-190 320c-10 16 -15 31.667 -15 47v68h89v-49c0 -9.33301 2 -17.666 6 -24.999l155 -266l155 266c4 7.33301 6 15.666 6 24.999v49h88v-68c0 -16 -4.66699 -31.667 -14 -47l-189 -320v-277h-91z" />
    <glyph glyph-name="Z" unicode="Z" horiz-adv-x="669" 
d="M84 0v85l387 536h-387v91h500v-82l-388 -539h388v-91h-500z" />
    <glyph glyph-name="bracketleft" unicode="[" horiz-adv-x="380" 
d="M116 -179v971h191v-79h-111v-814h111v-78h-191z" />
    <glyph glyph-name="backslash" unicode="\" horiz-adv-x="575" 
d="M434 -82l-395 846l66 30l395 -846z" />
    <glyph glyph-name="bracketright" unicode="]" horiz-adv-x="380" 
d="M72 -179v78h112v814h-112v79h191v-971h-191z" />
    <glyph glyph-name="asciicircum" unicode="^" horiz-adv-x="571" 
d="M421 269c-8.66699 0 -16.001 3.00098 -22.001 9.00098l-115 107l-113 -106c-6 -6 -13.667 -9 -23 -9c-8.66699 0 -20.667 8.33301 -36 25c-6 6 -9 13.333 -9 22c0 7.33301 3 14 9 20l116 121c4.66699 6 11.334 9 20.001 9h72c10 0 17.667 -3 23 -9l115 -122
c6 -6 9 -12.667 9 -20c0 -8 -3.33301 -15.333 -10 -22c-0.666992 -0.666992 -2.5 -2.83398 -5.5 -6.50098s-5.16699 -6 -6.5 -7l-6.5 -5c-3 -2.33301 -5.83301 -4 -8.5 -5s-5.66699 -1.5 -9 -1.5z" />
    <glyph glyph-name="underscore" unicode="_" horiz-adv-x="570" 
d="M54 0v76h461v-76h-461z" />
    <glyph glyph-name="grave" unicode="`" horiz-adv-x="475" 
d="M323 572c-3.33301 0 -7 1.00195 -11 3.00195l-180 93c-7.33301 4 -11 9.33301 -11 16c0 2 1.33301 5.66699 4 11l20 38c4 6.66699 10.667 10 20 10c3.33301 0 6.33301 -0.666992 9 -2l169 -113c6.66699 -4.66699 10 -10.334 10 -17.001
c0 -4.66699 -0.666992 -8.33398 -2 -11.001l-9 -17c-4 -7.33301 -10.333 -11 -19 -11z" />
    <glyph glyph-name="a" unicode="a" horiz-adv-x="577" 
d="M492 0l-83 -0.00195312v52c-7.33301 -18 -20.833 -31.667 -40.5 -41s-40.167 -14 -61.5 -14h-93c-46 0 -82.167 14.333 -108.5 43s-39.5 63.334 -39.5 104.001c0 35.333 9.5 66.333 28.5 93s46.833 43.667 83.5 51l191 37c26 4.66699 39 22.334 39 53.001v4
c0 13.333 -5.83301 24.666 -17.5 33.999s-27.167 14 -46.5 14h-108c-35.333 0 -57.666 -17.667 -66.999 -53l-6 -22l-82 19l7 25c8 28.667 24.833 55.334 50.5 80.001s59.167 37 100.5 37h112c39.333 0 72.666 -12.667 99.999 -38s41 -58 41 -98v-380zM406 160.998
l0.000976562 93c-4.66699 -4 -14.667 -7.33301 -30 -10l-172 -34c-16 -3.33301 -29 -10.5 -39 -21.5s-15 -24.5 -15 -40.5c0 -18 6 -33.5 18 -46.5s27 -19.5 45 -19.5h115c21.333 0 39.666 8 54.999 24s23 34.333 23 55z" />
    <glyph glyph-name="b" unicode="b" horiz-adv-x="600" 
d="M371 -3h-86c-55.333 0 -92 17.333 -110 52v-49h-86v712h92v-242c20.667 30.667 55 46 103 46h87c44.667 0 82.5 -15.333 113.5 -46s46.5 -68.667 46.5 -114v-199c0 -44.667 -15.5 -82.5 -46.5 -113.5s-68.833 -46.5 -113.5 -46.5zM270 82h69.002
c38 0 64.5 8.33301 79.5 25s22.5 42 22.5 76v144c0 32.667 -7.83301 58 -23.5 76s-36.834 27 -63.501 27h-77c-36.667 0 -62.334 -8 -77.001 -24s-22 -40.667 -22 -74v-145c0 -32 8.5 -57.5 25.5 -76.5s39.167 -28.5 66.5 -28.5z" />
    <glyph glyph-name="c" unicode="c" horiz-adv-x="553" 
d="M335 -3l-99 0.00195312c-46.667 0 -86.167 16.167 -118.5 48.5s-48.5 72.166 -48.5 119.499v183c0 47.333 16.167 87.166 48.5 119.499s71.833 48.5 118.5 48.5h99c42.667 0 77.167 -12.5 103.5 -37.5s44.5 -56.833 54.5 -95.5l5 -19l-83 -21l-6 26
c-8.66699 39.333 -31.667 59 -69 59h-108c-22 0 -40.167 -7.33301 -54.5 -22s-21.5 -32.667 -21.5 -54v-191c0 -22 7.16699 -40.333 21.5 -55s32.5 -22 54.5 -22h107c34.667 0 57.667 20 69 60l7 26l82 -21l-4 -19c-8 -36.667 -26.5 -68 -55.5 -94s-63.167 -39 -102.5 -39z
" />
    <glyph glyph-name="d" unicode="d" horiz-adv-x="600" 
d="M315 -3h-86c-44.667 0 -82.5 15.5 -113.5 46.5s-46.5 68.833 -46.5 113.5v199c0 44.667 15.5 82.5 46.5 113.5s68.833 46.5 113.5 46.5h87c48 0 82.667 -15.333 104 -46v242h91v-712h-86v49c-17.333 -34.667 -54 -52 -110 -52zM261 82h69.002
c27.333 0 49.666 9.5 66.999 28.5s26 44.5 26 76.5v145c0 33.333 -7.33301 58 -22 74s-40.667 24 -78 24h-77c-26.667 0 -47.834 -9 -63.501 -27s-23.5 -43.333 -23.5 -76v-144c0 -34 7.5 -59.333 22.5 -76s41.5 -25 79.5 -25z" />
    <glyph glyph-name="e" unicode="e" horiz-adv-x="581" 
d="M342 -3l-105.003 0.00195312c-47.333 0 -87.166 16.167 -119.499 48.5s-48.5 72.166 -48.5 119.499v183c0 47.333 15.833 87.166 47.5 119.499s70.834 48.5 117.501 48.5h118c46 0 83.833 -16 113.5 -48s44.5 -72 44.5 -120v-105c0 -6 -2.33301 -11.167 -7 -15.5
s-10.334 -6.5 -17.001 -6.5h-330v-61c0 -22 7.33301 -40.5 22 -55.5s32.667 -22.5 54 -22.5h115c38.667 0 64 19 76 57l8 24l81 -22l-6 -22c-9.33301 -36 -29.166 -65.333 -59.499 -88s-65.166 -34 -104.499 -34zM155.997 306.002h267v47c0 21.333 -5.5 39.5 -16.5 54.5
s-27.833 22.5 -50.5 22.5h-127c-22 0 -39.667 -7.5 -53 -22.5s-20 -33.167 -20 -54.5v-47z" />
    <glyph glyph-name="f" unicode="f" horiz-adv-x="391" 
d="M119 0l0.000976562 403h-60v86h60v84c0 39.333 13.167 72.333 39.5 99s58.833 40 97.5 40h92v-85h-83c-18.667 0 -32.834 -6 -42.501 -18s-14.5 -27 -14.5 -45v-75h106v-86h-106v-403h-89z" />
    <glyph glyph-name="g" unicode="g" horiz-adv-x="585" 
d="M328 -210l-86.998 0.000976562c-38.667 0 -72.667 12.5 -102 37.5s-49.666 56.833 -60.999 95.5l-3 10l82 20l5 -15c14.667 -42 39.667 -63 75 -63h93c22 0 40.333 7.33301 55 22s22 32.667 22 54v120c-6.66699 -14 -18.334 -25.5 -35.001 -34.5
s-36.334 -13.5 -59.001 -13.5h-81c-44.667 0 -82.5 15.5 -113.5 46.5s-46.5 68.833 -46.5 113.5v173c0 44.667 15.833 82.5 47.5 113.5s69.5 46.5 113.5 46.5h69c22 0 43 -4 63 -12s34.667 -19.333 44 -34v43h87v-555c0 -46.667 -16.333 -86.334 -49 -119.001
s-72.334 -49 -119.001 -49zM252.002 109.001l65.002 0.000976562c60.667 0 91 33 91 99v129c0 31.333 -8.33301 54.666 -25 69.999s-39.334 23 -68.001 23h-55c-37.333 0 -63.5 -8 -78.5 -24s-22.5 -41 -22.5 -75v-118c0 -32 8.66699 -57.333 26 -76s39.666 -28 66.999 -28z
" />
    <glyph glyph-name="h" unicode="h" horiz-adv-x="597" 
d="M89 0l-0.000976562 712.001h90v-243c20.667 31.333 54.334 47 101.001 47h79c44.667 0 82.167 -15.333 112.5 -46s45.5 -68.334 45.5 -113.001v-357h-88v327c0 68.667 -31.333 103 -94 103h-64c-61.333 0 -92 -32 -92 -96v-334h-90z" />
    <glyph glyph-name="i" unicode="i" horiz-adv-x="475" 
d="M79 0v85h137v342h-111v86h200v-428h117v-85h-343zM297 626h-72c-4.66699 0 -8.66699 1.66699 -12 5s-5 7.33301 -5 12v69c0 4.66699 1.66699 8.66699 5 12s7.33301 5 12 5h72c4.66699 0 8.66699 -1.66699 12 -5s5 -7.33301 5 -12v-69
c0 -4.66699 -1.66699 -8.66699 -5 -12s-7.33301 -5 -12 -5z" />
    <glyph glyph-name="j" unicode="j" horiz-adv-x="372" 
d="M29 -210v85h106c19.333 0 33.333 6.66699 42 20s13 28.333 13 45v487h-116v86h204v-584c0 -39.333 -13 -72.333 -39 -99s-58 -40 -96 -40h-114zM269 626h-71c-4.66699 0 -8.66699 1.66699 -12 5s-5 7.33301 -5 12v69c0 4.66699 1.66699 8.66699 5 12s7.33301 5 12 5h71
c4.66699 0 8.83398 -1.66699 12.501 -5s5.5 -7.33301 5.5 -12v-69c0 -4.66699 -1.83301 -8.66699 -5.5 -12s-7.83398 -5 -12.501 -5z" />
    <glyph glyph-name="k" unicode="k" horiz-adv-x="582" 
d="M89 0v712.001h90v-450l242 251h117l-174 -181l132 -196c22 -32.667 33 -69.334 33 -110.001v-26h-89v26c0 26 -5.66699 47 -17 63l-126 177l-118 -129v-137h-90z" />
    <glyph glyph-name="l" unicode="l" horiz-adv-x="466" 
d="M59 0v85h138v542h-112v85h201v-627h115v-85h-342z" />
    <glyph glyph-name="m" unicode="m" horiz-adv-x="817" 
d="M89 0v512.999h87v-64c6 19.333 20 35.333 42 48s44.333 19 67 19h20c26 0 49.667 -5.83301 71 -17.5s37 -27.5 47 -47.5c10.667 20 27.334 35.833 50.001 47.5s45.667 17.5 69 17.5h42c43.333 0 79.666 -15.5 108.999 -46.5s44 -68.833 44 -113.5v-356h-90v326
c0 32.667 -7.66699 58.167 -23 76.5s-37 27.5 -65 27.5h-16c-26 0 -46.667 -9.16699 -62 -27.5s-23 -44.166 -23 -77.499v-325h-90v326c0 32.667 -7.66699 58.167 -23 76.5s-37 27.5 -65 27.5h-12c-30.667 0 -53.167 -10.667 -67.5 -32s-21.5 -48.333 -21.5 -81v-317h-90z
" />
    <glyph glyph-name="n" unicode="n" horiz-adv-x="598" 
d="M89 0v513h88v-47c21.333 33.333 56 50 104 50h78c44.667 0 82.5 -15.333 113.5 -46s46.5 -68.667 46.5 -114v-356h-89v325c0 70 -31.667 105 -95 105h-63c-61.333 0 -92 -32.667 -92 -98v-332h-91z" />
    <glyph glyph-name="o" unicode="o" horiz-adv-x="577" 
d="M341 -3h-108c-46.667 0 -85.667 15.667 -117 47s-47 70.333 -47 117v192c0 46.667 15.667 85.5 47 116.5s70.333 46.5 117 46.5h108c47.333 0 86.833 -15.5 118.5 -46.5s47.5 -69.833 47.5 -116.5v-192c0 -46.667 -15.833 -85.667 -47.5 -117s-71.167 -47 -118.5 -47z
M231 82h114c22 0 40 7.16699 54 21.5s21 32.833 21 55.5v195c0 22.667 -7 41 -21 55s-32 21 -54 21h-114c-20 0 -37.5 -6.66699 -52.5 -20s-22.5 -32 -22.5 -56v-195c0 -22.667 7 -41.167 21 -55.5s32 -21.5 54 -21.5z" />
    <glyph glyph-name="p" unicode="p" horiz-adv-x="600" 
d="M89 -199l-0.000976562 712h86v-49c19.333 34.667 56 52 110 52h86c44.667 0 82.5 -15.333 113.5 -46s46.5 -68.667 46.5 -114v-199c0 -44.667 -15.5 -82.5 -46.5 -113.5s-68.833 -46.5 -113.5 -46.5h-87c-47.333 0 -81.666 15.333 -102.999 46v-242h-92zM276.999 83
l76.998 0.000976562c26.667 0 47.834 9.16699 63.501 27.5s23.5 43.5 23.5 75.5v144c0 34 -7.5 59.333 -22.5 76s-41.5 25 -79.5 25h-69c-27.333 0 -49.5 -9.33301 -66.5 -28s-25.5 -44.334 -25.5 -77.001v-145c0 -33.333 7.33301 -58 22 -74s40.334 -24 77.001 -24z" />
    <glyph glyph-name="q" unicode="q" horiz-adv-x="600" 
d="M420 -199v242c-22 -30.667 -56.667 -46 -104 -46h-87c-44.667 0 -82.5 15.5 -113.5 46.5s-46.5 68.833 -46.5 113.5v199c0 44.667 15.5 82.5 46.5 113.5s68.833 46.5 113.5 46.5h86c55.333 0 92 -17.333 110 -52v49h86v-712h-91zM246 83l76.998 -0.000976562
c36.667 0 62.5 8 77.5 24s22.5 40.667 22.5 74v145c0 32.667 -8.66699 58.334 -26 77.001s-39.666 28 -66.999 28h-69c-38 0 -64.5 -8.33301 -79.5 -25s-22.5 -42 -22.5 -76v-144c0 -32 7.83301 -57.167 23.5 -75.5s36.834 -27.5 63.501 -27.5z" />
    <glyph glyph-name="r" unicode="r" horiz-adv-x="393" 
d="M89 0v513h87v-54c18.667 36 55.334 54 110.001 54h75v-86h-86c-34.667 0 -59.334 -8.16699 -74.001 -24.5s-22 -41.5 -22 -75.5v-327h-90z" />
    <glyph glyph-name="s" unicode="s" horiz-adv-x="568" 
d="M339 -3l-106 0.000976562c-43.333 0 -78.5 13 -105.5 39s-44.167 53.333 -51.5 82l-7 29l83 21l7 -27c10.667 -39.333 34 -59 70 -59h110c21.333 0 38.833 6 52.5 18s20.5 26.667 20.5 44v8c0 30 -14.333 48 -43 54l-173 33c-37.333 7.33301 -65.5 22.166 -84.5 44.499
s-28.5 47.833 -28.5 76.5v17c0 42 15.5 75.667 46.5 101s69.167 38 114.5 38h90c42 0 76.5 -12.5 103.5 -37.5s43.833 -51.5 50.5 -79.5l5 -21l-82 -22l-6 19c-11.333 36.667 -33.666 55 -66.999 55h-98c-46.667 0 -70 -19 -70 -57v-6c0 -24.667 15.333 -40 46 -46l178 -35
c33.333 -6.66699 59.166 -22 77.499 -46s27.5 -51 27.5 -81v-22c0 -38.667 -14.833 -71.667 -44.5 -99s-68.167 -41 -115.5 -41z" />
    <glyph glyph-name="t" unicode="t" horiz-adv-x="408" 
d="M262 0c-84.667 0 -127 42.667 -127 128v300h-79v85h79v145l90 25v-170h118v-85h-118v-288c0 -36.667 17.333 -55 52 -55h78v-85h-93z" />
    <glyph glyph-name="u" unicode="u" horiz-adv-x="598" 
d="M317 -3h-78c-44.667 0 -82.5 15.5 -113.5 46.5s-46.5 68.833 -46.5 113.5v356h89v-327c0 -68.667 31.667 -103 95 -103h63c62 0 93 32 93 96v334h90v-513h-90v47c-21.333 -33.333 -55.333 -50 -102 -50z" />
    <glyph glyph-name="v" unicode="v" horiz-adv-x="533" 
d="M212 0l-148 372c-9.33301 23.333 -15 40.666 -17 51.999s-3 30 -3 56v33h89v-45c0 -17.333 2 -31.666 6 -42.999l123 -329l131 329c4.66699 10.667 7 26 7 46v42h89v-33c0 -26.667 -1 -46.167 -3 -58.5s-7.33301 -28.833 -16 -49.5l-157 -372h-101z" />
    <glyph glyph-name="w" unicode="w" horiz-adv-x="695" 
d="M157 0l-96 391c-4.66699 18 -7 43.667 -7 77v45h85v-59c0 -16 2 -33.333 6 -52l65 -271l110 316h51l110 -316l71 271c4.66699 19.333 7 37.333 7 54v57h85v-45c0 -33.333 -2.33301 -59 -7 -77l-104 -391h-88l-99 264l-100 -264h-89z" />
    <glyph glyph-name="x" unicode="x" horiz-adv-x="545" 
d="M67 0v76.001c0 15.333 4.33301 27.666 13 36.999l141 153l-141 153c-8.66699 9.33301 -13 21.666 -13 36.999v57h92v-39c0 -9.33301 2.66699 -17 8 -23l105 -117l106 118c6 6.66699 9 14.667 9 24v37h89v-65c0 -12 -4 -22 -12 -30l-143 -152l142 -152
c8.66699 -9.33301 13 -21.666 13 -36.999v-77h-89v57c0 9.33301 -3 17.333 -9 24l-106 114l-105 -114c-5.33301 -5.33301 -8 -13.333 -8 -24v-57h-92z" />
    <glyph glyph-name="y" unicode="y" horiz-adv-x="540" 
d="M70 -210v85h47c15.333 0 27 3.83301 35 11.5s15.667 19.5 23 35.5l49 106l-162 342c-10.667 22 -16 40.333 -16 55v88h89v-58c0 -15.333 2 -27.333 6 -36l129 -286l129 285c4 8.66699 6 21 6 37v58h88v-88c0 -14.667 -5 -32.667 -15 -54l-215 -466
c-18 -39.333 -36 -68.333 -54 -87s-40.667 -28 -68 -28h-71z" />
    <glyph glyph-name="z" unicode="z" horiz-adv-x="537" 
d="M64 0v75l281 352h-280v86h396v-75l-281 -353h292v-85h-408z" />
    <glyph glyph-name="braceleft" unicode="{" horiz-adv-x="405" 
d="M285 -179c-36.667 0 -67.834 13 -93.501 39s-38.5 57.333 -38.5 94v266c0 15.333 -4.33301 28.166 -13 38.499s-20.667 15.5 -36 15.5h-28v78h28c15.333 0 27.333 5.33301 36 16s13 23.667 13 39v253c0 36 12.833 67 38.5 93s56.834 39 93.501 39h37v-79h-44
c-12.667 0 -23.5 -4.66699 -32.5 -14s-13.5 -20.666 -13.5 -33.999v-258c0 -40 -18.667 -71.333 -56 -94c37.333 -22 56 -53 56 -93v-274c0 -12.667 4.5 -23.667 13.5 -33s19.833 -14 32.5 -14h44v-78h-37z" />
    <glyph glyph-name="bar" unicode="|" horiz-adv-x="401" 
d="M159 -179v971h82v-971h-82z" />
    <glyph glyph-name="braceright" unicode="}" horiz-adv-x="405" 
d="M83 -179v78h44c12.667 0 23.5 4.5 32.5 13.5s13.5 20.167 13.5 33.5v274c0 40 18.667 71 56 93c-37.333 22.667 -56 54 -56 94v258c0 13.333 -4.5 24.666 -13.5 33.999s-19.833 14 -32.5 14h-44v79h38c36 0 67 -13 93 -39s39 -57 39 -93v-253
c0 -15.333 4.33301 -28.333 13 -39s20.334 -16 35.001 -16h28v-78h-28c-14.667 0 -26.334 -5.16699 -35.001 -15.5s-13 -23.166 -13 -38.499v-266c0 -36.667 -13 -68 -39 -94s-57 -39 -93 -39h-38z" />
    <glyph glyph-name="asciitilde" unicode="~" horiz-adv-x="571" 
d="M119 294l-53.998 21.999l11 28c24.667 63.333 66 95 124 95c8 0 16.167 -0.666992 24.5 -2s17.666 -3.33301 27.999 -6s18.5 -5 24.5 -7l28 -9.5c12.667 -4.33301 20.667 -7.16602 24 -8.49902l51 -17c6.66699 -2 12.667 -3 18 -3c18 0 32 9.33301 42 28l13 25l53 -23
l-12 -28c-4.66699 -12 -9.33398 -21.833 -14.001 -29.5s-11.667 -17 -21 -28s-21.333 -19.5 -36 -25.5s-31.334 -9 -50.001 -9c-8.66699 0 -17.5 0.666992 -26.5 2s-19.167 3.5 -30.5 6.5s-20.666 5.66699 -27.999 8l-33 11l-31 10.5l-33 11c-8 2.66699 -13.667 4 -17 4
c-20.667 0 -36 -11.333 -46 -34z" />
    <glyph glyph-name="nbspace" unicode="&#xa0;" horiz-adv-x="305" 
 />
    <glyph glyph-name="exclamdown" unicode="&#xa1;" horiz-adv-x="342" 
d="M135 0c-6 0 -11.167 2.33301 -15.5 7s-6.5 10 -6.5 16v318l19 142c2 15.333 10 23 24 23h31c13.333 0 21 -7.66699 23 -23l19 -142v-318c0 -5.33301 -2.33301 -10.5 -7 -15.5s-10 -7.5 -16 -7.5h-71zM137 592c-7.33301 0 -13.6699 2.66699 -19.0029 8
s-8 11.666 -8 18.999v67c0 6.66699 2.83301 12.667 8.5 18s11.834 8 18.501 8h68c6.66699 0 12.834 -2.66699 18.501 -8s8.5 -11.333 8.5 -18v-67c0 -7.33301 -2.66699 -13.666 -8 -18.999s-11.666 -8 -18.999 -8h-68z" />
    <glyph glyph-name="cent" unicode="&#xa2;" 
d="M293 0v98.002l-22 2c-44 4 -80.667 21.667 -110 53s-44 69 -44 113v183c0 44.667 14.667 82.5 44 113.5s66 48.5 110 52.5l22 2v95h80v-95l24 -2c32.667 -2.66699 63.667 -15.834 93 -39.501s48 -50.834 56 -81.501l7 -28l-83 -23l-7 24
c-4.66699 16.667 -14 31.5 -28 44.5s-29.333 19.5 -46 19.5h-109c-22 0 -40.167 -7.33301 -54.5 -22s-21.5 -33 -21.5 -55v-193c0 -22 7.16699 -40.333 21.5 -55s32.5 -22 54.5 -22h108c38 0 62.667 20.333 74 61l7 26l82 -21l-6 -28
c-6.66699 -32 -24.167 -59.667 -52.5 -83s-60.5 -36.333 -96.5 -39l-23 -2v-98h-80z" />
    <glyph glyph-name="sterling" unicode="&#xa3;" 
d="M78 0v90h52l44 224h-88v89h105l36 180c8 39.333 27 70.666 57 93.999s66 35 108 35h20c82 0 135 -44 159 -132l9 -33l-85 -23l-12 38c-7.33301 22.667 -15.5 38.334 -24.5 47.001s-24.833 13 -47.5 13h-27c-41.333 0 -66.333 -23.667 -75 -71l-29 -148h125v-89h-143
l-42 -224h372v-90h-514z" />
    <glyph glyph-name="currency" unicode="&#xa4;" horiz-adv-x="649" 
d="M104 242v58h-104v84h104v328h319c50.667 0 93.5 -17.5 128.5 -52.5s52.5 -77.833 52.5 -128.5v-50c0 -50.667 -17.5 -93.5 -52.5 -128.5s-77.833 -52.5 -128.5 -52.5h-228v-58h147v-84h-147v-158h-91v158h-104v84h104zM195 384l234 0.000976562c24 0 44 8.16699 60 24.5
s24 36.166 24 59.499v68c0 24 -8 44.167 -24 60.5s-36 24.5 -60 24.5h-234v-237z" />
    <glyph glyph-name="yen" unicode="&#xa5;" 
d="M290 0v158h-145v84h145v35l-190 320c-9.33301 15.333 -14 31 -14 47v68h88v-49c0 -9.33301 2 -17.666 6 -24.999l155 -266l155 266c4 7.33301 6 15.666 6 24.999v49h89v-68c0 -15.333 -5 -31 -15 -47l-189 -320v-35h147v-84h-147v-158h-91z" />
    <glyph glyph-name="brokenbar" unicode="&#xa6;" horiz-adv-x="475" 
d="M196 428v284h82v-284h-82zM196 0v284h82v-284h-82z" />
    <glyph glyph-name="section" unicode="&#xa7;" 
d="M280 -66c-35.333 0 -65.3311 10.3311 -89.998 30.998s-41.334 47.334 -50.001 80.001l-3 11l82 23l4 -16c6.66699 -28 23 -42 49 -42h86c14.667 0 26.5 4.66699 35.5 14s13.5 21.333 13.5 36v23c0 34 -15 55.667 -45 65l-147 47c-26 8 -47.333 23.167 -64 45.5
s-25 48.5 -25 78.5v45c0 26 8 48.667 24 68s33 31.333 51 36c-18 16.667 -27 36.667 -27 60v34c0 40.667 12.833 74 38.5 100s58.5 39 98.5 39h72c35.333 0 65.166 -10.167 89.499 -30.5s41.5 -47.166 51.5 -80.499l3 -10l-83 -23l-5 14c-6 15.333 -12.167 26.5 -18.5 33.5
s-15.833 10.5 -28.5 10.5h-79c-14.667 0 -26.667 -4.66699 -36 -14s-14 -21.666 -14 -36.999v-21c0 -34.667 15.333 -56.334 46 -65.001l140 -42c28.667 -8.66699 51.667 -24.5 69 -47.5s26 -50.5 26 -82.5v-47c0 -50.667 -23.333 -86.667 -70 -108
c16 -12.667 24 -31 24 -55v-33c0 -40.667 -13 -74.167 -39 -100.5s-59.333 -39.5 -100 -39.5h-79zM418.002 229.998c12.667 0 23 5.83398 31 17.501s12 23.167 12 34.5v35c0 24.667 -11.333 40.667 -34 48l-160 49c-5.33301 1.33301 -9.33301 2 -12 2
c-12.667 0 -23.167 -5.66699 -31.5 -17s-12.5 -22.666 -12.5 -33.999v-36c0 -10.667 3.16699 -20.334 9.5 -29.001s14.5 -14.334 24.5 -17.001l162 -51c5.33301 -1.33301 9 -2 11 -2z" />
    <glyph glyph-name="dieresis" unicode="&#xa8;" horiz-adv-x="475" 
d="M307 598c-4.66699 0 -9.16699 2 -13.5 6s-6.5 8.66699 -6.5 14v50c0 4.66699 2 9 6 13s8.66699 6 14 6h53c5.33301 0 9.83301 -1.83301 13.5 -5.5s5.5 -8.16699 5.5 -13.5v-50c0 -5.33301 -2 -10 -6 -14s-8.66699 -6 -14 -6h-52zM113 598c-4.66699 0 -9 2 -13 6
s-6 8.66699 -6 14v50c0 5.33301 2 9.83301 6 13.5s8.33301 5.5 13 5.5h53c5.33301 0 9.83301 -1.83301 13.5 -5.5s5.5 -8.16699 5.5 -13.5v-50c0 -5.33301 -2 -10 -6 -14s-8.66699 -6 -14 -6h-52z" />
    <glyph glyph-name="copyright" unicode="&#xa9;" horiz-adv-x="872" 
d="M330 0c-66.667 0 -123.834 23.5 -171.501 70.5s-71.5 103.833 -71.5 170.5v229c0 66.667 23.833 123.667 71.5 171s104.834 71 171.501 71h213c66 0 122.667 -23.667 170 -71s71 -104.333 71 -171v-229c0 -66.667 -23.667 -123.5 -71 -170.5s-104 -70.5 -170 -70.5h-213z
M318 76h234c42 0 78.167 15 108.5 45s45.5 66 45.5 108v254c0 42 -15.167 78 -45.5 108s-66.5 45 -108.5 45h-234c-41.333 0 -77.166 -15 -107.499 -45s-45.5 -66 -45.5 -108v-254c0 -42 15.167 -78 45.5 -108s66.166 -45 107.499 -45zM395 161
c-28.667 0 -53.333 10.498 -74 31.498s-31 45.833 -31 74.5v180c0 28.667 10.333 53.5 31 74.5s45.334 31.5 74.001 31.5h82c26 0 49 -9 69 -27s32 -40.333 36 -67l-71 -20l-5 15c-6 17.333 -15 26 -27 26h-88c-7.33301 0 -13.666 -2.66699 -18.999 -8
s-8 -11.666 -8 -18.999v-192c0 -7.33301 2.66699 -13.666 8 -18.999s11.666 -8 18.999 -8h87c16 0 25.667 9 29 27l3 15l71 -20c-3.33301 -27.333 -14.833 -50 -34.5 -68s-42.834 -27 -69.501 -27h-82z" />
    <glyph glyph-name="ordfeminine" unicode="&#xaa;" horiz-adv-x="407" 
d="M170 323c-35.333 0 -63.333 10.9971 -84 32.9971s-31 48.667 -31 80c0 26.667 7.5 50.334 22.5 71.001s36.5 33.667 64.5 39l138 27c16.667 3.33301 25 14.666 25 33.999v2c0 18.667 -13.333 28 -40 28h-78c-10 0 -18.333 -2 -25 -6s-11.167 -8.16699 -13.5 -12.5
s-4.5 -10.166 -6.5 -17.499l-3 -11l-71 18l4 14c6 20.667 19.667 40.834 41 60.501s47.333 29.5 78 29.5h80c31.333 0 57.333 -9.66699 78 -29s31 -44.666 31 -75.999v-282h-74v32c-5.33301 -10.667 -14.5 -19 -27.5 -25s-26.5 -9 -40.5 -9h-68zM169 396.997l84 0.00195312
c14.667 0 26.834 5.16699 36.501 15.5s14.5 22.166 14.5 35.499v62c-4.66699 -4.66699 -11.667 -7.66699 -21 -9l-119 -23c-22.667 -4.66699 -34 -18.334 -34 -41.001c0 -10.667 3.66699 -20 11 -28s16.666 -12 27.999 -12z" />
    <glyph glyph-name="guillemotleft" unicode="&#xab;" horiz-adv-x="621" 
d="M508 116c-6.66699 0 -13 2.66699 -19 8l-190 172c-5.33301 5.33301 -8 11.666 -8 18.999c0 8.66699 2.66699 15 8 19l190 173c6 5.33301 12.333 8 19 8c5.33301 0 11.333 -2.66699 18 -8l11 -10c6 -6 9 -12.667 9 -20c0 -6 -3 -12.333 -9 -19l-122 -142l122 -144
c6 -7.33301 9 -13.666 9 -18.999c0 -7.33301 -3 -13.333 -9 -18l-10 -11c-6.66699 -5.33301 -13 -8 -19 -8zM275 116c-7.33301 0 -13.667 2.66797 -19 8.00098l-191 172c-5.33301 5.33301 -8 11.666 -8 18.999c0 8.66699 2.66699 15 8 19l191 173
c5.33301 5.33301 11.333 8 18 8s12.667 -2.66699 18 -8l12 -10c5.33301 -6.66699 8 -13.334 8 -20.001c0 -5.33301 -2.66699 -11.666 -8 -18.999l-123 -142l123 -144c5.33301 -6.66699 8 -13 8 -19c0 -6.66699 -2.66699 -12.667 -8 -18l-11 -11
c-6.66699 -5.33301 -12.667 -8 -18 -8z" />
    <glyph glyph-name="logicalnot" unicode="&#xac;" horiz-adv-x="571" 
d="M399 179v136h-306v78h383v-214h-77z" />
    <glyph glyph-name="registered" unicode="&#xae;" horiz-adv-x="872" 
d="M330 0c-66.667 0 -123.834 23.5 -171.501 70.5s-71.5 103.833 -71.5 170.5v229c0 66.667 23.833 123.667 71.5 171s104.834 71 171.501 71h213c66 0 122.667 -23.667 170 -71s71 -104.333 71 -171v-229c0 -66.667 -23.667 -123.5 -71 -170.5s-104 -70.5 -170 -70.5h-213z
M318 76h234c42 0 78.167 15 108.5 45s45.5 66 45.5 108v254c0 42 -15.167 78 -45.5 108s-66.5 45 -108.5 45h-234c-41.333 0 -77.166 -15 -107.499 -45s-45.5 -66 -45.5 -108v-254c0 -42 15.167 -78 45.5 -108s66.166 -45 107.499 -45zM299 161l-0.000976562 391.999h177
c28.667 0 53.334 -10.5 74.001 -31.5s31 -45.833 31 -74.5v-23c0 -22 -6 -42 -18 -60s-28 -30.667 -48 -38l43 -68c10 -16 16.167 -28.833 18.5 -38.5s3.5 -23.5 3.5 -41.5v-17h-74v25c0 8.66699 -2.33301 17.334 -7 26.001l-64 107h-60v-158h-76zM374.999 391.999
l105 0.00195312c7.33301 0 13.5 2.66699 18.5 8s7.5 11.666 7.5 18.999v34c0 7.33301 -2.5 13.666 -7.5 18.999s-11.167 8 -18.5 8h-105v-88z" />
    <glyph glyph-name="macron" unicode="&#xaf;" horiz-adv-x="475" 
d="M114 698h248v-75h-248v75z" />
    <glyph glyph-name="degree" unicode="&#xb0;" horiz-adv-x="357" 
d="M146 469c-23.333 0 -43.333 8.66699 -60 26s-25 38 -25 62v67c0 24 8.33301 44.667 25 62s36.667 26 60 26h64c23.333 0 43.666 -8.83301 60.999 -26.5s26 -38.167 26 -61.5v-67c0 -23.333 -8.66699 -43.833 -26 -61.5s-37.666 -26.5 -60.999 -26.5h-64zM149 532h59
c6 0 11.667 2.83301 17 8.5s8 11.167 8 16.5v67c0 5.33301 -2.66699 10.333 -8 15s-11 7 -17 7h-59c-6 0 -11.667 -2.33301 -17 -7s-8 -9.66699 -8 -15v-67c0 -5.33301 2.66699 -10.833 8 -16.5s11 -8.5 17 -8.5z" />
    <glyph glyph-name="plusminus" unicode="&#xb1;" horiz-adv-x="571" 
d="M247 119v198h-200v76h200v200h76v-200h199v-76h-199v-198h-76zM47 0v76h475v-76h-475z" />
    <glyph glyph-name="twosuperior" unicode="&#xb2;" horiz-adv-x="353" 
d="M69 415l-0.000976562 51c0 32.667 10.667 55.334 32 68.001l109 62c12.667 8 19 17.333 19 28v10c0 6.66699 -2.16699 12.167 -6.5 16.5s-9.83301 6.5 -16.5 6.5h-60c-12 0 -20.667 -11.333 -26 -34l-2 -8l-51 13l2 8c12.667 50.667 39 76 79 76h59
c22 0 40.333 -7.33301 55 -22s22 -33.334 22 -56.001v-17c0 -27.333 -16.333 -50.333 -49 -69l-89 -50c-9.33301 -5.33301 -15.166 -9.33301 -17.499 -12s-3.5 -7 -3.5 -13v-3h159v-55h-215z" />
    <glyph glyph-name="threesuperior" unicode="&#xb3;" horiz-adv-x="353" 
d="M152 415c-45.333 0 -72.667 27.665 -82 82.998l51 13l4 -18c3.33301 -15.333 11 -23 23 -23h57c6.66699 0 12.167 2.16699 16.5 6.5s6.5 9.83301 6.5 16.5v26c0 15.333 -6.33301 23 -19 23h-53v52h53c12.667 0 19 7.33301 19 22v18c0 6.66699 -2.16699 12.167 -6.5 16.5
s-9.83301 6.5 -16.5 6.5h-57c-6.66699 0 -11.667 -1.83301 -15 -5.5s-6 -9.5 -8 -17.5l-5 -18l-50 13c9.33301 55.333 36.333 83 81 83h53c22 0 40.5 -7.83301 55.5 -23.5s22.5 -34.5 22.5 -56.5v-12c0 -21.333 -6.66699 -38.666 -20 -51.999
c13.333 -13.333 20 -30.666 20 -51.999v-22c0 -22 -7.5 -40.667 -22.5 -56s-33.5 -23 -55.5 -23h-52z" />
    <glyph glyph-name="acute" unicode="&#xb4;" horiz-adv-x="475" 
d="M151 572c-9.33301 0 -15.667 3.66602 -19 10.999l-8 17c-2 4 -3 7.66699 -3 11c0 6.66699 3.33301 12.334 10 17.001l169 113c2.66699 1.33301 5.66699 2 9 2c9.33301 0 16 -3.33301 20 -10l21 -38c2 -3.33301 3 -7 3 -11c0 -6.66699 -3.66699 -12 -11 -16l-180 -93
c-4 -2 -7.66699 -3 -11 -3z" />
    <glyph glyph-name="mu" unicode="&#xb5;" 
d="M135 -199c-10 0 -15 6.00098 -15 18.001v181c0 28.667 9.66699 50.667 29 66c-19.333 25.333 -29 56.666 -29 93.999v353h89v-327c0 -68.667 31.667 -103 95 -103h63c61.333 0 92 32 92 96v334h91v-513h-91v47c-20 -33.333 -53.667 -50 -101 -50h-69
c-29.333 0 -53 5.66699 -71 17c-5.33301 -3.33301 -8 -14 -8 -32v-163c0 -12 -5.33301 -18 -16 -18h-59z" />
    <glyph glyph-name="paragraph" unicode="&#xb6;" horiz-adv-x="571" 
d="M294 -115v408h-52c-49.333 0 -91.833 17.667 -127.5 53s-53.5 78 -53.5 128v56c0 50 17.667 92.833 53 128.5s78 53.5 128 53.5h268v-827h-71v746h-74v-746h-71z" />
    <glyph glyph-name="periodcentered" unicode="&#xb7;" horiz-adv-x="380" 
d="M157 299c-6 0 -11.499 2.5 -16.499 7.5s-7.5 10.833 -7.5 17.5v63c0 6.66699 2.5 12.5 7.5 17.5s10.5 7.5 16.5 7.5h65c6.66699 0 12.167 -2.5 16.5 -7.5s6.5 -10.833 6.5 -17.5v-63c0 -6.66699 -2.33301 -12.5 -7 -17.5s-10.334 -7.5 -17.001 -7.5h-64z" />
    <glyph glyph-name="cedilla" unicode="&#xb8;" horiz-adv-x="475" 
d="M197 -186c-2.66699 0 -6 1 -10 3l-24 11c-8 4 -12 9.66699 -12 17c0 4 0.666992 7.33301 2 10l79 194c2.66699 8 8.66699 12 18 12c2 0 5 -0.666992 9 -2l44 -21c8 -4 12 -9.66699 12 -17c0 -4.66699 -0.666992 -8 -2 -10l-98 -185c-4 -8 -10 -12 -18 -12z" />
    <glyph glyph-name="onesuperior" unicode="&#xb9;" horiz-adv-x="353" 
d="M93 415v54h57v189h-51v54h105v-243h54v-54h-165z" />
    <glyph glyph-name="ordmasculine" unicode="&#xba;" horiz-adv-x="407" 
d="M182 322c-35.333 0 -65.167 12 -89.5 36s-36.5 54 -36.5 90v139c0 36 12 65.833 36 89.5s54 35.5 90 35.5h74c36 0 66.167 -11.833 90.5 -35.5s36.5 -53.5 36.5 -89.5v-139c0 -36 -12.167 -66 -36.5 -90s-54.5 -36 -90.5 -36h-74zM180.999 397h77
c14 0 25.667 4.5 35 13.5s14 20.833 14 35.5v142c0 14.667 -4.66699 26.5 -14 35.5s-21 13.5 -35 13.5h-77c-13.333 0 -24.833 -4.33301 -34.5 -13s-14.5 -20.667 -14.5 -36v-142c0 -14.667 4.66699 -26.5 14 -35.5s21 -13.5 35 -13.5z" />
    <glyph glyph-name="guillemotright" unicode="&#xbb;" horiz-adv-x="621" 
d="M346 116c-6.66699 0 -12.666 2.66602 -17.999 7.99902l-11 11c-5.33301 5.33301 -8 11.333 -8 18c0 6 2.66699 12.333 8 19l122 144l-122 142c-5.33301 6 -8 12.333 -8 19c0 8.66699 2.66699 15.334 8 20.001l11 10c6.66699 5.33301 12.667 8 18 8
c7.33301 0 13.666 -2.66699 18.999 -8l191 -173c4.66699 -4 7 -10.333 7 -19c0 -8 -2.33301 -14.333 -7 -19l-191 -172c-6 -5.33301 -12.333 -8 -19 -8zM112.001 115.999c-6.66699 0 -12.667 2.66602 -18 7.99902l-11 11c-5.33301 5.33301 -8 11.333 -8 18
c0 6 2.66699 12.333 8 19l122 144l-122 142c-5.33301 6 -8 12.333 -8 19c0 8.66699 2.66699 15.334 8 20.001l12 10c5.33301 5.33301 11.333 8 18 8s12.667 -2.66699 18 -8l191 -173c4.66699 -4 7 -10.333 7 -19c0 -8 -2.33301 -14.333 -7 -19l-191 -172
c-6 -5.33301 -12.333 -8 -19 -8z" />
    <glyph glyph-name="onequarter" unicode="&#xbc;" 
d="M458 0v67h-132v47l135 183h50v-178h31v-52h-31v-67h-53zM152 163l-38 42l428 364l37 -44zM96 415v54h57v189h-51v54h105v-243h54v-54h-165zM458 206l-65 -87h65v87z" />
    <glyph glyph-name="onehalf" unicode="&#xbd;" 
d="M357 0l-0.000976562 51c0 32.667 10.667 55.334 32 68.001l109 62c12.667 8 19 17.333 19 28v10c0 6.66699 -2.16699 12.167 -6.5 16.5s-9.83301 6.5 -16.5 6.5h-60c-12 0 -20.667 -11.333 -26 -34l-2 -8l-51 13l2 8c12.667 50.667 39 76 79 76h59
c22 0 40.333 -7.33301 55 -22s22 -33.334 22 -56.001v-17c0 -27.333 -16.333 -50.333 -49 -69l-89 -50c-9.33301 -5.33301 -15.166 -9.33301 -17.499 -12s-3.5 -7 -3.5 -13v-3h159v-55h-215zM142.999 163l-38 42l427 364l37 -44zM97.999 415v54h57v189h-51v54h105v-243h54
v-54h-165z" />
    <glyph glyph-name="threequarters" unicode="&#xbe;" 
d="M479 0v67h-132v47l136 183h50v-178h31v-52h-31v-67h-54zM162 415c-44.667 0 -71.666 27.665 -80.999 82.998l50 13l4 -18c3.33301 -15.333 11 -23 23 -23h57c14.667 0 22 7.66699 22 23v26c0 15.333 -5.66699 23 -17 23h-53v52h53c11.333 0 17 7.33301 17 22v18
c0 15.333 -7.33301 23 -22 23h-57c-12 0 -19.667 -7.66699 -23 -23l-4 -18l-51 13c9.33301 55.333 36.666 83 81.999 83h52c22 0 40.5 -7.83301 55.5 -23.5s22.5 -34.5 22.5 -56.5v-12c0 -21.333 -6.66699 -38.666 -20 -51.999c13.333 -13.333 20 -30.666 20 -51.999v-22
c0 -22 -7.5 -40.667 -22.5 -56s-33.5 -23 -55.5 -23h-52zM166.001 162.998l-38 42l427 364l37 -44zM479.001 118.998v87l-64 -87h64z" />
    <glyph glyph-name="questiondown" unicode="&#xbf;" horiz-adv-x="599" 
d="M244 0c-47.333 0 -86.332 15.167 -116.999 45.5s-46 69.166 -46 116.499v36c0 41.333 28 85 84 131l97 79c12.667 10 21.667 19.167 27 27.5s8 19.833 8 34.5v25c0 8 3.66699 12 11 12h65c7.33301 0 11 -4 11 -12v-25c0 -28 -6.83301 -52.333 -20.5 -73
s-35.5 -43.334 -65.5 -68.001l-76 -62c-20 -16.667 -33.5 -29.667 -40.5 -39s-10.5 -21.666 -10.5 -36.999v-28c0 -21.333 6.66699 -38.666 20 -51.999s30.666 -20 51.999 -20h137c40 0 65.667 24.667 77 74l6 28l84 -23c-8 -50.667 -26.333 -91.667 -55 -123
s-67.667 -47 -117 -47h-131zM306.001 592c-6.66699 0 -12.834 2.66699 -18.501 8s-8.5 11.333 -8.5 18v68c0 6.66699 2.83301 12.667 8.5 18s11.834 8 18.501 8h68c6.66699 0 12.834 -2.66699 18.501 -8s8.5 -11.333 8.5 -18v-68c0 -6.66699 -2.83301 -12.667 -8.5 -18
s-11.834 -8 -18.501 -8h-68z" />
    <glyph glyph-name="Agrave" unicode="&#xc0;" horiz-adv-x="609" 
d="M54 0v31c0 27.333 3.66699 52 11 74l194 607h91l194 -607c7.33301 -22 11 -46.667 11 -74v-31h-89v29c0 13.333 -1 24 -3 32l-26 99h-264l-27 -99c-2 -8 -3 -18.667 -3 -32v-29h-89zM201 250h207l-104 316zM384 772c-3.33301 0 -7.00098 1.00195 -11.001 3.00195l-180 93
c-7.33301 4 -11 9.33301 -11 16c0 2 1.33301 5.66699 4 11l20 38c4 6.66699 10.667 10 20 10c3.33301 0 6.33301 -0.666992 9 -2l169 -113c6.66699 -4.66699 10 -10.334 10 -17.001c0 -4.66699 -0.666992 -8.33398 -2 -11.001l-9 -17
c-3.33301 -7.33301 -9.66602 -11 -18.999 -11z" />
    <glyph glyph-name="Aacute" unicode="&#xc1;" horiz-adv-x="609" 
d="M54 0v31c0 27.333 3.66699 52 11 74l194 607h91l194 -607c7.33301 -22 11 -46.667 11 -74v-31h-89v29c0 13.333 -1 24 -3 32l-26 99h-264l-27 -99c-2 -8 -3 -18.667 -3 -32v-29h-89zM201 250h207l-104 316zM212 772c-9.33301 0 -15.667 3.66602 -19 10.999l-8 17
c-2 4 -3 7.66699 -3 11c0 6.66699 3.33301 12.334 10 17.001l169 113c2.66699 1.33301 5.66699 2 9 2c9.33301 0 16 -3.33301 20 -10l21 -38c2 -3.33301 3 -7 3 -11c0 -6.66699 -3.66699 -12 -11 -16l-180 -93c-4 -2 -7.66699 -3 -11 -3z" />
    <glyph glyph-name="Acircumflex" unicode="&#xc2;" horiz-adv-x="609" 
d="M54 0v31c0 27.333 3.66699 52 11 74l194 607h91l194 -607c7.33301 -22 11 -46.667 11 -74v-31h-89v29c0 13.333 -1 24 -3 32l-26 99h-264l-27 -99c-2 -8 -3 -18.667 -3 -32v-29h-89zM201 250h207l-104 316zM420 771c-6 0 -11.335 2.33301 -16.002 7l-106 95l-106 -94
c-5.33301 -4.66699 -10.666 -7 -15.999 -7c-6 0 -11 2.33301 -15 7l-13 14c-4 4.66699 -6 9.66699 -6 15s2 10 6 14l98 107c2.66699 4 7.33398 6 14.001 6h74c6.66699 0 11.667 -2 15 -6l99 -107c4 -4 6 -8.66699 6 -14c0 -6 -2 -11 -6 -15l-13 -14
c-5.33301 -5.33301 -10.333 -8 -15 -8z" />
    <glyph glyph-name="Atilde" unicode="&#xc3;" horiz-adv-x="609" 
d="M54 0v31c0 27.333 3.66699 52 11 74l194 607h91l194 -607c7.33301 -22 11 -46.667 11 -74v-31h-89v29c0 13.333 -1 24 -3 32l-26 99h-264l-27 -99c-2 -8 -3 -18.667 -3 -32v-29h-89zM201 250h207l-104 316zM157 788l-39.998 16l8 22c19.333 52.667 53.666 79 102.999 79
c15.333 0 42 -6.33301 80 -19l70 -24c6 -2 11.667 -3 17 -3c15.333 0 27.333 8.66699 36 26l6 12l43 -18l-8 -18c-21.333 -48 -53.333 -72 -96 -72c-23.333 0 -58 7.66699 -104 23l-52 18c-6 2 -11.333 3 -16 3c-16.667 0 -29.334 -8.66699 -38.001 -26z" />
    <glyph glyph-name="Adieresis" unicode="&#xc4;" horiz-adv-x="609" 
d="M54 0v31c0 27.333 3.66699 52 11 74l194 607h91l194 -607c7.33301 -22 11 -46.667 11 -74v-31h-89v29c0 13.333 -1 24 -3 32l-26 99h-264l-27 -99c-2 -8 -3 -18.667 -3 -32v-29h-89zM201 250h207l-104 316zM369 798c-4.66699 0 -9.16699 2 -13.5 6s-6.5 8.66699 -6.5 14
v50c0 4.66699 2 9 6 13s8.66699 6 14 6h53c5.33301 0 9.83301 -1.83301 13.5 -5.5s5.5 -8.16699 5.5 -13.5v-50c0 -5.33301 -2 -10 -6 -14s-8.66699 -6 -14 -6h-52zM175 798c-4.66699 0 -9 2 -13 6s-6 8.66699 -6 14v50c0 5.33301 2 9.83301 6 13.5s8.33301 5.5 13 5.5h53
c5.33301 0 9.83301 -1.83301 13.5 -5.5s5.5 -8.16699 5.5 -13.5v-50c0 -5.33301 -2 -10 -6 -14s-8.66699 -6 -14 -6h-52z" />
    <glyph glyph-name="Aring" unicode="&#xc5;" horiz-adv-x="609" 
d="M48 0v31c0 27.333 3.66699 52 11 74l194 607h91l194 -607c7.33301 -22 11 -46.667 11 -74v-31h-89v29c0 13.333 -1 24 -3 32l-26 99h-264l-27 -99c-2 -8 -3 -18.667 -3 -32v-29h-89zM195 250h207l-104 316zM277 772c-18 0 -33.167 6.5 -45.5 19.5
s-18.5 28.833 -18.5 47.5v42c0 18 6.16699 33.667 18.5 47s27.5 20 45.5 20h40c18 0 33.667 -6.66699 47 -20s20 -29 20 -47v-42c0 -18.667 -6.66699 -34.5 -20 -47.5s-29 -19.5 -47 -19.5h-40zM282 822h30c5.33301 0 10.333 2 15 6s7 8.66699 7 14v35
c0 4.66699 -2.33301 9 -7 13s-9.66699 6 -15 6h-30c-4.66699 0 -9 -2 -13 -6s-6 -8.33301 -6 -13v-35c0 -5.33301 2 -10 6 -14s8.33301 -6 13 -6z" />
    <glyph glyph-name="AE" unicode="&#xc6;" horiz-adv-x="955" 
d="M68 0v57.001c0 16.667 3.66699 32.667 11 48l280 607h522v-91h-344v-212h254v-90h-254v-228h344v-91h-434v187h-228l-59 -126c-2 -4.66699 -3 -11.334 -3 -20.001v-41h-89zM257 278.001h190v343h-36z" />
    <glyph glyph-name="Ccedilla" unicode="&#xc7;" horiz-adv-x="647" 
d="M274 -186c-4 0 -8 1 -12 3l-24 11c-8 4 -12 9.66699 -12 17c0 2.66699 1 6 3 10l58 145h-19c-50.667 0 -93.5 17.5 -128.5 52.5s-52.5 77.833 -52.5 128.5v350c0 50.667 17.5 93.5 52.5 128.5s77.833 52.5 128.5 52.5h139c52.667 0 94.334 -15.667 125.001 -47
s50.334 -72.333 59.001 -123l-85 -23l-7 28c-12.667 49.333 -41.334 74 -86.001 74h-151c-24 0 -44 -8.16699 -60 -24.5s-24 -36.5 -24 -60.5v-361c0 -24 8 -44.167 24 -60.5s36 -24.5 60 -24.5h149c48 0 77.333 25 88 75l6 28l84 -23c-8 -50.667 -27.333 -91.667 -58 -123
s-72.334 -47 -125.001 -47h-23l-93 -175c-4 -7.33301 -9.33301 -11 -16 -11z" />
    <glyph glyph-name="Egrave" unicode="&#xc8;" horiz-adv-x="679" 
d="M104 0v712h500v-91h-409v-211h319v-91h-319v-228h409v-91h-500zM419 772c-3.33301 0 -7 1.00195 -11 3.00195l-180 93c-7.33301 4 -11 9.33301 -11 16c0 2 1.33301 5.66699 4 11l20 38c4 6.66699 10.667 10 20 10c3.33301 0 6.33301 -0.666992 9 -2l169 -113
c6.66699 -4.66699 10 -10.334 10 -17.001c0 -4.66699 -0.666992 -8.33398 -2 -11.001l-9 -17c-4 -7.33301 -10.333 -11 -19 -11z" />
    <glyph glyph-name="Eacute" unicode="&#xc9;" horiz-adv-x="679" 
d="M104 0v712h500v-91h-409v-211h319v-91h-319v-228h409v-91h-500zM247 772c-9.33301 0 -15.667 3.66602 -19 10.999l-8 17c-2 4 -3 7.66699 -3 11c0 6.66699 3.33301 12.334 10 17.001l169 113c2.66699 1.33301 5.66699 2 9 2c9.33301 0 16 -3.33301 20 -10l21 -38
c2 -3.33301 3 -7 3 -11c0 -6.66699 -3.66699 -12 -11 -16l-180 -93c-4 -2 -7.66699 -3 -11 -3z" />
    <glyph glyph-name="Ecircumflex" unicode="&#xca;" horiz-adv-x="679" 
d="M104 0v712h500v-91h-409v-211h319v-91h-319v-228h409v-91h-500zM455 771c-6 0 -11.334 2.33301 -16.001 7l-106 95l-106 -94c-5.33301 -4.66699 -10.666 -7 -15.999 -7c-6 0 -11 2.33301 -15 7l-13 14c-4 4.66699 -6 9.66699 -6 15s2 10 6 14l98 107c3.33301 4 8 6 14 6
h74c6.66699 0 11.667 -2 15 -6l99 -107c4 -4 6 -8.66699 6 -14c0 -6 -2 -11 -6 -15l-13 -14c-5.33301 -5.33301 -10.333 -8 -15 -8z" />
    <glyph glyph-name="Edieresis" unicode="&#xcb;" horiz-adv-x="679" 
d="M104 0v712h500v-91h-409v-211h319v-91h-319v-228h409v-91h-500zM404 798c-5.33301 0 -10 2 -14 6s-6 8.66699 -6 14v50c0 4.66699 2 9 6 13s8.66699 6 14 6h53c5.33301 0 9.83301 -1.83301 13.5 -5.5s5.5 -8.16699 5.5 -13.5v-50c0 -5.33301 -2 -10 -6 -14
s-8.66699 -6 -14 -6h-52zM210 798c-4.66699 0 -9 2 -13 6s-6 8.66699 -6 14v50c0 5.33301 1.83301 9.83301 5.5 13.5s8.16699 5.5 13.5 5.5h53c5.33301 0 9.83301 -1.83301 13.5 -5.5s5.5 -8.16699 5.5 -13.5v-50c0 -5.33301 -2 -10 -6 -14s-8.66699 -6 -14 -6h-52z" />
    <glyph glyph-name="Igrave" unicode="&#xcc;" horiz-adv-x="474" 
d="M85 0v91h106v530h-106v91h303v-91h-105v-530h105v-91h-303zM316 772c-3.33301 0 -7.00098 1.00195 -11.001 3.00195l-180 93c-7.33301 4 -11 9.33301 -11 16c0 2 1.33301 5.66699 4 11l20 38c4 6.66699 10.667 10 20 10c3.33301 0 6.33301 -0.666992 9 -2l169 -113
c6.66699 -4.66699 10 -10.334 10 -17.001c0 -4.66699 -0.666992 -8.33398 -2 -11.001l-9 -17c-3.33301 -7.33301 -9.66602 -11 -18.999 -11z" />
    <glyph glyph-name="Iacute" unicode="&#xcd;" horiz-adv-x="474" 
d="M85 0v91h106v530h-106v91h303v-91h-105v-530h105v-91h-303zM144 772c-9.33301 0 -15.667 3.66602 -19 10.999l-8 17c-2 4 -3 7.66699 -3 11c0 6.66699 3.33301 12.334 10 17.001l169 113c2.66699 1.33301 5.66699 2 9 2c9.33301 0 16 -3.33301 20 -10l21 -38
c2 -3.33301 3 -7 3 -11c0 -6.66699 -3.66699 -12 -11 -16l-180 -93c-4 -2 -7.66699 -3 -11 -3z" />
    <glyph glyph-name="Icircumflex" unicode="&#xce;" horiz-adv-x="474" 
d="M85 0v91h106v530h-106v91h303v-91h-105v-530h105v-91h-303zM352 771c-6 0 -11.335 2.33301 -16.002 7l-106 95l-106 -94c-5.33301 -4.66699 -10.666 -7 -15.999 -7c-6 0 -11 2.33301 -15 7l-13 14c-4 4.66699 -6 9.66699 -6 15s2 10 6 14l98 107
c2.66699 4 7.33398 6 14.001 6h74c6.66699 0 11.667 -2 15 -6l99 -107c4 -4 6 -8.66699 6 -14c0 -6 -2 -11 -6 -15l-13 -14c-5.33301 -5.33301 -10.333 -8 -15 -8z" />
    <glyph glyph-name="Idieresis" unicode="&#xcf;" horiz-adv-x="474" 
d="M85 0v91h106v530h-106v91h303v-91h-105v-530h105v-91h-303zM301 798c-4.66699 0 -9.16699 2 -13.5 6s-6.5 8.66699 -6.5 14v50c0 4.66699 2 9 6 13s8.66699 6 14 6h53c5.33301 0 9.83301 -1.83301 13.5 -5.5s5.5 -8.16699 5.5 -13.5v-50c0 -5.33301 -2 -10 -6 -14
s-8.66699 -6 -14 -6h-52zM107 798c-4.66699 0 -9 2 -13 6s-6 8.66699 -6 14v50c0 5.33301 2 9.83301 6 13.5s8.33301 5.5 13 5.5h53c5.33301 0 9.83301 -1.83301 13.5 -5.5s5.5 -8.16699 5.5 -13.5v-50c0 -5.33301 -2 -10 -6 -14s-8.66699 -6 -14 -6h-52z" />
    <glyph glyph-name="Eth" unicode="&#xd0;" horiz-adv-x="692" 
d="M104 0v316h-106v82h106v314h319c50 0 92.5 -17.5 127.5 -52.5s52.5 -77.833 52.5 -128.5v-350c0 -50.667 -17.5 -93.5 -52.5 -128.5s-77.5 -52.5 -127.5 -52.5h-319zM195 91h234c24 0 44 8.16699 60 24.5s24 36.5 24 60.5v360c0 24 -8 44.167 -24 60.5s-36 24.5 -60 24.5
h-234v-223h107v-82h-107v-225z" />
    <glyph glyph-name="Ntilde" unicode="&#xd1;" horiz-adv-x="709" 
d="M104 0v712h96l313 -526v526h91v-712h-92l-317 536v-536h-91zM207 788l-39.998 16l8 22c19.333 52.667 53.666 79 102.999 79c15.333 0 42 -6.33301 80 -19l70 -24c6 -2 11.667 -3 17 -3c15.333 0 27.333 8.66699 36 26l6 12l43 -18l-8 -18
c-21.333 -48 -53.333 -72 -96 -72c-23.333 0 -58 7.66699 -104 23l-52 18c-6 2 -11.333 3 -16 3c-16.667 0 -29.334 -8.66699 -38.001 -26z" />
    <glyph glyph-name="Ograve" unicode="&#xd2;" horiz-adv-x="669" 
d="M265 0c-50.667 0 -93.5 17.5 -128.5 52.5s-52.5 77.833 -52.5 128.5v350c0 50.667 17.5 93.5 52.5 128.5s77.833 52.5 128.5 52.5h138c50.667 0 93.5 -17.5 128.5 -52.5s52.5 -77.833 52.5 -128.5v-350c0 -50.667 -17.5 -93.5 -52.5 -128.5s-77.833 -52.5 -128.5 -52.5
h-138zM259 91h149c24 0 44.167 8.16699 60.5 24.5s24.5 36.5 24.5 60.5v360c0 24 -8.16699 44.167 -24.5 60.5s-36.5 24.5 -60.5 24.5h-149c-24 0 -44 -8.16699 -60 -24.5s-24 -36.5 -24 -60.5v-360c0 -24 8 -44.167 24 -60.5s36 -24.5 60 -24.5zM414 772
c-3.33301 0 -7.00098 1.00195 -11.001 3.00195l-180 93c-7.33301 4 -11 9.33301 -11 16c0 2 1.33301 5.66699 4 11l20 38c4 6.66699 10.667 10 20 10c3.33301 0 6.33301 -0.666992 9 -2l169 -113c6.66699 -4.66699 10 -10.334 10 -17.001
c0 -4.66699 -0.666992 -8.33398 -2 -11.001l-9 -17c-3.33301 -7.33301 -9.66602 -11 -18.999 -11z" />
    <glyph glyph-name="Oacute" unicode="&#xd3;" horiz-adv-x="669" 
d="M265 0c-50.667 0 -93.5 17.5 -128.5 52.5s-52.5 77.833 -52.5 128.5v350c0 50.667 17.5 93.5 52.5 128.5s77.833 52.5 128.5 52.5h138c50.667 0 93.5 -17.5 128.5 -52.5s52.5 -77.833 52.5 -128.5v-350c0 -50.667 -17.5 -93.5 -52.5 -128.5s-77.833 -52.5 -128.5 -52.5
h-138zM259 91h149c24 0 44.167 8.16699 60.5 24.5s24.5 36.5 24.5 60.5v360c0 24 -8.16699 44.167 -24.5 60.5s-36.5 24.5 -60.5 24.5h-149c-24 0 -44 -8.16699 -60 -24.5s-24 -36.5 -24 -60.5v-360c0 -24 8 -44.167 24 -60.5s36 -24.5 60 -24.5zM242 772
c-9.33301 0 -15.667 3.66602 -19 10.999l-8 17c-2 4 -3 7.66699 -3 11c0 6.66699 3.33301 12.334 10 17.001l169 113c2.66699 1.33301 5.66699 2 9 2c9.33301 0 16 -3.33301 20 -10l21 -38c2 -3.33301 3 -7 3 -11c0 -6.66699 -3.66699 -12 -11 -16l-180 -93
c-4 -2 -7.66699 -3 -11 -3z" />
    <glyph glyph-name="Ocircumflex" unicode="&#xd4;" horiz-adv-x="669" 
d="M265 0c-50.667 0 -93.5 17.5 -128.5 52.5s-52.5 77.833 -52.5 128.5v350c0 50.667 17.5 93.5 52.5 128.5s77.833 52.5 128.5 52.5h138c50.667 0 93.5 -17.5 128.5 -52.5s52.5 -77.833 52.5 -128.5v-350c0 -50.667 -17.5 -93.5 -52.5 -128.5s-77.833 -52.5 -128.5 -52.5
h-138zM259 91h149c24 0 44.167 8.16699 60.5 24.5s24.5 36.5 24.5 60.5v360c0 24 -8.16699 44.167 -24.5 60.5s-36.5 24.5 -60.5 24.5h-149c-24 0 -44 -8.16699 -60 -24.5s-24 -36.5 -24 -60.5v-360c0 -24 8 -44.167 24 -60.5s36 -24.5 60 -24.5zM450 771
c-6 0 -11.335 2.33301 -16.002 7l-106 95l-106 -94c-5.33301 -4.66699 -10.666 -7 -15.999 -7c-6 0 -11 2.33301 -15 7l-13 14c-4 4.66699 -6 9.66699 -6 15s2 10 6 14l98 107c2.66699 4 7.33398 6 14.001 6h74c6.66699 0 11.667 -2 15 -6l99 -107c4 -4 6 -8.66699 6 -14
c0 -6 -2 -11 -6 -15l-13 -14c-5.33301 -5.33301 -10.333 -8 -15 -8z" />
    <glyph glyph-name="Otilde" unicode="&#xd5;" horiz-adv-x="669" 
d="M265 0c-50.667 0 -93.5 17.5 -128.5 52.5s-52.5 77.833 -52.5 128.5v350c0 50.667 17.5 93.5 52.5 128.5s77.833 52.5 128.5 52.5h138c50.667 0 93.5 -17.5 128.5 -52.5s52.5 -77.833 52.5 -128.5v-350c0 -50.667 -17.5 -93.5 -52.5 -128.5s-77.833 -52.5 -128.5 -52.5
h-138zM259 91h149c24 0 44.167 8.16699 60.5 24.5s24.5 36.5 24.5 60.5v360c0 24 -8.16699 44.167 -24.5 60.5s-36.5 24.5 -60.5 24.5h-149c-24 0 -44 -8.16699 -60 -24.5s-24 -36.5 -24 -60.5v-360c0 -24 8 -44.167 24 -60.5s36 -24.5 60 -24.5zM187 788l-39.998 16l8 22
c19.333 52.667 53.666 79 102.999 79c15.333 0 42 -6.33301 80 -19l70 -24c6 -2 11.667 -3 17 -3c15.333 0 27.333 8.66699 36 26l6 12l43 -18l-8 -18c-21.333 -48 -53.333 -72 -96 -72c-23.333 0 -58 7.66699 -104 23l-52 18c-6 2 -11.333 3 -16 3
c-16.667 0 -29.334 -8.66699 -38.001 -26z" />
    <glyph glyph-name="Odieresis" unicode="&#xd6;" horiz-adv-x="669" 
d="M265 0c-50.667 0 -93.5 17.5 -128.5 52.5s-52.5 77.833 -52.5 128.5v350c0 50.667 17.5 93.5 52.5 128.5s77.833 52.5 128.5 52.5h138c50.667 0 93.5 -17.5 128.5 -52.5s52.5 -77.833 52.5 -128.5v-350c0 -50.667 -17.5 -93.5 -52.5 -128.5s-77.833 -52.5 -128.5 -52.5
h-138zM259 91h149c24 0 44.167 8.16699 60.5 24.5s24.5 36.5 24.5 60.5v360c0 24 -8.16699 44.167 -24.5 60.5s-36.5 24.5 -60.5 24.5h-149c-24 0 -44 -8.16699 -60 -24.5s-24 -36.5 -24 -60.5v-360c0 -24 8 -44.167 24 -60.5s36 -24.5 60 -24.5zM399 798
c-4.66699 0 -9.16699 2 -13.5 6s-6.5 8.66699 -6.5 14v50c0 4.66699 2 9 6 13s8.66699 6 14 6h53c5.33301 0 9.83301 -1.83301 13.5 -5.5s5.5 -8.16699 5.5 -13.5v-50c0 -5.33301 -2 -10 -6 -14s-8.66699 -6 -14 -6h-52zM205 798c-4.66699 0 -9 2 -13 6s-6 8.66699 -6 14v50
c0 5.33301 2 9.83301 6 13.5s8.33301 5.5 13 5.5h53c5.33301 0 9.83301 -1.83301 13.5 -5.5s5.5 -8.16699 5.5 -13.5v-50c0 -5.33301 -2 -10 -6 -14s-8.66699 -6 -14 -6h-52z" />
    <glyph glyph-name="multiply" unicode="&#xd7;" horiz-adv-x="571" 
d="M153 154l-61 60l132 133l-132 133l61 60l132 -133l132 132l61 -60l-131 -132l131 -132l-61 -60l-132 132z" />
    <glyph glyph-name="Oslash" unicode="&#xd8;" horiz-adv-x="669" 
d="M106 -38l-62.999 45.999l62 88c-14 25.333 -21 53.333 -21 84v352c0 50.667 17.5 93.334 52.5 128.001s77.5 52 127.5 52h140c39.333 0 75.333 -12 108 -36l50 71l62 -45l-61 -86c14 -26.667 21 -54.667 21 -84v-352c0 -50 -17.5 -92.5 -52.5 -127.5
s-77.5 -52.5 -127.5 -52.5h-140c-40.667 0 -76.334 11.667 -107.001 35zM171.001 190.999l293.001 416c-16 12.667 -34.333 19 -55 19h-151c-24.667 0 -45.334 -8.66699 -62.001 -26s-25 -38 -25 -62v-347zM258.002 85.999h151c24.667 0 45.5 8.5 62.5 25.5
s25.5 37.833 25.5 62.5v348l-292 -418c15.333 -12 33 -18 53 -18z" />
    <glyph glyph-name="Ugrave" unicode="&#xd9;" horiz-adv-x="675" 
d="M268 0c-50.667 0 -93.5 17.5 -128.5 52.5s-52.5 77.833 -52.5 128.5v531h90v-536c0 -24 8 -44.167 24 -60.5s36 -24.5 60 -24.5h150c24 0 44.167 8.16699 60.5 24.5s24.5 36.5 24.5 60.5v536h91v-531c0 -50.667 -17.5 -93.5 -52.5 -128.5s-77.833 -52.5 -128.5 -52.5
h-138zM417 772c-3.33301 0 -7 1.00195 -11 3.00195l-180 93c-7.33301 4 -11 9.33301 -11 16c0 2 1.33301 5.66699 4 11l20 38c4 6.66699 10.667 10 20 10c3.33301 0 6.33301 -0.666992 9 -2l169 -113c6.66699 -4.66699 10 -10.334 10 -17.001
c0 -4.66699 -0.666992 -8.33398 -2 -11.001l-9 -17c-4 -7.33301 -10.333 -11 -19 -11z" />
    <glyph glyph-name="Uacute" unicode="&#xda;" horiz-adv-x="675" 
d="M268 0c-50.667 0 -93.5 17.5 -128.5 52.5s-52.5 77.833 -52.5 128.5v531h90v-536c0 -24 8 -44.167 24 -60.5s36 -24.5 60 -24.5h150c24 0 44.167 8.16699 60.5 24.5s24.5 36.5 24.5 60.5v536h91v-531c0 -50.667 -17.5 -93.5 -52.5 -128.5s-77.833 -52.5 -128.5 -52.5
h-138zM245 772c-9.33301 0 -15.667 3.66602 -19 10.999l-8 17c-2 4 -3 7.66699 -3 11c0 6.66699 3.33301 12.334 10 17.001l169 113c2.66699 1.33301 5.66699 2 9 2c9.33301 0 16 -3.33301 20 -10l21 -38c2 -3.33301 3 -7 3 -11c0 -6.66699 -3.66699 -12 -11 -16l-180 -93
c-4 -2 -7.66699 -3 -11 -3z" />
    <glyph glyph-name="Ucircumflex" unicode="&#xdb;" horiz-adv-x="675" 
d="M268 0c-50.667 0 -93.5 17.5 -128.5 52.5s-52.5 77.833 -52.5 128.5v531h90v-536c0 -24 8 -44.167 24 -60.5s36 -24.5 60 -24.5h150c24 0 44.167 8.16699 60.5 24.5s24.5 36.5 24.5 60.5v536h91v-531c0 -50.667 -17.5 -93.5 -52.5 -128.5s-77.833 -52.5 -128.5 -52.5
h-138zM453 771c-6 0 -11.334 2.33301 -16.001 7l-106 95l-106 -94c-5.33301 -4.66699 -10.666 -7 -15.999 -7c-6 0 -11 2.33301 -15 7l-13 14c-4 4.66699 -6 9.66699 -6 15s2 10 6 14l98 107c3.33301 4 8 6 14 6h74c6.66699 0 11.667 -2 15 -6l99 -107
c4 -4 6 -8.66699 6 -14c0 -6 -2 -11 -6 -15l-13 -14c-5.33301 -5.33301 -10.333 -8 -15 -8z" />
    <glyph glyph-name="Udieresis" unicode="&#xdc;" horiz-adv-x="675" 
d="M268 0c-50.667 0 -93.5 17.5 -128.5 52.5s-52.5 77.833 -52.5 128.5v531h90v-536c0 -24 8 -44.167 24 -60.5s36 -24.5 60 -24.5h150c24 0 44.167 8.16699 60.5 24.5s24.5 36.5 24.5 60.5v536h91v-531c0 -50.667 -17.5 -93.5 -52.5 -128.5s-77.833 -52.5 -128.5 -52.5
h-138zM402 798c-5.33301 0 -10 2 -14 6s-6 8.66699 -6 14v50c0 4.66699 2 9 6 13s8.66699 6 14 6h53c5.33301 0 9.83301 -1.83301 13.5 -5.5s5.5 -8.16699 5.5 -13.5v-50c0 -5.33301 -2 -10 -6 -14s-8.66699 -6 -14 -6h-52zM208 798c-4.66699 0 -9 2 -13 6s-6 8.66699 -6 14
v50c0 5.33301 1.83301 9.83301 5.5 13.5s8.16699 5.5 13.5 5.5h53c5.33301 0 9.83301 -1.83301 13.5 -5.5s5.5 -8.16699 5.5 -13.5v-50c0 -5.33301 -2 -10 -6 -14s-8.66699 -6 -14 -6h-52z" />
    <glyph glyph-name="Yacute" unicode="&#xdd;" horiz-adv-x="598" 
d="M254 0v277l-190 320c-10 16 -15 31.667 -15 47v68h89v-49c0 -9.33301 2 -17.666 6 -24.999l155 -266l155 266c4 7.33301 6 15.666 6 24.999v49h88v-68c0 -16 -4.66699 -31.667 -14 -47l-189 -320v-277h-91zM206 772c-9.33301 0 -15.667 3.66602 -19 10.999l-8 17
c-2 4 -3 7.66699 -3 11c0 6.66699 3.33301 12.334 10 17.001l169 113c2.66699 1.33301 5.66699 2 9 2c9.33301 0 16 -3.33301 20 -10l21 -38c2 -3.33301 3 -7 3 -11c0 -6.66699 -3.66699 -12 -11 -16l-180 -93c-4 -2 -7.66699 -3 -11 -3z" />
    <glyph glyph-name="Thorn" unicode="&#xde;" horiz-adv-x="649" 
d="M104 0v712.002h91v-119h228c50.667 0 93.5 -17.333 128.5 -52s52.5 -77.334 52.5 -128.001v-52c0 -50.667 -17.5 -93.334 -52.5 -128.001s-77.833 -52 -128.5 -52h-228v-181h-91zM195 271.002h234c24 0 44 8 60 24s24 36 24 60v64c0 24 -8 44.167 -24 60.5
s-36 24.5 -60 24.5h-234v-233z" />
    <glyph glyph-name="germandbls" unicode="&#xdf;" horiz-adv-x="653" 
d="M94 -115l-0.000976562 646.001c0 50.667 17.667 93.5 53 128.5s78 52.5 128 52.5h84c50.667 0 93.667 -17.5 129 -52.5s53 -77.833 53 -128.5v-31c0 -48.667 -16.333 -89 -49 -121c24.667 -12.667 44.334 -32.834 59.001 -60.501s22 -57.167 22 -88.5v-49
c0 -50.667 -17.667 -93.5 -53 -128.5s-78.333 -52.5 -129 -52.5h-93v90h99c24 0 44 8.16699 60 24.5s24 36.5 24 60.5v60c0 24 -7.5 44 -22.5 60s-35.5 24 -61.5 24h-99v90h74c24.667 0 43.667 8.5 57 25.5s20 36.5 20 58.5v44c0 24 -8 44.167 -24 60.5s-36 24.5 -60 24.5
h-97c-24 0 -44 -8.16699 -60 -24.5s-24 -36.5 -24 -60.5v-652h-90z" />
    <glyph glyph-name="agrave" unicode="&#xe0;" horiz-adv-x="577" 
d="M492 0l-83 -0.000976562v52c-7.33301 -18 -20.833 -31.667 -40.5 -41s-40.167 -14 -61.5 -14h-93c-46 0 -82.167 14.333 -108.5 43s-39.5 63.334 -39.5 104.001c0 35.333 9.5 66.333 28.5 93s46.833 43.667 83.5 51l191 37c26 4.66699 39 22.667 39 54v3
c0 13.333 -5.83301 24.666 -17.5 33.999s-27.167 14 -46.5 14h-108c-35.333 0 -57.666 -17.667 -66.999 -53l-6 -22l-82 19l7 25c8 28.667 24.833 55.334 50.5 80.001s59.167 37 100.5 37h112c39.333 0 72.666 -12.667 99.999 -38s41 -58 41 -98v-380zM406 160.999
l0.000976562 93c-4.66699 -4 -14.667 -7.33301 -30 -10l-172 -34c-16 -3.33301 -29 -10.5 -39 -21.5s-15 -24.5 -15 -40.5c0 -18 6 -33.5 18 -46.5s27 -19.5 45 -19.5h115c21.333 0 39.666 8 54.999 24s23 34.333 23 55zM373.001 571.999c-3.33301 0 -7 1.00195 -11 3.00195
l-180 93c-7.33301 4 -11 9.33301 -11 16c0 2 1.33301 5.66699 4 11l20 38c4 6.66699 10.667 10 20 10c3.33301 0 6.33301 -0.666992 9 -2l169 -113c6.66699 -4.66699 10 -10.334 10 -17.001c0 -4.66699 -0.666992 -8.33398 -2 -11.001l-9 -17
c-4 -7.33301 -10.333 -11 -19 -11z" />
    <glyph glyph-name="aacute" unicode="&#xe1;" horiz-adv-x="577" 
d="M492 0l-83 -0.000976562v52c-7.33301 -18 -20.833 -31.667 -40.5 -41s-40.167 -14 -61.5 -14h-93c-46 0 -82.167 14.333 -108.5 43s-39.5 63.334 -39.5 104.001c0 35.333 9.5 66.333 28.5 93s46.833 43.667 83.5 51l191 37c26 4.66699 39 22.667 39 54v3
c0 13.333 -5.83301 24.666 -17.5 33.999s-27.167 14 -46.5 14h-108c-35.333 0 -57.666 -17.667 -66.999 -53l-6 -22l-82 19l7 25c8 28.667 24.833 55.334 50.5 80.001s59.167 37 100.5 37h112c39.333 0 72.666 -12.667 99.999 -38s41 -58 41 -98v-380zM406 160.999
l0.000976562 93c-4.66699 -4 -14.667 -7.33301 -30 -10l-172 -34c-16 -3.33301 -29 -10.5 -39 -21.5s-15 -24.5 -15 -40.5c0 -18 6 -33.5 18 -46.5s27 -19.5 45 -19.5h115c21.333 0 39.666 8 54.999 24s23 34.333 23 55zM200.001 571.999
c-9.33301 0 -15.667 3.66602 -19 10.999l-8 17c-2 4 -3 7.66699 -3 11c0 6.66699 3.33301 12.334 10 17.001l169 113c2.66699 1.33301 5.66699 2 9 2c9.33301 0 16 -3.33301 20 -10l21 -38c2 -3.33301 3 -7 3 -11c0 -6.66699 -3.66699 -12 -11 -16l-180 -93
c-4 -2 -7.66699 -3 -11 -3z" />
    <glyph glyph-name="acircumflex" unicode="&#xe2;" horiz-adv-x="577" 
d="M492 0l-83 -0.000976562v52c-7.33301 -18 -20.833 -31.667 -40.5 -41s-40.167 -14 -61.5 -14h-93c-46 0 -82.167 14.333 -108.5 43s-39.5 63.334 -39.5 104.001c0 35.333 9.5 66.333 28.5 93s46.833 43.667 83.5 51l191 37c26 4.66699 39 22.667 39 54v3
c0 13.333 -5.83301 24.666 -17.5 33.999s-27.167 14 -46.5 14h-108c-35.333 0 -57.666 -17.667 -66.999 -53l-6 -22l-82 19l7 25c8 28.667 24.833 55.334 50.5 80.001s59.167 37 100.5 37h112c39.333 0 72.666 -12.667 99.999 -38s41 -58 41 -98v-380zM406 160.999
l0.000976562 93c-4.66699 -4 -14.667 -7.33301 -30 -10l-172 -34c-16 -3.33301 -29 -10.5 -39 -21.5s-15 -24.5 -15 -40.5c0 -18 6 -33.5 18 -46.5s27 -19.5 45 -19.5h115c21.333 0 39.666 8 54.999 24s23 34.333 23 55zM409.001 570.999c-6 0 -11.334 2.33301 -16.001 7
l-106 95l-106 -94c-5.33301 -4.66699 -10.666 -7 -15.999 -7c-6 0 -11 2.33301 -15 7l-13 14c-4 4.66699 -6 9.66699 -6 15s2 10 6 14l98 107c3.33301 4 8 6 14 6h74c6.66699 0 11.667 -2 15 -6l99 -107c4 -4 6 -8.66699 6 -14c0 -6 -2 -11 -6 -15l-13 -14
c-5.33301 -5.33301 -10.333 -8 -15 -8z" />
    <glyph glyph-name="atilde" unicode="&#xe3;" horiz-adv-x="577" 
d="M492 0l-83 -0.000976562v52c-7.33301 -18 -20.833 -31.667 -40.5 -41s-40.167 -14 -61.5 -14h-93c-46 0 -82.167 14.333 -108.5 43s-39.5 63.334 -39.5 104.001c0 35.333 9.5 66.333 28.5 93s46.833 43.667 83.5 51l191 37c26 4.66699 39 22.667 39 54v3
c0 13.333 -5.83301 24.666 -17.5 33.999s-27.167 14 -46.5 14h-108c-35.333 0 -57.666 -17.667 -66.999 -53l-6 -22l-82 19l7 25c8 28.667 24.833 55.334 50.5 80.001s59.167 37 100.5 37h112c39.333 0 72.666 -12.667 99.999 -38s41 -58 41 -98v-380zM406 160.999
l0.000976562 93c-4.66699 -4 -14.667 -7.33301 -30 -10l-172 -34c-16 -3.33301 -29 -10.5 -39 -21.5s-15 -24.5 -15 -40.5c0 -18 6 -33.5 18 -46.5s27 -19.5 45 -19.5h115c21.333 0 39.666 8 54.999 24s23 34.333 23 55zM141.001 587.999l-39.998 16l8 22
c19.333 52.667 53.666 79 102.999 79c15.333 0 42 -6.33301 80 -19l70 -24c6 -2 11.667 -3 17 -3c15.333 0 27.333 8.66699 36 26l6 12l43 -18l-8 -18c-21.333 -48 -53.333 -72 -96 -72c-23.333 0 -58 7.66699 -104 23l-52 18c-6 2 -11.333 3 -16 3
c-16.667 0 -29.334 -8.66699 -38.001 -26z" />
    <glyph glyph-name="adieresis" unicode="&#xe4;" horiz-adv-x="577" 
d="M492 0l-83 -0.000976562v52c-7.33301 -18 -20.833 -31.667 -40.5 -41s-40.167 -14 -61.5 -14h-93c-46 0 -82.167 14.333 -108.5 43s-39.5 63.334 -39.5 104.001c0 35.333 9.5 66.333 28.5 93s46.833 43.667 83.5 51l191 37c26 4.66699 39 22.667 39 54v3
c0 13.333 -5.83301 24.666 -17.5 33.999s-27.167 14 -46.5 14h-108c-35.333 0 -57.666 -17.667 -66.999 -53l-6 -22l-82 19l7 25c8 28.667 24.833 55.334 50.5 80.001s59.167 37 100.5 37h112c39.333 0 72.666 -12.667 99.999 -38s41 -58 41 -98v-380zM406 160.999
l0.000976562 93c-4.66699 -4 -14.667 -7.33301 -30 -10l-172 -34c-16 -3.33301 -29 -10.5 -39 -21.5s-15 -24.5 -15 -40.5c0 -18 6 -33.5 18 -46.5s27 -19.5 45 -19.5h115c21.333 0 39.666 8 54.999 24s23 34.333 23 55zM358.001 597.999c-5.33301 0 -10 2 -14 6
s-6 8.66699 -6 14v50c0 4.66699 2 9 6 13s8.66699 6 14 6h53c5.33301 0 9.83301 -1.83301 13.5 -5.5s5.5 -8.16699 5.5 -13.5v-50c0 -5.33301 -2 -10 -6 -14s-8.66699 -6 -14 -6h-52zM164.001 597.999c-4.66699 0 -9 2 -13 6s-6 8.66699 -6 14v50
c0 5.33301 1.83301 9.83301 5.5 13.5s8.16699 5.5 13.5 5.5h53c5.33301 0 9.83301 -1.83301 13.5 -5.5s5.5 -8.16699 5.5 -13.5v-50c0 -5.33301 -2 -10 -6 -14s-8.66699 -6 -14 -6h-52z" />
    <glyph glyph-name="aring" unicode="&#xe5;" horiz-adv-x="577" 
d="M492 0l-83 -0.000976562v52c-7.33301 -18 -20.833 -31.667 -40.5 -41s-40.167 -14 -61.5 -14h-93c-46 0 -82.167 14.333 -108.5 43s-39.5 63.334 -39.5 104.001c0 35.333 9.5 66.333 28.5 93s46.833 43.667 83.5 51l191 37c26 4.66699 39 22.667 39 54v3
c0 13.333 -5.83301 24.666 -17.5 33.999s-27.167 14 -46.5 14h-108c-35.333 0 -57.666 -17.667 -66.999 -53l-6 -22l-82 19l7 25c8 28.667 24.833 55.334 50.5 80.001s59.167 37 100.5 37h112c39.333 0 72.666 -12.667 99.999 -38s41 -58 41 -98v-380zM406 160.999
l0.000976562 93c-4.66699 -4 -14.667 -7.33301 -30 -10l-172 -34c-16 -3.33301 -29 -10.5 -39 -21.5s-15 -24.5 -15 -40.5c0 -18 6 -33.5 18 -46.5s27 -19.5 45 -19.5h115c21.333 0 39.666 8 54.999 24s23 34.333 23 55zM267.001 571.999c-18 0 -33.167 6.5 -45.5 19.5
s-18.5 28.833 -18.5 47.5v42c0 18 6.16699 33.667 18.5 47s27.5 20 45.5 20h40c18 0 33.667 -6.66699 47 -20s20 -29 20 -47v-42c0 -18.667 -6.66699 -34.5 -20 -47.5s-29 -19.5 -47 -19.5h-40zM272.001 621.999h30c5.33301 0 10.333 2 15 6s7 8.66699 7 14v35
c0 4.66699 -2.33301 9 -7 13s-9.66699 6 -15 6h-30c-4.66699 0 -9 -2 -13 -6s-6 -8.33301 -6 -13v-35c0 -5.33301 2 -10 6 -14s8.33301 -6 13 -6z" />
    <glyph glyph-name="ae" unicode="&#xe6;" horiz-adv-x="926" 
d="M217 -3c-46 0 -82.333 14.332 -109 42.999s-40 63.334 -40 104.001c0 35.333 9.66699 66.333 29 93s47.333 43.667 84 51l191 37c26 4.66699 39 22.667 39 54v3c0 13.333 -5.83301 24.666 -17.5 33.999s-27.167 14 -46.5 14h-108c-35.333 0 -57.666 -17.667 -66.999 -53
l-6 -22l-82 19l7 25c8 28.667 24.833 55.334 50.5 80.001s59.167 37 100.5 37h110c48.667 0 85 -19 109 -57c29.333 38 70 57 122 57h114c46 0 83.667 -16 113 -48s44 -72 44 -120v-103c0 -6 -2.16699 -11.167 -6.5 -15.5s-9.83301 -6.5 -16.5 -6.5h-331v-63
c0 -22 7.33301 -40.5 22 -55.5s33 -22.5 55 -22.5h116c38 0 63 19 75 57l8 24l81 -22l-7 -22c-11.333 -36 -31.5 -65.333 -60.5 -88s-62.833 -34 -101.5 -34h-102c-52 0 -93.333 19.333 -124 58c-7.33301 -18 -21.333 -32.167 -42 -42.5s-42.334 -15.5 -65.001 -15.5h-138z
M216 81.999h124c46 0 69 25.333 69 76v96c-4 -4 -14 -7.33301 -30 -10l-172 -34c-16 -3.33301 -29 -10.5 -39 -21.5s-15 -24.5 -15 -40.5c0 -18 6 -33.5 18 -46.5s27 -19.5 45 -19.5zM500 306.999h269v47c0 21.333 -5.66699 39.333 -17 54s-28.333 22 -51 22h-127
c-22.667 0 -40.667 -7.33301 -54 -22s-20 -32.667 -20 -54v-47z" />
    <glyph glyph-name="ccedilla" unicode="&#xe7;" horiz-adv-x="553" 
d="M220 -186c-3.33301 0 -6.99902 1 -10.999 3l-24 11c-8 4 -12 9.33301 -12 16c0 3.33301 1 7 3 11l57 142h-3c-45.333 0 -83.5 16.333 -114.5 49s-46.5 72.334 -46.5 119.001v183c0 47.333 16.167 87.166 48.5 119.499s71.833 48.5 118.5 48.5h99
c42.667 0 77.167 -12.5 103.5 -37.5s44.5 -56.833 54.5 -95.5l5 -19l-83 -21l-6 26c-8.66699 39.333 -31.667 59 -69 59h-108c-22 0 -40.167 -7.33301 -54.5 -22s-21.5 -33 -21.5 -55v-191c0 -22 7.16699 -40.333 21.5 -55s32.5 -22 54.5 -22h107c36 0 59 20 69 60l7 27
l82 -21l-4 -19c-8 -36.667 -26.333 -68 -55 -94s-62.334 -39 -101.001 -39h-9l-91 -172c-3.33301 -7.33301 -9 -11 -17 -11z" />
    <glyph glyph-name="egrave" unicode="&#xe8;" horiz-adv-x="581" 
d="M237 -3c-47.333 0 -87.1689 16.1689 -119.502 48.502s-48.5 72.166 -48.5 119.499v183c0 47.333 15.833 87.166 47.5 119.499s70.834 48.5 117.501 48.5h118c46 0 83.833 -16 113.5 -48s44.5 -72 44.5 -120v-105c0 -6 -2.33301 -11.167 -7 -15.5
s-10.334 -6.5 -17.001 -6.5h-330v-61c0 -22 7.33301 -40.5 22 -55.5s32.667 -22.5 54 -22.5h115c38.667 0 64 19 76 57l8 24l81 -22l-6 -22c-9.33301 -36 -29.166 -65.333 -59.499 -88s-65.166 -34 -104.499 -34h-105zM155.997 306.002h267v47
c0 21.333 -5.5 39.5 -16.5 54.5s-27.833 22.5 -50.5 22.5h-127c-22 0 -39.667 -7.5 -53 -22.5s-20 -33.167 -20 -54.5v-47zM378.997 572.002c-3.33301 0 -7 1.00195 -11 3.00195l-180 93c-7.33301 4 -11 9.33301 -11 16c0 2 1.33301 5.66699 4 11l20 38
c4 6.66699 10.667 10 20 10c3.33301 0 6.33301 -0.666992 9 -2l169 -113c6.66699 -4.66699 10 -10.334 10 -17.001c0 -4.66699 -0.666992 -8.33398 -2 -11.001l-9 -17c-4 -7.33301 -10.333 -11 -19 -11z" />
    <glyph glyph-name="eacute" unicode="&#xe9;" horiz-adv-x="581" 
d="M237 -3c-47.333 0 -87.1689 16.1689 -119.502 48.502s-48.5 72.166 -48.5 119.499v183c0 47.333 15.833 87.166 47.5 119.499s70.834 48.5 117.501 48.5h118c46 0 83.833 -16 113.5 -48s44.5 -72 44.5 -120v-105c0 -6 -2.33301 -11.167 -7 -15.5
s-10.334 -6.5 -17.001 -6.5h-330v-61c0 -22 7.33301 -40.5 22 -55.5s32.667 -22.5 54 -22.5h115c38.667 0 64 19 76 57l8 24l81 -22l-6 -22c-9.33301 -36 -29.166 -65.333 -59.499 -88s-65.166 -34 -104.499 -34h-105zM155.997 306.002h267v47
c0 21.333 -5.5 39.5 -16.5 54.5s-27.833 22.5 -50.5 22.5h-127c-22 0 -39.667 -7.5 -53 -22.5s-20 -33.167 -20 -54.5v-47zM205.997 572.002c-9.33301 0 -15.667 3.66602 -19 10.999l-8 17c-2 4 -3 7.66699 -3 11c0 6.66699 3.33301 12.334 10 17.001l169 113
c2.66699 1.33301 5.66699 2 9 2c9.33301 0 16 -3.33301 20 -10l21 -38c2 -3.33301 3 -7 3 -11c0 -6.66699 -3.66699 -12 -11 -16l-180 -93c-4 -2 -7.66699 -3 -11 -3z" />
    <glyph glyph-name="ecircumflex" unicode="&#xea;" horiz-adv-x="581" 
d="M237 -3c-47.333 0 -87.1689 16.1689 -119.502 48.502s-48.5 72.166 -48.5 119.499v183c0 47.333 15.833 87.166 47.5 119.499s70.834 48.5 117.501 48.5h118c46 0 83.833 -16 113.5 -48s44.5 -72 44.5 -120v-105c0 -6 -2.33301 -11.167 -7 -15.5
s-10.334 -6.5 -17.001 -6.5h-330v-61c0 -22 7.33301 -40.5 22 -55.5s32.667 -22.5 54 -22.5h115c38.667 0 64 19 76 57l8 24l81 -22l-6 -22c-9.33301 -36 -29.166 -65.333 -59.499 -88s-65.166 -34 -104.499 -34h-105zM155.997 306.002h267v47
c0 21.333 -5.5 39.5 -16.5 54.5s-27.833 22.5 -50.5 22.5h-127c-22 0 -39.667 -7.5 -53 -22.5s-20 -33.167 -20 -54.5v-47zM414.997 571.002c-6 0 -11.334 2.33301 -16.001 7l-106 95l-106 -94c-5.33301 -4.66699 -10.666 -7 -15.999 -7c-6 0 -11 2.33301 -15 7l-13 14
c-4 4.66699 -6 9.66699 -6 15s2 10 6 14l98 107c3.33301 4 8 6 14 6h74c6.66699 0 11.667 -2 15 -6l99 -107c4 -4 6 -8.66699 6 -14c0 -6 -2 -11 -6 -15l-13 -14c-5.33301 -5.33301 -10.333 -8 -15 -8z" />
    <glyph glyph-name="edieresis" unicode="&#xeb;" horiz-adv-x="581" 
d="M237 -3c-47.333 0 -87.1689 16.1689 -119.502 48.502s-48.5 72.166 -48.5 119.499v183c0 47.333 15.833 87.166 47.5 119.499s70.834 48.5 117.501 48.5h118c46 0 83.833 -16 113.5 -48s44.5 -72 44.5 -120v-105c0 -6 -2.33301 -11.167 -7 -15.5
s-10.334 -6.5 -17.001 -6.5h-330v-61c0 -22 7.33301 -40.5 22 -55.5s32.667 -22.5 54 -22.5h115c38.667 0 64 19 76 57l8 24l81 -22l-6 -22c-9.33301 -36 -29.166 -65.333 -59.499 -88s-65.166 -34 -104.499 -34h-105zM155.997 306.002h267v47
c0 21.333 -5.5 39.5 -16.5 54.5s-27.833 22.5 -50.5 22.5h-127c-22 0 -39.667 -7.5 -53 -22.5s-20 -33.167 -20 -54.5v-47zM363.997 598.002c-5.33301 0 -10 2 -14 6s-6 8.66699 -6 14v50c0 4.66699 2 9 6 13s8.66699 6 14 6h53c5.33301 0 9.83301 -1.83301 13.5 -5.5
s5.5 -8.16699 5.5 -13.5v-50c0 -5.33301 -2 -10 -6 -14s-8.66699 -6 -14 -6h-52zM169.997 598.002c-4.66699 0 -9 2 -13 6s-6 8.66699 -6 14v50c0 5.33301 1.83301 9.83301 5.5 13.5s8.16699 5.5 13.5 5.5h53c5.33301 0 9.83301 -1.83301 13.5 -5.5s5.5 -8.16699 5.5 -13.5
v-50c0 -5.33301 -2 -10 -6 -14s-8.66699 -6 -14 -6h-52z" />
    <glyph glyph-name="igrave" unicode="&#xec;" horiz-adv-x="475" 
d="M79 0v85h137v342h-111v86h200v-428h117v-85h-343zM323 572c-3.33301 0 -7 1.00195 -11 3.00195l-180 93c-7.33301 4 -11 9.33301 -11 16c0 2 1.33301 5.66699 4 11l20 38c4 6.66699 10.667 10 20 10c3.33301 0 6.33301 -0.666992 9 -2l169 -113
c6.66699 -4.66699 10 -10.334 10 -17.001c0 -4.66699 -0.666992 -8.33398 -2 -11.001l-9 -17c-4 -7.33301 -10.333 -11 -19 -11z" />
    <glyph glyph-name="iacute" unicode="&#xed;" horiz-adv-x="475" 
d="M79 0v85h137v342h-111v86h200v-428h117v-85h-343zM150 572c-9.33301 0 -15.667 3.66602 -19 10.999l-8 17c-2 4 -3 7.66699 -3 11c0 6.66699 3.33301 12.334 10 17.001l169 113c2.66699 1.33301 5.66699 2 9 2c9.33301 0 16 -3.33301 20 -10l21 -38
c2 -3.33301 3 -7 3 -11c0 -6.66699 -3.66699 -12 -11 -16l-180 -93c-4 -2 -7.66699 -3 -11 -3z" />
    <glyph glyph-name="icircumflex" unicode="&#xee;" horiz-adv-x="475" 
d="M79 0v85h137v342h-111v86h200v-428h117v-85h-343zM359 571c-6 0 -11.335 2.33301 -16.002 7l-106 95l-106 -94c-5.33301 -4.66699 -10.666 -7 -15.999 -7c-6 0 -11 2.33301 -15 7l-13 14c-4 4.66699 -6 9.66699 -6 15s2 10 6 14l98 107c2.66699 4 7.33398 6 14.001 6h74
c6.66699 0 11.667 -2 15 -6l99 -107c4 -4 6 -8.66699 6 -14c0 -6 -2 -11 -6 -15l-13 -14c-5.33301 -5.33301 -10.333 -8 -15 -8z" />
    <glyph glyph-name="idieresis" unicode="&#xef;" horiz-adv-x="475" 
d="M79 0v85h137v342h-111v86h200v-428h117v-85h-343zM308 598c-5.33301 0 -10 2 -14 6s-6 8.66699 -6 14v50c0 4.66699 2 9 6 13s8.66699 6 14 6h53c5.33301 0 9.83301 -1.83301 13.5 -5.5s5.5 -8.16699 5.5 -13.5v-50c0 -5.33301 -2 -10 -6 -14s-8.66699 -6 -14 -6h-52z
M114 598c-4.66699 0 -9 2 -13 6s-6 8.66699 -6 14v50c0 5.33301 1.83301 9.83301 5.5 13.5s8.16699 5.5 13.5 5.5h53c5.33301 0 9.83301 -1.83301 13.5 -5.5s5.5 -8.16699 5.5 -13.5v-50c0 -5.33301 -2 -10 -6 -14s-8.66699 -6 -14 -6h-52z" />
    <glyph glyph-name="eth" unicode="&#xf0;" horiz-adv-x="595" 
d="M234 -3c-46.667 0 -85.833 15.666 -117.5 46.999s-47.5 70.333 -47.5 117v185c0 44.667 15.5 82.5 46.5 113.5s68.833 46.5 113.5 46.5h86c50.667 0 85 -16.667 103 -50v88c0 16.667 -1.33301 29.334 -4 38.001l-63 -35l-35 60l67 38c-8 10 -25.667 25.333 -53 46l56 69
c30.667 -20.667 55 -43.667 73 -69l66 38l36 -61l-71 -40c11.333 -28 17 -61.667 17 -101v-366c0 -46.667 -16 -85.667 -48 -117s-71.333 -47 -118 -47h-107zM242.001 81.999h102c22 0 40 7.16699 54 21.5s21 32.833 21 55.5v163c0 33.333 -7.33301 58 -22 74
s-40.667 24 -78 24h-74c-26.667 0 -47.834 -9 -63.501 -27s-23.5 -43.333 -23.5 -76v-151c0 -26 7.33301 -46.5 22 -61.5s35.334 -22.5 62.001 -22.5z" />
    <glyph glyph-name="ntilde" unicode="&#xf1;" horiz-adv-x="598" 
d="M89 0v513h88v-47c21.333 33.333 56 50 104 50h78c44.667 0 82.5 -15.333 113.5 -46s46.5 -68.667 46.5 -114v-356h-89v325c0 70 -31.667 105 -95 105h-63c-61.333 0 -92 -32.667 -92 -98v-332h-91zM153 588l-39.998 16l8 22c19.333 52.667 53.666 79 102.999 79
c15.333 0 42 -6.33301 80 -19l70 -24c6 -2 11.667 -3 17 -3c15.333 0 27.333 8.66699 36 26l6 12l43 -18l-8 -18c-21.333 -48 -53.333 -72 -96 -72c-23.333 0 -58 7.66699 -104 23l-52 18c-6 2 -11.333 3 -16 3c-16.667 0 -29.334 -8.66699 -38.001 -26z" />
    <glyph glyph-name="ograve" unicode="&#xf2;" horiz-adv-x="577" 
d="M233 -3c-46.667 0 -85.667 15.667 -117 47s-47 70.333 -47 117v192c0 46.667 15.667 85.5 47 116.5s70.333 46.5 117 46.5h108c47.333 0 86.833 -15.5 118.5 -46.5s47.5 -69.833 47.5 -116.5v-192c0 -46.667 -15.833 -85.667 -47.5 -117s-71.167 -47 -118.5 -47h-108z
M231 82h114c22 0 40 7.16699 54 21.5s21 32.833 21 55.5v195c0 22.667 -7 41 -21 55s-32 21 -54 21h-114c-20 0 -37.5 -6.66699 -52.5 -20s-22.5 -32 -22.5 -56v-195c0 -22.667 7 -41.167 21 -55.5s32 -21.5 54 -21.5zM373 572c-3.33301 0 -7 1.00195 -11 3.00195l-180 93
c-7.33301 4 -11 9.33301 -11 16c0 2 1.33301 5.66699 4 11l20 38c4 6.66699 10.667 10 20 10c3.33301 0 6.33301 -0.666992 9 -2l169 -113c6.66699 -4.66699 10 -10.334 10 -17.001c0 -4.66699 -0.666992 -8.33398 -2 -11.001l-9 -17c-4 -7.33301 -10.333 -11 -19 -11z" />
    <glyph glyph-name="oacute" unicode="&#xf3;" horiz-adv-x="577" 
d="M233 -3c-46.667 0 -85.667 15.667 -117 47s-47 70.333 -47 117v192c0 46.667 15.667 85.5 47 116.5s70.333 46.5 117 46.5h108c47.333 0 86.833 -15.5 118.5 -46.5s47.5 -69.833 47.5 -116.5v-192c0 -46.667 -15.833 -85.667 -47.5 -117s-71.167 -47 -118.5 -47h-108z
M231 82h114c22 0 40 7.16699 54 21.5s21 32.833 21 55.5v195c0 22.667 -7 41 -21 55s-32 21 -54 21h-114c-20 0 -37.5 -6.66699 -52.5 -20s-22.5 -32 -22.5 -56v-195c0 -22.667 7 -41.167 21 -55.5s32 -21.5 54 -21.5zM200 572c-9.33301 0 -15.667 3.66602 -19 10.999l-8 17
c-2 4 -3 7.66699 -3 11c0 6.66699 3.33301 12.334 10 17.001l169 113c2.66699 1.33301 5.66699 2 9 2c9.33301 0 16 -3.33301 20 -10l21 -38c2 -3.33301 3 -7 3 -11c0 -6.66699 -3.66699 -12 -11 -16l-180 -93c-4 -2 -7.66699 -3 -11 -3z" />
    <glyph glyph-name="ocircumflex" unicode="&#xf4;" horiz-adv-x="577" 
d="M233 -3c-46.667 0 -85.667 15.667 -117 47s-47 70.333 -47 117v192c0 46.667 15.667 85.5 47 116.5s70.333 46.5 117 46.5h108c47.333 0 86.833 -15.5 118.5 -46.5s47.5 -69.833 47.5 -116.5v-192c0 -46.667 -15.833 -85.667 -47.5 -117s-71.167 -47 -118.5 -47h-108z
M231 82h114c22 0 40 7.16699 54 21.5s21 32.833 21 55.5v195c0 22.667 -7 41 -21 55s-32 21 -54 21h-114c-20 0 -37.5 -6.66699 -52.5 -20s-22.5 -32 -22.5 -56v-195c0 -22.667 7 -41.167 21 -55.5s32 -21.5 54 -21.5zM409 571c-6 0 -11.334 2.33301 -16.001 7l-106 95
l-106 -94c-5.33301 -4.66699 -10.666 -7 -15.999 -7c-6 0 -11 2.33301 -15 7l-13 14c-4 4.66699 -6 9.66699 -6 15s2 10 6 14l98 107c3.33301 4 8 6 14 6h74c6.66699 0 11.667 -2 15 -6l99 -107c4 -4 6 -8.66699 6 -14c0 -6 -2 -11 -6 -15l-13 -14
c-5.33301 -5.33301 -10.333 -8 -15 -8z" />
    <glyph glyph-name="otilde" unicode="&#xf5;" horiz-adv-x="577" 
d="M233 -3c-46.667 0 -85.667 15.667 -117 47s-47 70.333 -47 117v192c0 46.667 15.667 85.5 47 116.5s70.333 46.5 117 46.5h108c47.333 0 86.833 -15.5 118.5 -46.5s47.5 -69.833 47.5 -116.5v-192c0 -46.667 -15.833 -85.667 -47.5 -117s-71.167 -47 -118.5 -47h-108z
M231 82h114c22 0 40 7.16699 54 21.5s21 32.833 21 55.5v195c0 22.667 -7 41 -21 55s-32 21 -54 21h-114c-20 0 -37.5 -6.66699 -52.5 -20s-22.5 -32 -22.5 -56v-195c0 -22.667 7 -41.167 21 -55.5s32 -21.5 54 -21.5zM141 588l-39.998 16l8 22
c19.333 52.667 53.666 79 102.999 79c15.333 0 42 -6.33301 80 -19l70 -24c6 -2 11.667 -3 17 -3c15.333 0 27.333 8.66699 36 26l6 12l43 -18l-8 -18c-21.333 -48 -53.333 -72 -96 -72c-23.333 0 -58 7.66699 -104 23l-52 18c-6 2 -11.333 3 -16 3
c-16.667 0 -29.334 -8.66699 -38.001 -26z" />
    <glyph glyph-name="odieresis" unicode="&#xf6;" horiz-adv-x="577" 
d="M233 -3c-46.667 0 -85.667 15.667 -117 47s-47 70.333 -47 117v192c0 46.667 15.667 85.5 47 116.5s70.333 46.5 117 46.5h108c47.333 0 86.833 -15.5 118.5 -46.5s47.5 -69.833 47.5 -116.5v-192c0 -46.667 -15.833 -85.667 -47.5 -117s-71.167 -47 -118.5 -47h-108z
M231 82h114c22 0 40 7.16699 54 21.5s21 32.833 21 55.5v195c0 22.667 -7 41 -21 55s-32 21 -54 21h-114c-20 0 -37.5 -6.66699 -52.5 -20s-22.5 -32 -22.5 -56v-195c0 -22.667 7 -41.167 21 -55.5s32 -21.5 54 -21.5zM358 598c-5.33301 0 -10 2 -14 6s-6 8.66699 -6 14v50
c0 4.66699 2 9 6 13s8.66699 6 14 6h53c5.33301 0 9.83301 -1.83301 13.5 -5.5s5.5 -8.16699 5.5 -13.5v-50c0 -5.33301 -2 -10 -6 -14s-8.66699 -6 -14 -6h-52zM164 598c-4.66699 0 -9 2 -13 6s-6 8.66699 -6 14v50c0 5.33301 1.83301 9.83301 5.5 13.5
s8.16699 5.5 13.5 5.5h53c5.33301 0 9.83301 -1.83301 13.5 -5.5s5.5 -8.16699 5.5 -13.5v-50c0 -5.33301 -2 -10 -6 -14s-8.66699 -6 -14 -6h-52z" />
    <glyph glyph-name="divide" unicode="&#xf7;" horiz-adv-x="571" 
d="M62 312v85h446v-85h-446zM253 489c-6.66699 0 -12.501 2.5 -17.501 7.5s-7.5 10.833 -7.5 17.5v65c0 6.66699 2.5 12.5 7.5 17.5s10.833 7.5 17.5 7.5h66c6.66699 0 12.667 -2.5 18 -7.5s8 -10.833 8 -17.5v-65c0 -6.66699 -2.66699 -12.5 -8 -17.5
s-11.666 -7.5 -18.999 -7.5h-65zM252.999 103c-6.66699 0 -12.501 2.5 -17.501 7.5s-7.5 10.833 -7.5 17.5v65c0 6.66699 2.5 12.5 7.5 17.5s10.833 7.5 17.5 7.5h66c6.66699 0 12.667 -2.5 18 -7.5s8 -10.833 8 -17.5v-65c0 -6.66699 -2.66699 -12.5 -8 -17.5
s-11.666 -7.5 -18.999 -7.5h-65z" />
    <glyph glyph-name="oslash" unicode="&#xf8;" horiz-adv-x="577" 
d="M117 -52l-62.001 45l48 68c-21.333 28.667 -32 61.667 -32 99v194c0 46 15.833 84.5 47.5 115.5s70.5 46.5 116.5 46.5h110c23.333 0 46 -4.66699 68 -14l48 68l60 -44l-48 -69c24.667 -30 37 -64.333 37 -103v-194c0 -46 -16 -84.667 -48 -116s-71 -47 -117 -47h-110
c-27.333 0 -51.666 5.33301 -72.999 16zM236.999 80l112.001 -0.000976562c22 0 40.167 7.33301 54.5 22s21.5 33.334 21.5 56.001v190c0 12 -2.33301 22.333 -7 31l-206 -295c7.33301 -2.66699 15.666 -4 24.999 -4zM160 140.999l202 288.999c-5.33301 2 -11.333 3 -18 3
h-111c-21.333 0 -39.5 -6.66699 -54.5 -20s-22.5 -32.333 -22.5 -57v-190c0 -9.33301 1.33301 -17.666 4 -24.999z" />
    <glyph glyph-name="ugrave" unicode="&#xf9;" horiz-adv-x="598" 
d="M239 -3c-44.667 0 -82.5 15.5 -113.5 46.5s-46.5 68.833 -46.5 113.5v356h89v-327c0 -68.667 31.667 -103 95 -103h63c62 0 93 32 93 96v334h90v-513h-90v47c-21.333 -33.333 -55.333 -50 -102 -50h-78zM380 572c-3.33301 0 -7.00098 1.00195 -11.001 3.00195l-180 93
c-7.33301 4 -11 9.33301 -11 16c0 2 1.33301 5.66699 4 11l20 38c4 6.66699 10.667 10 20 10c3.33301 0 6.33301 -0.666992 9 -2l169 -113c6.66699 -4.66699 10 -10.334 10 -17.001c0 -4.66699 -0.666992 -8.33398 -2 -11.001l-9 -17
c-3.33301 -7.33301 -9.66602 -11 -18.999 -11z" />
    <glyph glyph-name="uacute" unicode="&#xfa;" horiz-adv-x="598" 
d="M239 -3c-44.667 0 -82.5 15.5 -113.5 46.5s-46.5 68.833 -46.5 113.5v356h89v-327c0 -68.667 31.667 -103 95 -103h63c62 0 93 32 93 96v334h90v-513h-90v47c-21.333 -33.333 -55.333 -50 -102 -50h-78zM207 572c-9.33301 0 -15.667 3.66602 -19 10.999l-8 17
c-2 4 -3 7.66699 -3 11c0 6.66699 3.33301 12.334 10 17.001l169 113c2.66699 1.33301 5.66699 2 9 2c9.33301 0 16 -3.33301 20 -10l21 -38c2 -3.33301 3 -7 3 -11c0 -6.66699 -3.66699 -12 -11 -16l-180 -93c-4 -2 -7.66699 -3 -11 -3z" />
    <glyph glyph-name="ucircumflex" unicode="&#xfb;" horiz-adv-x="598" 
d="M239 -3c-44.667 0 -82.5 15.5 -113.5 46.5s-46.5 68.833 -46.5 113.5v356h89v-327c0 -68.667 31.667 -103 95 -103h63c62 0 93 32 93 96v334h90v-513h-90v47c-21.333 -33.333 -55.333 -50 -102 -50h-78zM416 571c-6 0 -11.335 2.33301 -16.002 7l-106 95l-106 -94
c-5.33301 -4.66699 -10.666 -7 -15.999 -7c-6 0 -11 2.33301 -15 7l-13 14c-4 4.66699 -6 9.66699 -6 15s2 10 6 14l98 107c2.66699 4 7.33398 6 14.001 6h74c6.66699 0 11.667 -2 15 -6l99 -107c4 -4 6 -8.66699 6 -14c0 -6 -2 -11 -6 -15l-13 -14
c-5.33301 -5.33301 -10.333 -8 -15 -8z" />
    <glyph glyph-name="udieresis" unicode="&#xfc;" horiz-adv-x="598" 
d="M239 -3c-44.667 0 -82.5 15.5 -113.5 46.5s-46.5 68.833 -46.5 113.5v356h89v-327c0 -68.667 31.667 -103 95 -103h63c62 0 93 32 93 96v334h90v-513h-90v47c-21.333 -33.333 -55.333 -50 -102 -50h-78zM365 598c-4.66699 0 -9.16699 2 -13.5 6s-6.5 8.66699 -6.5 14v50
c0 4.66699 2 9 6 13s8.66699 6 14 6h53c5.33301 0 9.83301 -1.83301 13.5 -5.5s5.5 -8.16699 5.5 -13.5v-50c0 -5.33301 -2 -10 -6 -14s-8.66699 -6 -14 -6h-52zM171 598c-4.66699 0 -9 2 -13 6s-6 8.66699 -6 14v50c0 5.33301 2 9.83301 6 13.5s8.33301 5.5 13 5.5h53
c5.33301 0 9.83301 -1.83301 13.5 -5.5s5.5 -8.16699 5.5 -13.5v-50c0 -5.33301 -2 -10 -6 -14s-8.66699 -6 -14 -6h-52z" />
    <glyph glyph-name="yacute" unicode="&#xfd;" horiz-adv-x="540" 
d="M70 -210v85h47c15.333 0 27 3.83301 35 11.5s15.667 19.5 23 35.5l49 106l-162 342c-10.667 22 -16 40.333 -16 55v88h89v-58c0 -15.333 2 -27.333 6 -36l129 -286l129 285c4 8.66699 6 21 6 37v58h88v-88c0 -14.667 -5 -32.667 -15 -54l-215 -466
c-18 -39.333 -36 -68.333 -54 -87s-40.667 -28 -68 -28h-71zM182 572c-9.33301 0 -15.667 3.66602 -19 10.999l-8 17c-2 4 -3 7.66699 -3 11c0 6.66699 3.33301 12.334 10 17.001l169 113c2.66699 1.33301 5.66699 2 9 2c9.33301 0 16 -3.33301 20 -10l21 -38
c2 -3.33301 3 -7 3 -11c0 -6.66699 -3.66699 -12 -11 -16l-180 -93c-4 -2 -7.66699 -3 -11 -3z" />
    <glyph glyph-name="thorn" unicode="&#xfe;" horiz-adv-x="600" 
d="M89 -199l-0.000976562 911h86v-248c19.333 34.667 56 52 110 52h86c44.667 0 82.5 -15.333 113.5 -46s46.5 -68.667 46.5 -114v-199c0 -44.667 -15.5 -82.5 -46.5 -113.5s-68.833 -46.5 -113.5 -46.5h-87c-47.333 0 -81.666 15.333 -102.999 46v-242h-92zM276.999 83
l76.998 0.000976562c26.667 0 47.834 9.16699 63.501 27.5s23.5 43.5 23.5 75.5v144c0 34 -7.5 59.333 -22.5 76s-41.5 25 -79.5 25h-69c-27.333 0 -49.5 -9.33301 -66.5 -28s-25.5 -44.334 -25.5 -77.001v-145c0 -33.333 7.33301 -58 22 -74s40.334 -24 77.001 -24z" />
    <glyph glyph-name="ydieresis" unicode="&#xff;" horiz-adv-x="540" 
d="M70 -210v85h47c15.333 0 27 3.83301 35 11.5s15.667 19.5 23 35.5l49 106l-162 342c-10.667 22 -16 40.333 -16 55v88h89v-58c0 -15.333 2 -27.333 6 -36l129 -286l129 285c4 8.66699 6 21 6 37v58h88v-88c0 -14.667 -5 -32.667 -15 -54l-215 -466
c-18 -39.333 -36 -68.333 -54 -87s-40.667 -28 -68 -28h-71zM340 598c-5.33301 0 -10 2 -14 6s-6 8.66699 -6 14v50c0 4.66699 2 9 6 13s8.66699 6 14 6h53c5.33301 0 9.83301 -1.83301 13.5 -5.5s5.5 -8.16699 5.5 -13.5v-50c0 -5.33301 -2 -10 -6 -14s-8.66699 -6 -14 -6
h-52zM146 598c-4.66699 0 -9 2 -13 6s-6 8.66699 -6 14v50c0 5.33301 1.83301 9.83301 5.5 13.5s8.16699 5.5 13.5 5.5h53c5.33301 0 9.83301 -1.83301 13.5 -5.5s5.5 -8.16699 5.5 -13.5v-50c0 -5.33301 -2 -10 -6 -14s-8.66699 -6 -14 -6h-52z" />
    <glyph glyph-name="dotlessi" unicode="&#x131;" horiz-adv-x="475" 
d="M79 0v85h137v342h-111v86h200v-428h117v-85h-343z" />
    <glyph glyph-name="Lslash" unicode="&#x141;" horiz-adv-x="610" 
d="M104 0v300l-77 -31v86l77 31v326h91v-289l172 68v-87l-172 -69v-244h371v-91h-462z" />
    <glyph glyph-name="lslash" unicode="&#x142;" horiz-adv-x="466" 
d="M59 0v85h138v237l-112 -45v87l112 46v217h-112v85h201v-267l115 47v-88l-115 -47v-272h115v-85h-342z" />
    <glyph glyph-name="OE" unicode="&#x152;" horiz-adv-x="992" 
d="M265 -3c-50.667 0 -93.501 17.8311 -128.501 53.498s-52.5 78.834 -52.5 129.501v352c0 50.667 17.5 93.834 52.5 129.501s77.833 53.5 128.5 53.5h119c21.333 0 41.333 -4 60 -12s32.334 -18.333 41.001 -31v40h433v-91h-348v-212h258v-90h-258v-228h348v-91h-433v46
c-5.33301 -14 -18.5 -25.667 -39.5 -35s-41.5 -14 -61.5 -14h-119zM258.999 87.998h136c24 0 44.333 8.66699 61 26s25 38 25 62v360c0 24 -8.16699 44.667 -24.5 62s-36.5 26 -60.5 26h-137c-24 0 -44 -8.5 -60 -25.5s-24 -37.5 -24 -61.5v-362c0 -24 8 -44.5 24 -61.5
s36 -25.5 60 -25.5z" />
    <glyph glyph-name="oe" unicode="&#x153;" horiz-adv-x="931" 
d="M233 -3c-46.667 0 -85.668 15.668 -117.001 47.001s-47 70.333 -47 117v192c0 46.667 15.667 85.5 47 116.5s70.333 46.5 117 46.5h105c54 0 96 -20.333 126 -61c30 40.667 71.333 61 124 61h114c46 0 83.833 -15.833 113.5 -47.5s44.5 -71.834 44.5 -120.501v-103
c0 -6 -2.33301 -11.167 -7 -15.5s-10 -6.5 -16 -6.5h-330v-63c0 -22 7.16699 -40.5 21.5 -55.5s32.5 -22.5 54.5 -22.5h115c36 0 61 19 75 57l9 24l81 -22l-7 -22c-11.333 -36 -31.5 -65.333 -60.5 -88s-63.167 -34 -102.5 -34h-102c-53.333 0 -95.666 21 -126.999 63
c-30 -42 -72.333 -63 -127 -63h-104zM230.999 82.001h114c22 0 40 7.16699 54 21.5s21 32.833 21 55.5v195c0 22.667 -7 41 -21 55s-32 21 -54 21h-114c-20 0 -37.5 -6.66699 -52.5 -20s-22.5 -32 -22.5 -56v-195c0 -22.667 7 -41.167 21 -55.5s32 -21.5 54 -21.5z
M506.999 307.001h267v47c0 21.333 -5.5 39.333 -16.5 54s-27.833 22 -50.5 22h-127c-22 0 -39.667 -7.33301 -53 -22s-20 -32.667 -20 -54v-47z" />
    <glyph glyph-name="Scaron" unicode="&#x160;" horiz-adv-x="654" 
d="M256 0c-88.667 0 -148 50 -178 150l-6 20l85 23l6 -27c10.667 -50 39.667 -75 87 -75h148c25.333 0 45.833 7.66699 61.5 23s23.5 37.666 23.5 66.999v34c0 16 -5.16699 31.5 -15.5 46.5s-24.166 24.833 -41.499 29.5l-221 58
c-36.667 9.33301 -66.834 28.833 -90.501 58.5s-35.5 66.834 -35.5 111.501v20c0 49.333 15.5 90.5 46.5 123.5s72.833 49.5 125.5 49.5h144c94.667 0 154 -49.667 178 -149l5 -21l-84 -23l-7 28c-6 24 -15 42.333 -27 55s-31.333 19 -58 19h-150c-27.333 0 -48 -8 -62 -24
s-21 -35.667 -21 -59v-17c0 -46.667 22.667 -76 68 -88l211 -55c37.333 -9.33301 67.5 -29.833 90.5 -61.5s34.5 -65.5 34.5 -101.5v-31c0 -52 -16.833 -95.667 -50.5 -131s-76.167 -53 -127.5 -53h-139zM283 772c-6.66699 0 -11.666 2 -14.999 6l-100 106
c-4.66699 4.66699 -7 9.66699 -7 15c0 6 2 11 6 15l13 13c5.33301 5.33301 10.333 8 15 8c6 0 11.333 -2 16 -6l106 -96l106 95c4.66699 4.66699 10 7 16 7s11 -2.33301 15 -7l12 -14c4.66699 -4.66699 7 -9.66699 7 -15s-2 -10 -6 -14l-101 -107
c-2.66699 -4 -7.33398 -6 -14.001 -6h-69z" />
    <glyph glyph-name="scaron" unicode="&#x161;" horiz-adv-x="568" 
d="M233 -3c-43.333 0 -78.5 13.001 -105.5 39.001s-44.167 53.333 -51.5 82l-7 29l83 21l7 -27c10.667 -39.333 34 -59 70 -59h110c21.333 0 38.833 6 52.5 18s20.5 26.667 20.5 44v8c0 30 -14.333 48 -43 54l-173 33c-37.333 7.33301 -65.5 22.166 -84.5 44.499
s-28.5 47.833 -28.5 76.5v17c0 42 15.5 75.667 46.5 101s69.167 38 114.5 38h90c42 0 76.5 -12.5 103.5 -37.5s43.833 -51.5 50.5 -79.5l5 -21l-82 -22l-6 19c-11.333 36.667 -33.666 55 -66.999 55h-98c-46.667 0 -70 -19 -70 -57v-6c0 -24.667 15.333 -40 46 -46l178 -35
c33.333 -6.66699 59.166 -22 77.499 -46s27.5 -51 27.5 -81v-22c0 -38.667 -14.833 -71.667 -44.5 -99s-68.167 -41 -115.5 -41h-106zM255 572.001c-6.66699 0 -11.666 2 -14.999 6l-100 106c-4.66699 4.66699 -7 9.66699 -7 15c0 6 2 11 6 15l13 13
c5.33301 5.33301 10.333 8 15 8c6 0 11.333 -2 16 -6l106 -96l106 95c4.66699 4.66699 10 7 16 7s11 -2.33301 15 -7l12 -14c4.66699 -4.66699 7 -9.66699 7 -15s-2 -10 -6 -14l-101 -107c-2.66699 -4 -7.33398 -6 -14.001 -6h-69z" />
    <glyph glyph-name="Ydieresis" unicode="&#x178;" horiz-adv-x="598" 
d="M254 0v277l-190 320c-10 16 -15 31.667 -15 47v68h89v-49c0 -9.33301 2 -17.666 6 -24.999l155 -266l155 266c4 7.33301 6 15.666 6 24.999v49h88v-68c0 -16 -4.66699 -31.667 -14 -47l-189 -320v-277h-91zM363 798c-4.66699 0 -9.16699 2 -13.5 6s-6.5 8.66699 -6.5 14
v50c0 4.66699 2 9 6 13s8.66699 6 14 6h53c5.33301 0 9.83301 -1.83301 13.5 -5.5s5.5 -8.16699 5.5 -13.5v-50c0 -5.33301 -2 -10 -6 -14s-8.66699 -6 -14 -6h-52zM169 798c-4.66699 0 -9 2 -13 6s-6 8.66699 -6 14v50c0 5.33301 2 9.83301 6 13.5s8.33301 5.5 13 5.5h53
c5.33301 0 9.83301 -1.83301 13.5 -5.5s5.5 -8.16699 5.5 -13.5v-50c0 -5.33301 -2 -10 -6 -14s-8.66699 -6 -14 -6h-52z" />
    <glyph glyph-name="Zcaron" unicode="&#x17d;" horiz-adv-x="669" 
d="M84 0v85l387 536h-387v91h500v-82l-388 -539h388v-91h-500zM294 772c-6.66699 0 -11.667 2 -15 6l-100 106c-4.66699 4.66699 -7 9.66699 -7 15c0 6 2 11 6 15l13 13c5.33301 5.33301 10.333 8 15 8c6 0 11.333 -2 16 -6l106 -96l106 95c4.66699 4.66699 10 7 16 7
s11 -2.33301 15 -7l12 -14c4.66699 -4.66699 7 -9.66699 7 -15s-2 -10 -6 -14l-101 -107c-3.33301 -4 -8 -6 -14 -6h-69z" />
    <glyph glyph-name="zcaron" unicode="&#x17e;" horiz-adv-x="537" 
d="M64 0v75l281 352h-280v86h396v-75l-281 -353h292v-85h-408zM229 572c-6.66699 0 -11.666 2 -14.999 6l-100 106c-4.66699 4.66699 -7 9.66699 -7 15c0 6 2 11 6 15l13 13c5.33301 5.33301 10.333 8 15 8c6 0 11.333 -2 16 -6l106 -96l106 95c4.66699 4.66699 10 7 16 7
s11 -2.33301 15 -7l12 -14c4.66699 -4.66699 7 -9.66699 7 -15s-2 -10 -6 -14l-101 -107c-2.66699 -4 -7.33398 -6 -14.001 -6h-69z" />
    <glyph glyph-name="florin" unicode="&#x192;" 
d="M163 -201v85.001h64c18.667 0 32.834 6 42.501 18s14.5 27 14.5 45v446h-73v85h73v95c0 39.333 13.167 72.333 39.5 99s58.833 40 97.5 40h87v-85h-78c-18.667 0 -32.834 -6 -42.501 -18s-14.5 -27 -14.5 -45v-86h90v-85h-90v-456
c0 -38.667 -13.167 -71.334 -39.5 -98.001s-58.833 -40 -97.5 -40h-73z" />
    <glyph glyph-name="circumflex" unicode="&#x2c6;" horiz-adv-x="475" 
d="M359 571c-6 0 -11.335 2.33301 -16.002 7l-106 95l-106 -94c-5.33301 -4.66699 -10.666 -7 -15.999 -7c-6 0 -11 2.33301 -15 7l-13 14c-4 4.66699 -6 9.66699 -6 15s2 10 6 14l98 107c2.66699 4 7.33398 6 14.001 6h74c6.66699 0 11.667 -2 15 -6l99 -107
c4 -4 6 -8.66699 6 -14c0 -6 -2 -11 -6 -15l-13 -14c-5.33301 -5.33301 -10.333 -8 -15 -8z" />
    <glyph glyph-name="caron" unicode="&#x2c7;" horiz-adv-x="475" 
d="M203 572c-6.66699 0 -11.666 2 -14.999 6l-100 106c-4.66699 4.66699 -7 9.66699 -7 15c0 6 2 11 6 15l13 13c5.33301 5.33301 10.333 8 15 8c6 0 11.333 -2 16 -6l106 -96l106 95c4.66699 4.66699 10 7 16 7s11 -2.33301 15 -7l12 -14
c4.66699 -4.66699 7 -9.66699 7 -15s-2 -10 -6 -14l-101 -107c-2.66699 -4 -7.33398 -6 -14.001 -6h-69z" />
    <glyph glyph-name="breve" unicode="&#x2d8;" horiz-adv-x="475" 
d="M214 580c-26.667 0 -48.832 9.5 -66.499 28.5s-26.5 42.167 -26.5 69.5v57h70v-68c0 -6.66699 2.5 -12.667 7.5 -18s11.167 -8 18.5 -8h38c8 0 14.667 2.66699 20 8s8 11.333 8 18v68h71v-57c0 -27.333 -9.33301 -50.5 -28 -69.5s-41.334 -28.5 -68.001 -28.5h-44z" />
    <glyph glyph-name="dotaccent" unicode="&#x2d9;" horiz-adv-x="475" 
d="M204 625c-5.33301 0 -9.83301 2 -13.5 6s-5.5 8.66699 -5.5 14v65c0 4.66699 2 9 6 13s8.33301 6 13 6h66c5.33301 0 9.83301 -2 13.5 -6s5.5 -8.33301 5.5 -13v-65c0 -5.33301 -1.83301 -10 -5.5 -14s-8.16699 -6 -13.5 -6h-66z" />
    <glyph glyph-name="ring" unicode="&#x2da;" horiz-adv-x="475" 
d="M215 572c-18 0 -33.167 6.5 -45.5 19.5s-18.5 28.833 -18.5 47.5v42c0 18 6.16699 33.667 18.5 47s27.5 20 45.5 20h40c18 0 33.667 -6.66699 47 -20s20 -29 20 -47v-42c0 -18.667 -6.66699 -34.5 -20 -47.5s-29 -19.5 -47 -19.5h-40zM220 622h30
c5.33301 0 10.333 2 15 6s7 8.66699 7 14v35c0 4.66699 -2.33301 9 -7 13s-9.66699 6 -15 6h-30c-4.66699 0 -9 -2 -13 -6s-6 -8.33301 -6 -13v-35c0 -5.33301 2 -10 6 -14s8.33301 -6 13 -6z" />
    <glyph glyph-name="ogonek" unicode="&#x2db;" horiz-adv-x="475" 
d="M251 -166c-15.333 -13.333 -29.668 -22.001 -43.001 -26.001s-30.333 -6.33301 -51 -7h-3c-31.333 0 -55.666 7.83301 -72.999 23.5s-26 36.834 -26 63.501c0 39.333 25.667 77.333 77 114h64c-22 -28 -36.667 -48.667 -44 -62s-11 -27 -11 -41c0 -8.66699 3 -16 9 -22
s14 -9 24 -9h6c13.333 0 27.333 5 42 15z" />
    <glyph glyph-name="tilde" unicode="&#x2dc;" horiz-adv-x="475" 
d="M96 588l-39.998 16l8 22c19.333 52.667 53.666 79 102.999 79c15.333 0 42 -6.33301 80 -19l70 -24c6 -2 11.667 -3 17 -3c15.333 0 27.333 8.66699 36 26l6 12l43 -18l-8 -18c-21.333 -48 -53.333 -72 -96 -72c-23.333 0 -58 7.66699 -104 23l-52 18
c-6 2 -11.333 3 -16 3c-16.667 0 -29.334 -8.66699 -38.001 -26z" />
    <glyph glyph-name="hungarumlaut" unicode="&#x2dd;" horiz-adv-x="475" 
d="M261 572c-3.33301 0 -5.99902 0.333008 -7.99902 1l-12 6c-6.66699 4 -10 9.33301 -10 16c0 3.33301 0.333008 6 1 8l63 163c2.66699 6.66699 8 10 16 10c3.33301 0 5.66602 -0.333008 6.99902 -1l38 -18c6.66699 -2.66699 10 -8 10 -16c0 -2 -0.666992 -4.33301 -2 -7
l-87 -153c-4 -6 -9.33301 -9 -16 -9zM139.001 572c-3.33301 0 -5.99902 0.333008 -7.99902 1l-12 6c-6.66699 4 -10 9.33301 -10 16c0 3.33301 0.333008 6 1 8l63 163c2.66699 6.66699 8 10 16 10c3.33301 0 5.66602 -0.333008 6.99902 -1l38 -18
c6.66699 -2.66699 10 -8 10 -16c0 -2 -0.666992 -4.33301 -2 -7l-87 -153c-4 -6 -9.33301 -9 -16 -9z" />
    <glyph glyph-name="afii10023" unicode="&#x401;" horiz-adv-x="679" 
d="M104 0v712h500v-91h-409v-211h319v-91h-319v-228h409v-91h-500zM410 798c-5.33301 0 -10 2 -14 6s-6 8.66699 -6 14v50c0 4.66699 2 9 6 13s8.66699 6 14 6h53c5.33301 0 9.83301 -1.83301 13.5 -5.5s5.5 -8.16699 5.5 -13.5v-50c0 -5.33301 -2 -10 -6 -14
s-8.66699 -6 -14 -6h-52zM216 798c-4.66699 0 -9 2 -13 6s-6 8.66699 -6 14v50c0 5.33301 1.83301 9.83301 5.5 13.5s8.16699 5.5 13.5 5.5h53c5.33301 0 9.83301 -1.83301 13.5 -5.5s5.5 -8.16699 5.5 -13.5v-50c0 -5.33301 -2 -10 -6 -14s-8.66699 -6 -14 -6h-52z" />
    <glyph glyph-name="afii10055" unicode="&#x406;" horiz-adv-x="474" 
d="M85 0v91h106v530h-106v91h303v-91h-105v-530h105v-91h-303z" />
    <glyph glyph-name="afii10017" unicode="&#x410;" horiz-adv-x="609" 
d="M54 0v31c0 27.333 3.66699 52 11 74l194 607h91l194 -607c7.33301 -22 11 -46.667 11 -74v-31h-89v29c0 13.333 -1 24 -3 32l-26 99h-264l-27 -99c-2 -8 -3 -18.667 -3 -32v-29h-89zM201 250h207l-104 316z" />
    <glyph glyph-name="afii10018" unicode="&#x411;" horiz-adv-x="664" 
d="M429 351l-234 0.000976562v-260h234c24 0 44 8.16699 60 24.5s24 36.5 24 60.5v91c0 23.333 -8 43.166 -24 59.499s-36 24.5 -60 24.5zM195 621.001v-179h228c50.667 0 93.5 -17.5 128.5 -52.5s52.5 -77.833 52.5 -128.5v-80c0 -50.667 -17.5 -93.5 -52.5 -128.5
s-77.833 -52.5 -128.5 -52.5h-319v712h452v-91h-361z" />
    <glyph glyph-name="afii10019" unicode="&#x412;" horiz-adv-x="684" 
d="M104 0v712h319c50.667 0 93.5 -17.5 128.5 -52.5s52.5 -77.833 52.5 -128.5v-31c0 -27.333 -6.16699 -53.166 -18.5 -77.499s-28.166 -43.833 -47.499 -58.5c19.333 -12.667 35.166 -31.334 47.499 -56.001s18.5 -50.667 18.5 -78v-49
c0 -50.667 -17.5 -93.5 -52.5 -128.5s-77.833 -52.5 -128.5 -52.5h-319zM195 91h234c24 0 44 8.16699 60 24.5s24 36.5 24 60.5v58c0 24.667 -7.5 45 -22.5 61s-35.5 24 -61.5 24h-234v-228zM195 409h234c26 0 46.5 8 61.5 24s22.5 36.333 22.5 61v42
c0 24 -8 44.167 -24 60.5s-36 24.5 -60 24.5h-234v-212z" />
    <glyph glyph-name="afii10020" unicode="&#x413;" horiz-adv-x="570" 
d="M104 0v712h422v-91h-331v-621h-91z" />
    <glyph glyph-name="afii10021" unicode="&#x414;" horiz-adv-x="749" 
d="M159 254l46 458h409v-622h81v-220h-91v130h-483v-130h-91v220h79c26 39.333 42.667 94 50 164zM285 622l-35 -369c-6 -68.667 -20.667 -123 -44 -163h317v532h-238z" />
    <glyph glyph-name="afii10022" unicode="&#x415;" horiz-adv-x="679" 
d="M104 0v712h500v-91h-409v-211h319v-91h-319v-228h409v-91h-500z" />
    <glyph glyph-name="afii10024" unicode="&#x416;" horiz-adv-x="941" 
d="M425 712h91v-303h84l167 303h106l-184 -335l157 -238c24 -36.667 36 -75.334 36 -116.001v-23h-89v23c0 22 -7.33301 44.333 -22 67l-151 229h-104v-319h-91v319h-104l-151 -229c-14.667 -22.667 -22 -45 -22 -67v-23h-89v23c0 40.667 12 79.334 36 116.001l157 238
l-184 335h106l167 -303h84v303z" />
    <glyph glyph-name="afii10025" unicode="&#x417;" 
d="M406 0h-137c-52.667 0 -94.334 15.667 -125.001 47s-50.667 72.333 -60 123l85 23l7 -28c12 -49.333 40.333 -74 85 -74h150c24.667 0 45 8.16699 61 24.5s24 36.5 24 60.5v62c0 24.667 -6.16699 44.834 -18.5 60.501s-30.833 23.5 -55.5 23.5h-204v91h204
c24.667 0 43.167 7.66699 55.5 23s18.5 35.666 18.5 60.999v39c0 24 -8 44.167 -24 60.5s-36 24.5 -60 24.5h-151c-48 0 -77 -24.667 -87 -74l-6 -28l-85 23c8.66699 50.667 28.334 91.667 59.001 123s72.334 47 125.001 47h138c50.667 0 93.667 -17.5 129 -52.5
s53 -77.833 53 -128.5v-28c0 -25.333 -5.33301 -50.5 -16 -75.5s-25.334 -45.167 -44.001 -60.5c40 -33.333 60 -78.333 60 -135v-51c0 -50.667 -17.667 -93.5 -53 -128.5s-78 -52.5 -128 -52.5z" />
    <glyph glyph-name="afii10026" unicode="&#x418;" horiz-adv-x="709" 
d="M604 712v-712h-91v536l-317 -536h-92v712h91v-526l313 526h96z" />
    <glyph glyph-name="afii10027" unicode="&#x419;" horiz-adv-x="709" 
d="M604 712v-712h-91v536l-317 -536h-92v712h91v-526l313 526h96zM428 771h-149.998c-26.667 0 -48.834 9.5 -66.501 28.5s-26.5 42.167 -26.5 69.5v55h80v-56c0 -6.66699 2.5 -12.667 7.5 -18s11.167 -8 18.5 -8h124c8 0 14.667 2.66699 20 8s8 11.333 8 18v56h81v-55
c0 -27.333 -9.33301 -50.5 -28 -69.5s-41.334 -28.5 -68.001 -28.5z" />
    <glyph glyph-name="afii10028" unicode="&#x41a;" horiz-adv-x="650" 
d="M104 712l91 0.000976562v-303h114l167 303h106l-184 -335l157 -238c24 -36.667 36 -75.334 36 -116.001v-23h-89v23c0 22 -7.33301 44.333 -22 67l-151 229h-134v-319h-91v712z" />
    <glyph glyph-name="afii10029" unicode="&#x41b;" horiz-adv-x="699" 
d="M125 150l64 562h405v-712h-91v622h-234l-55 -483c-4.66699 -40.667 -19 -74 -43 -100s-54.333 -39 -91 -39h-60v90h49c31.333 0 50 20 56 60z" />
    <glyph glyph-name="afii10030" unicode="&#x41c;" horiz-adv-x="806" 
d="M104 0v712h95l204 -460l204 460h94v-712h-91v482l-177 -382h-60l-177 382v-482h-92z" />
    <glyph glyph-name="afii10031" unicode="&#x41d;" horiz-adv-x="709" 
d="M104 0v712h91v-303h318v303h91v-712h-91v319h-318v-319h-91z" />
    <glyph glyph-name="afii10032" unicode="&#x41e;" horiz-adv-x="669" 
d="M403 0h-138c-50.667 0 -93.5 17.5 -128.5 52.5s-52.5 77.833 -52.5 128.5v350c0 50.667 17.5 93.5 52.5 128.5s77.833 52.5 128.5 52.5h138c50.667 0 93.5 -17.5 128.5 -52.5s52.5 -77.833 52.5 -128.5v-350c0 -50.667 -17.5 -93.5 -52.5 -128.5
s-77.833 -52.5 -128.5 -52.5zM259 91h149c24 0 44.167 8.16699 60.5 24.5s24.5 36.5 24.5 60.5v360c0 24 -8.16699 44.167 -24.5 60.5s-36.5 24.5 -60.5 24.5h-149c-24 0 -44 -8.16699 -60 -24.5s-24 -36.5 -24 -60.5v-360c0 -24 8 -44.167 24 -60.5s36 -24.5 60 -24.5z" />
    <glyph glyph-name="afii10033" unicode="&#x41f;" horiz-adv-x="709" 
d="M104 0v712h500v-712h-91v622h-318v-622h-91z" />
    <glyph glyph-name="afii10034" unicode="&#x420;" horiz-adv-x="649" 
d="M104 0v712h319c50.667 0 93.5 -17.5 128.5 -52.5s52.5 -77.833 52.5 -128.5v-50c0 -50.667 -17.5 -93.5 -52.5 -128.5s-77.833 -52.5 -128.5 -52.5h-228v-300h-91zM195 391l234 0.000976562c24 0 44 8.16699 60 24.5s24 36.166 24 59.499v61c0 24 -8 44.167 -24 60.5
s-36 24.5 -60 24.5h-234v-230z" />
    <glyph glyph-name="afii10035" unicode="&#x421;" horiz-adv-x="647" 
d="M406 0h-138c-50.667 0 -93.5 17.5 -128.5 52.5s-52.5 77.833 -52.5 128.5v350c0 50.667 17.5 93.5 52.5 128.5s77.833 52.5 128.5 52.5h139c52.667 0 94.334 -15.667 125.001 -47s50.334 -72.333 59.001 -123l-85 -23l-7 28c-12.667 49.333 -41.334 74 -86.001 74h-151
c-24 0 -44 -8.16699 -60 -24.5s-24 -36.5 -24 -60.5v-360c0 -24 8 -44.167 24 -60.5s36 -24.5 60 -24.5h149c48 0 77.333 25 88 75l6 27l84 -23c-8 -50.667 -27.333 -91.667 -58 -123s-72.334 -47 -125.001 -47z" />
    <glyph glyph-name="afii10036" unicode="&#x422;" horiz-adv-x="588" 
d="M248 0v621h-204v91h499v-91h-204v-621h-91z" />
    <glyph glyph-name="afii10037" unicode="&#x423;" horiz-adv-x="578" 
d="M525 596l-225.001 -499.002c-15.333 -33.333 -30.666 -57.833 -45.999 -73.5s-38 -23.5 -68 -23.5h-86v90h65c14.667 0 26 4.5 34 13.5s18.667 28.167 32 57.5l8 18l-185 415c-9.33301 20.667 -14 37.334 -14 50.001v68h91v-49c0 -11.333 1.66699 -20.666 5 -27.999
l152 -354l158 353c4 9.33301 6 19 6 29v49h86v-68c0 -12.667 -4.33301 -28.667 -13 -48z" />
    <glyph glyph-name="afii10038" unicode="&#x424;" horiz-adv-x="819" 
d="M455 105v-105h-91v105h-108c-50.667 0 -93.5 17.5 -128.5 52.5s-52.5 77.833 -52.5 128.5v180c0 50.667 17.5 93.5 52.5 128.5s77.833 52.5 128.5 52.5h108v95h91v-95h108c50.667 0 93.5 -17.5 128.5 -52.5s52.5 -77.833 52.5 -128.5v-180
c0 -50.667 -17.5 -93.5 -52.5 -128.5s-77.833 -52.5 -128.5 -52.5h-108zM455 196h114c24 0 44 8.16699 60 24.5s24 36.5 24 60.5v190c0 24 -8 44.167 -24 60.5s-36 24.5 -60 24.5h-114v-360zM364 556h-114c-24 0 -44 -8.16699 -60 -24.5s-24 -36.5 -24 -60.5v-190
c0 -24 8 -44.167 24 -60.5s36 -24.5 60 -24.5h114v360z" />
    <glyph glyph-name="afii10039" unicode="&#x425;" horiz-adv-x="653" 
d="M74 0v68c0 17.333 4.66699 32.333 14 45l182 243l-181 243c-7.33301 9.33301 -11.666 16.333 -12.999 21s-2 12.667 -2 24v68h90v-49c0 -12.667 2.66699 -22.667 8 -30l153 -202l154 202c6 7.33301 9 17.333 9 30v49h89v-68c0 -11.333 -0.833008 -19.333 -2.5 -24
s-5.83398 -11.667 -12.501 -21l-181 -243l182 -243c9.33301 -12.667 14 -27.667 14 -45v-68h-89v49c0 12.667 -3 22.667 -9 30l-153 202l-154 -202c-6 -8 -9 -18 -9 -30v-49h-89z" />
    <glyph glyph-name="afii10040" unicode="&#x426;" horiz-adv-x="739" 
d="M104 0v712h91v-622h318v622h91v-622h81v-220h-91v130h-490z" />
    <glyph glyph-name="afii10041" unicode="&#x427;" horiz-adv-x="620" 
d="M136 712v-246.001c0 -23.333 8 -43.166 24 -59.499s36 -24.5 60 -24.5h204v330h91v-712h-91v291h-198c-50.667 0 -93.5 17.5 -128.5 52.5s-52.5 77.833 -52.5 128.5v240h91z" />
    <glyph glyph-name="afii10042" unicode="&#x428;" horiz-adv-x="1019" 
d="M105 0v712h91v-622h268v622h91v-622h268v622h91v-712h-809z" />
    <glyph glyph-name="afii10043" unicode="&#x429;" horiz-adv-x="1049" 
d="M105 0v712h91v-622h268v622h91v-622h268v622h91v-622h81v-220h-91v130h-799z" />
    <glyph glyph-name="afii10044" unicode="&#x42a;" horiz-adv-x="733" 
d="M299 441h208c50.667 0 93.5 -17.5 128.5 -52.5s52.5 -77.833 52.5 -128.5v-79c0 -50.667 -17.5 -93.5 -52.5 -128.5s-77.833 -52.5 -128.5 -52.5h-299v621h-184v91h275v-271zM513 350l-214 0.000976562v-259h214c24 0 44 8.16699 60 24.5s24 36.5 24 60.5v90
c0 23.333 -8 43.166 -24 59.499s-36 24.5 -60 24.5z" />
    <glyph glyph-name="afii10045" unicode="&#x42b;" horiz-adv-x="869" 
d="M195 441h208c50.667 0 93.5 -17.5 128.5 -52.5s52.5 -77.833 52.5 -128.5v-79c0 -50.667 -17.5 -93.5 -52.5 -128.5s-77.833 -52.5 -128.5 -52.5h-299v712h91v-271zM409 350l-214 0.000976562v-259h214c24 0 44 8.16699 60 24.5s24 36.5 24 60.5v90
c0 23.333 -8 43.166 -24 59.499s-36 24.5 -60 24.5zM673 0.000976562v712h91v-712h-91z" />
    <glyph glyph-name="afii10046" unicode="&#x42c;" horiz-adv-x="629" 
d="M195 441h208c50.667 0 93.5 -17.5 128.5 -52.5s52.5 -77.833 52.5 -128.5v-79c0 -50.667 -17.5 -93.5 -52.5 -128.5s-77.833 -52.5 -128.5 -52.5h-299v712h91v-271zM409 350l-214 0.000976562v-259h214c24 0 44 8.16699 60 24.5s24 36.5 24 60.5v90
c0 23.333 -8 43.166 -24 59.499s-36 24.5 -60 24.5z" />
    <glyph glyph-name="afii10047" unicode="&#x42d;" horiz-adv-x="647" 
d="M189 319l-0.000976562 91h280v126c0 24 -8 44.167 -24 60.5s-36 24.5 -60 24.5h-151c-45.333 0 -74 -24.667 -86 -74l-7 -28l-85 23c8.66699 50.667 28.334 91.667 59.001 123s72.334 47 125.001 47h139c50.667 0 93.5 -17.5 128.5 -52.5s52.5 -77.833 52.5 -128.5v-350
c0 -50.667 -17.5 -93.5 -52.5 -128.5s-77.833 -52.5 -128.5 -52.5h-138c-52.667 0 -94.334 15.667 -125.001 47s-50 72.333 -58 123l84 23l6 -27c10.667 -50 40 -75 88 -75h149c24 0 44 8.16699 60 24.5s24 36.5 24 60.5v143h-280z" />
    <glyph glyph-name="afii10048" unicode="&#x42e;" horiz-adv-x="960" 
d="M694 0h-138c-50.667 0 -93.5 17.5 -128.5 52.5s-52.5 77.833 -52.5 128.5v138h-180v-319h-91v712h91v-303h180v122c0 50.667 17.5 93.5 52.5 128.5s77.833 52.5 128.5 52.5h138c50.667 0 93.5 -17.5 128.5 -52.5s52.5 -77.833 52.5 -128.5v-350
c0 -50.667 -17.5 -93.5 -52.5 -128.5s-77.833 -52.5 -128.5 -52.5zM550 91h149c24 0 44.167 8.16699 60.5 24.5s24.5 36.5 24.5 60.5v360c0 24 -8.16699 44.167 -24.5 60.5s-36.5 24.5 -60.5 24.5h-149c-24 0 -44 -8.16699 -60 -24.5s-24 -36.5 -24 -60.5v-360
c0 -24 8 -44.167 24 -60.5s36 -24.5 60 -24.5z" />
    <glyph glyph-name="afii10049" unicode="&#x42f;" horiz-adv-x="685" 
d="M580 712v-711.999h-91v311h-167l-132 -220c-14 -23.333 -21 -45.333 -21 -66v-25h-89v25c0 37.333 12 75.666 36 114.999l106 176c-41.333 8 -75.333 28.333 -102 61s-40 70.667 -40 114v40c0 50.667 17.5 93.5 52.5 128.5s77.833 52.5 128.5 52.5h319zM255 401.001
l234 -0.000976562v220h-234c-24 0 -44 -8.16699 -60 -24.5s-24 -36.5 -24 -60.5v-51c0 -23.333 8 -43.166 24 -59.499s36 -24.5 60 -24.5z" />
    <glyph glyph-name="afii10065" unicode="&#x430;" horiz-adv-x="577" 
d="M492 0l-83 -0.00195312v52c-7.33301 -18 -20.833 -31.667 -40.5 -41s-40.167 -14 -61.5 -14h-93c-46 0 -82.167 14.333 -108.5 43s-39.5 63.334 -39.5 104.001c0 35.333 9.5 66.333 28.5 93s46.833 43.667 83.5 51l191 37c26 4.66699 39 22.334 39 53.001v4
c0 13.333 -5.83301 24.666 -17.5 33.999s-27.167 14 -46.5 14h-108c-35.333 0 -57.666 -17.667 -66.999 -53l-6 -22l-82 19l7 25c8 28.667 24.833 55.334 50.5 80.001s59.167 37 100.5 37h112c39.333 0 72.666 -12.667 99.999 -38s41 -58 41 -98v-380zM406 160.998
l0.000976562 93c-4.66699 -4 -14.667 -7.33301 -30 -10l-172 -34c-16 -3.33301 -29 -10.5 -39 -21.5s-15 -24.5 -15 -40.5c0 -18 6 -33.5 18 -46.5s27 -19.5 45 -19.5h115c21.333 0 39.666 8 54.999 24s23 34.333 23 55z" />
    <glyph glyph-name="afii10066" unicode="&#x431;" horiz-adv-x="577" 
d="M159 489l0.000976562 -54.998c7.33301 18 20.833 31.667 40.5 41s40.167 14 61.5 14h80c47.333 0 86.833 -15.5 118.5 -46.5s47.5 -69.833 47.5 -116.5v-165c0 -46.667 -15.833 -85.667 -47.5 -117s-71.167 -47 -118.5 -47h-108c-46.667 0 -85.667 15.667 -117 47
s-47 70.333 -47 117v332c0 35.333 10.167 67.333 30.5 96s50.5 46.667 90.5 54l172 33c18.667 3.33301 30.667 19.666 36 48.999l86 -21c-1.33301 -22.667 -9.83301 -45.834 -25.5 -69.501s-38.834 -38.167 -69.501 -43.5l-178 -32c-34.667 -6 -52 -29.333 -52 -70z
M231.001 82.002h114c22 0 40 7.16699 54 21.5s21 32.833 21 55.5v168c0 22.667 -7 41 -21 55s-32 21 -54 21h-114c-20 0 -37.333 -6.66699 -52 -20s-22 -32 -22 -56v-168c0 -22.667 6.83301 -41.167 20.5 -55.5s31.5 -21.5 53.5 -21.5z" />
    <glyph glyph-name="afii10067" unicode="&#x432;" horiz-adv-x="577" 
d="M85 513h275.999c49.333 0 86.666 -12.667 111.999 -38s38 -58.333 38 -99v-13c0 -42.667 -19 -76.334 -57 -101.001c18.667 -11.333 32.834 -26.166 42.501 -44.499s14.5 -36.5 14.5 -54.5v-26c0 -40.667 -12.667 -73.667 -38 -99s-62.666 -38 -111.999 -38h-276v513z
M168.999 85h194.999c18.667 0 33.834 5.33301 45.501 16s17.5 25 17.5 43v18c0 17.333 -5.83301 31.5 -17.5 42.5s-27.167 16.5 -46.5 16.5h-194v-136zM363.998 428h-194.999v-122h194c17.333 0 32.333 5.5 45 16.5s19 24.5 19 40.5v9c0 17.333 -5.83301 31 -17.5 41
s-26.834 15 -45.501 15z" />
    <glyph glyph-name="afii10068" unicode="&#x433;" horiz-adv-x="468" 
d="M179 428v-428h-90v513h349v-85h-259z" />
    <glyph glyph-name="afii10069" unicode="&#x434;" horiz-adv-x="618" 
d="M134 203l40 310h345v-430h74v-203h-90v120h-378v-120h-90v203h55c23.333 35.333 38 75.333 44 120zM254 430l-28.999 -228c-4.66699 -39.333 -17.334 -79 -38.001 -119h242v347h-175z" />
    <glyph glyph-name="afii10070" unicode="&#x435;" horiz-adv-x="581" 
d="M342 -3l-105.003 0.00195312c-47.333 0 -87.166 16.167 -119.499 48.5s-48.5 72.166 -48.5 119.499v183c0 47.333 15.833 87.166 47.5 119.499s70.834 48.5 117.501 48.5h118c46 0 83.833 -16 113.5 -48s44.5 -72 44.5 -120v-105c0 -6 -2.33301 -11.167 -7 -15.5
s-10.334 -6.5 -17.001 -6.5h-330v-61c0 -22 7.33301 -40.5 22 -55.5s32.667 -22.5 54 -22.5h115c38.667 0 64 19 76 57l8 24l81 -22l-6 -22c-9.33301 -36 -29.166 -65.333 -59.499 -88s-65.166 -34 -104.499 -34zM155.997 306.002h267v47c0 21.333 -5.5 39.5 -16.5 54.5
s-27.833 22.5 -50.5 22.5h-127c-22 0 -39.667 -7.5 -53 -22.5s-20 -33.167 -20 -54.5v-47z" />
    <glyph glyph-name="afii10072" unicode="&#x436;" horiz-adv-x="796" 
d="M353 0v221h-112l-82 -132c-11.333 -18 -17 -39 -17 -63v-26h-89v26c0 38.667 11 75.334 33 110.001l88 139l-124 238h101l108 -207h94v207h90v-207h94l108 207h101l-124 -238l88 -139c22 -34.667 33 -71.334 33 -110.001v-26h-89v26c0 24 -5.66699 45 -17 63l-82 132
h-112v-221h-90z" />
    <glyph glyph-name="afii10073" unicode="&#x437;" horiz-adv-x="553" 
d="M328 428h-115.003c-37.333 0 -60.333 -19.667 -69 -59l-6 -26l-83 21c6.66699 45.333 24.334 82 53.001 110s65.334 42 110.001 42h113c49.333 0 86.666 -12.667 111.999 -38s38 -58.333 38 -99v-16c0 -42.667 -19 -76.334 -57 -101.001
c18.667 -11.333 32.834 -26.166 42.501 -44.499s14.5 -36.5 14.5 -54.5v-29c0 -40.667 -12.667 -73.667 -38 -99s-62.666 -38 -111.999 -38h-113c-41.333 0 -77.5 14.333 -108.5 43s-48.833 65 -53.5 109l82 21l7 -26c11.333 -40 34.333 -60 69 -60h114
c18.667 0 33.834 5.5 45.501 16.5s17.5 25.5 17.5 43.5v18c0 17.333 -5.83301 31.5 -17.5 42.5s-27.167 16.5 -46.5 16.5h-105v85h105c17.333 0 32.333 5.5 45 16.5s19 24.5 19 40.5v9c0 17.333 -5.83301 31 -17.5 41s-26.834 15 -45.501 15z" />
    <glyph glyph-name="afii10074" unicode="&#x438;" horiz-adv-x="608" 
d="M89 513h90v-364l250 364h90v-513h-90v363l-250 -363h-90v513z" />
    <glyph glyph-name="afii10075" unicode="&#x439;" horiz-adv-x="608" 
d="M367 572h-128.998c-26.667 0 -48.834 9.5 -66.501 28.5s-26.5 42.167 -26.5 69.5v55h80v-56c0 -6.66699 2.5 -12.667 7.5 -18s11.167 -8 18.5 -8h103c8 0 14.667 2.66699 20 8s8 11.333 8 18v56h81v-55c0 -27.333 -9.33301 -50.5 -28 -69.5s-41.334 -28.5 -68.001 -28.5z
M89.002 513h90v-364l250 364h90v-513h-90v363l-250 -363h-90v513z" />
    <glyph glyph-name="afii10076" unicode="&#x43a;" horiz-adv-x="579" 
d="M89 0v513.001h90v-207h124l118 207h101l-134 -238l108 -139c22 -32.667 33 -69.334 33 -110.001v-26h-89v26c0 27.333 -5.66699 48.333 -17 63l-102 132h-142v-221h-90z" />
    <glyph glyph-name="afii10077" unicode="&#x43b;" horiz-adv-x="608" 
d="M120 130l49 383h350v-513h-90v430h-178l-41 -315c-4.66699 -35.333 -16.5 -63.333 -35.5 -84s-42.833 -31 -71.5 -31h-68v83h44c15.333 0 25.5 3.5 30.5 10.5s8.5 19.167 10.5 36.5z" />
    <glyph glyph-name="afii10078" unicode="&#x43c;" horiz-adv-x="674" 
d="M89 0v513h116l132 -298l132 298h116v-513h-90v348l-128 -276h-59l-129 278v-350h-90z" />
    <glyph glyph-name="afii10079" unicode="&#x43d;" horiz-adv-x="608" 
d="M89 513h90v-207h250v207h90v-513h-90v221h-250v-221h-90v513z" />
    <glyph glyph-name="afii10080" unicode="&#x43e;" horiz-adv-x="577" 
d="M341 -3h-108c-46.667 0 -85.667 15.667 -117 47s-47 70.333 -47 117v192c0 46.667 15.667 85.5 47 116.5s70.333 46.5 117 46.5h108c47.333 0 86.833 -15.5 118.5 -46.5s47.5 -69.833 47.5 -116.5v-192c0 -46.667 -15.833 -85.667 -47.5 -117s-71.167 -47 -118.5 -47z
M231 82h114c22 0 40 7.16699 54 21.5s21 32.833 21 55.5v195c0 22.667 -7 41 -21 55s-32 21 -54 21h-114c-20 0 -37.5 -6.66699 -52.5 -20s-22.5 -32 -22.5 -56v-195c0 -22.667 7 -41.167 21 -55.5s32 -21.5 54 -21.5z" />
    <glyph glyph-name="afii10081" unicode="&#x43f;" horiz-adv-x="608" 
d="M89 513h430v-513h-90v430h-250v-430h-90v513z" />
    <glyph glyph-name="afii10082" unicode="&#x440;" horiz-adv-x="600" 
d="M89 -199l-0.000976562 712h86v-49c19.333 34.667 56 52 110 52h86c44.667 0 82.5 -15.333 113.5 -46s46.5 -68.667 46.5 -114v-199c0 -44.667 -15.5 -82.5 -46.5 -113.5s-68.833 -46.5 -113.5 -46.5h-87c-47.333 0 -81.666 15.333 -102.999 46v-242h-92zM276.999 83
l76.998 0.000976562c26.667 0 47.834 9.16699 63.501 27.5s23.5 43.5 23.5 75.5v144c0 34 -7.5 59.333 -22.5 76s-41.5 25 -79.5 25h-69c-27.333 0 -49.5 -9.33301 -66.5 -28s-25.5 -44.334 -25.5 -77.001v-145c0 -33.333 7.33301 -58 22 -74s40.334 -24 77.001 -24z" />
    <glyph glyph-name="afii10083" unicode="&#x441;" horiz-adv-x="553" 
d="M335 -3l-99 0.00195312c-46.667 0 -86.167 16.167 -118.5 48.5s-48.5 72.166 -48.5 119.499v183c0 47.333 16.167 87.166 48.5 119.499s71.833 48.5 118.5 48.5h99c42.667 0 77.167 -12.5 103.5 -37.5s44.5 -56.833 54.5 -95.5l5 -19l-83 -21l-6 26
c-8.66699 39.333 -31.667 59 -69 59h-108c-22 0 -40.167 -7.33301 -54.5 -22s-21.5 -32.667 -21.5 -54v-191c0 -22 7.16699 -40.333 21.5 -55s32.5 -22 54.5 -22h107c34.667 0 57.667 20 69 60l7 26l82 -21l-4 -19c-8 -36.667 -26.5 -68 -55.5 -94s-63.167 -39 -102.5 -39z
" />
    <glyph glyph-name="afii10084" unicode="&#x442;" horiz-adv-x="489" 
d="M290 428v-428h-90v428h-170v85h429v-85h-169z" />
    <glyph glyph-name="afii10085" unicode="&#x443;" horiz-adv-x="540" 
d="M70 -210v85h47c15.333 0 27 3.83301 35 11.5s15.667 19.5 23 35.5l49 106l-162 342c-10.667 22 -16 40.333 -16 55v88h89v-58c0 -15.333 2 -27.333 6 -36l129 -286l129 285c4 8.66699 6 21 6 37v58h88v-88c0 -14.667 -5 -32.667 -15 -54l-215 -466
c-18 -39.333 -36 -68.333 -54 -87s-40.667 -28 -68 -28h-71z" />
    <glyph glyph-name="afii10086" unicode="&#x444;" horiz-adv-x="835" 
d="M370 -199v242c-12.667 -18 -26 -30.167 -40 -36.5s-31.667 -9.5 -53 -9.5h-57c-44.667 0 -80.834 15.167 -108.501 45.5s-41.5 68.5 -41.5 114.5v199c0 46 13.833 84.167 41.5 114.5s63.834 45.5 108.501 45.5h56c44.667 0 77 -15.667 97 -47v243h89v-243
c20 31.333 52.333 47 97 47h56c44.667 0 80.834 -15.167 108.501 -45.5s41.5 -68.5 41.5 -114.5v-199c0 -46 -13.833 -84.167 -41.5 -114.5s-63.834 -45.5 -108.501 -45.5h-57c-21.333 0 -39 3.16699 -53 9.5s-27.333 18.5 -40 36.5v-242h-95zM237 83h47
c34 0 57.333 6.83301 70 20.5s19 34.834 19 63.501v162c0 29.333 -7.5 53.666 -22.5 72.999s-34.833 29 -59.5 29h-39c-37.333 0 -62 -7.83301 -74 -23.5s-18 -41.5 -18 -77.5v-144c0 -68.667 25.667 -103 77 -103zM551 83l47 0.000976562c51.333 0 77 34.333 77 103v144
c0 36 -6 61.833 -18 77.5s-36.667 23.5 -74 23.5h-39c-26.667 0 -47 -8.66699 -61 -26s-21 -42 -21 -74v-164c0 -28.667 6.33301 -49.834 19 -63.501s36 -20.5 70 -20.5z" />
    <glyph glyph-name="afii10087" unicode="&#x445;" horiz-adv-x="545" 
d="M67 0v76.001c0 15.333 4.33301 27.666 13 36.999l141 153l-141 153c-8.66699 9.33301 -13 21.666 -13 36.999v57h92v-39c0 -9.33301 2.66699 -17 8 -23l105 -117l106 118c6 6.66699 9 14.667 9 24v37h89v-65c0 -12 -4 -22 -12 -30l-143 -152l142 -152
c8.66699 -9.33301 13 -21.666 13 -36.999v-77h-89v57c0 9.33301 -3 17.333 -9 24l-106 114l-105 -114c-5.33301 -5.33301 -8 -13.333 -8 -24v-57h-92z" />
    <glyph glyph-name="afii10088" unicode="&#x446;" horiz-adv-x="628" 
d="M519 513v-430h74v-203h-90v120h-414v513h90v-430h250v430h90z" />
    <glyph glyph-name="afii10089" unicode="&#x447;" horiz-adv-x="527" 
d="M56 513h84v-180c0 -20.667 7.5 -37 22.5 -49s31.833 -18 50.5 -18h145v247h84v-513h-84v181h-144c-46.667 0 -84.667 14.5 -114 43.5s-44 63.5 -44 103.5v185z" />
    <glyph glyph-name="afii10090" unicode="&#x448;" horiz-adv-x="817" 
d="M737 513v-513h-648v513h90v-428h189v428h90v-428h189v428h90z" />
    <glyph glyph-name="afii10091" unicode="&#x449;" horiz-adv-x="831" 
d="M737 513v-430h74v-203h-90v120h-632v513h90v-428h189v428h90v-428h189v428h90z" />
    <glyph glyph-name="afii10092" unicode="&#x44a;" horiz-adv-x="608" 
d="M255 332h159c46.667 0 84.667 -14.5 114 -43.5s44 -63.5 44 -103.5v-38c0 -40 -14.667 -74.5 -44 -103.5s-67.333 -43.5 -114 -43.5h-249v428h-150v85h240v-181zM415 247h-160v-162h160c18.667 0 35.5 6 50.5 18s22.5 28.333 22.5 49v28c0 20.667 -7.5 37 -22.5 49
s-31.833 18 -50.5 18z" />
    <glyph glyph-name="afii10093" unicode="&#x44b;" horiz-adv-x="732" 
d="M643 0h-90v513h90v-513zM179 513v-181h158c46.667 0 84.667 -14.5 114 -43.5s44 -63.5 44 -103.5v-38c0 -40 -14.667 -74.5 -44 -103.5s-67.333 -43.5 -114 -43.5h-248v513h90zM179 85h159c18.667 0 35.5 6 50.5 18s22.5 28.333 22.5 49v28c0 20.667 -7.5 37 -22.5 49
s-31.833 18 -50.5 18h-159v-162z" />
    <glyph glyph-name="afii10094" unicode="&#x44c;" horiz-adv-x="530" 
d="M179 513v-181h158c46.667 0 84.667 -14.5 114 -43.5s44 -63.5 44 -103.5v-38c0 -40 -14.667 -74.5 -44 -103.5s-67.333 -43.5 -114 -43.5h-248v513h90zM179 85h159c18.667 0 35.5 6 50.5 18s22.5 28.333 22.5 49v28c0 20.667 -7.5 37 -22.5 49s-31.833 18 -50.5 18h-159
v-162z" />
    <glyph glyph-name="afii10095" unicode="&#x44d;" horiz-adv-x="553" 
d="M317 -3l-99 -0.00195312c-39.333 0 -73.5 13 -102.5 39s-47.5 57.333 -55.5 94l-4 19l82 21l7 -26c11.333 -40 34.333 -60 69 -60h107c22 0 40.167 7.33301 54.5 22s21.5 33 21.5 55v60h-175v85h175v46c0 21.333 -7.16699 39.333 -21.5 54s-32.5 22 -54.5 22h-108
c-37.333 0 -60.333 -19.667 -69 -59l-6 -26l-83 21l5 19c10 38.667 28.167 70.5 54.5 95.5s60.833 37.5 103.5 37.5h99c46.667 0 86.167 -16.167 118.5 -48.5s48.5 -72.166 48.5 -119.499v-183c0 -47.333 -16.167 -87.166 -48.5 -119.499s-71.833 -48.5 -118.5 -48.5z" />
    <glyph glyph-name="afii10096" unicode="&#x44e;" horiz-adv-x="788" 
d="M552 -3h-98c-46.667 0 -85.667 15.667 -117 47s-47 70.333 -47 117v60h-111v-221h-90v513h90v-207h111v47c0 46.667 15.667 85.5 47 116.5s70.333 46.5 117 46.5h98c47.333 0 86.833 -15.5 118.5 -46.5s47.5 -69.833 47.5 -116.5v-192
c0 -46.667 -15.833 -85.667 -47.5 -117s-71.167 -47 -118.5 -47zM452 82h104c22 0 40 7.16699 54 21.5s21 32.833 21 55.5v195c0 22.667 -7 41 -21 55s-32 21 -54 21h-104c-20 0 -37.5 -6.66699 -52.5 -20s-22.5 -32 -22.5 -56v-195c0 -22.667 7 -41.167 21 -55.5
s32 -21.5 54 -21.5z" />
    <glyph glyph-name="afii10097" unicode="&#x44f;" horiz-adv-x="581" 
d="M492 0l-84 -0.000976562v201h-153l-73 -112c-11.333 -18 -17 -39 -17 -63v-26h-89v26c0 39.333 11 76 33 110l48 74c-28.667 10.667 -51 28.667 -67 54s-24 53.333 -24 84v18c0 40.667 13.167 75.334 39.5 104.001s62.5 43 108.5 43h278v-513zM408 427.999h-195
c-18 0 -33 -6.5 -45 -19.5s-18 -28.5 -18 -46.5v-10c0 -18 6 -33.5 18 -46.5s27 -19.5 45 -19.5h195v142z" />
    <glyph glyph-name="afii10071" unicode="&#x451;" horiz-adv-x="581" 
d="M342 -3l-105.003 0.00195312c-47.333 0 -87.166 16.167 -119.499 48.5s-48.5 72.166 -48.5 119.499v183c0 47.333 15.833 87.166 47.5 119.499s70.834 48.5 117.501 48.5h118c46 0 83.833 -16 113.5 -48s44.5 -72 44.5 -120v-105c0 -6 -2.33301 -11.167 -7 -15.5
s-10.334 -6.5 -17.001 -6.5h-330v-61c0 -22 7.33301 -40.5 22 -55.5s32.667 -22.5 54 -22.5h115c38.667 0 64 19 76 57l8 24l81 -22l-6 -22c-9.33301 -36 -29.166 -65.333 -59.499 -88s-65.166 -34 -104.499 -34zM155.997 306.002h267v47c0 21.333 -5.5 39.5 -16.5 54.5
s-27.833 22.5 -50.5 22.5h-127c-22 0 -39.667 -7.5 -53 -22.5s-20 -33.167 -20 -54.5v-47zM360.997 598.002c-4.66699 0 -9.16699 2 -13.5 6s-6.5 8.66699 -6.5 14v50c0 4.66699 2 9 6 13s8.66699 6 14 6h53c5.33301 0 9.83301 -1.83301 13.5 -5.5s5.5 -8.16699 5.5 -13.5
v-50c0 -5.33301 -2 -10 -6 -14s-8.66699 -6 -14 -6h-52zM166.997 598.002c-4.66699 0 -9 2 -13 6s-6 8.66699 -6 14v50c0 5.33301 2 9.83301 6 13.5s8.33301 5.5 13 5.5h53c5.33301 0 9.83301 -1.83301 13.5 -5.5s5.5 -8.16699 5.5 -13.5v-50c0 -5.33301 -2 -10 -6 -14
s-8.66699 -6 -14 -6h-52z" />
    <glyph glyph-name="afii10103" unicode="&#x456;" horiz-adv-x="475" 
d="M79 0v85h137v342h-111v86h200v-428h117v-85h-343zM225 626c-4.66699 0 -8.66699 1.66699 -12 5s-5 7.33301 -5 12v69c0 4.66699 1.66699 8.66699 5 12s7.33301 5 12 5h72c4.66699 0 8.66699 -1.66699 12 -5s5 -7.33301 5 -12v-69c0 -4.66699 -1.66699 -8.66699 -5 -12
s-7.33301 -5 -12 -5h-72z" />
    <glyph glyph-name="endash" unicode="&#x2013;" horiz-adv-x="648" 
d="M81 313v80h486v-80h-486z" />
    <glyph glyph-name="emdash" unicode="&#x2014;" horiz-adv-x="724" 
d="M43 317v76h639v-76h-639z" />
    <glyph glyph-name="quoteleft" unicode="&#x2018;" horiz-adv-x="413" 
d="M179 425c-3.33301 0 -7 0.666992 -11 2l-61 28c-10.667 5.33301 -16 13.666 -16 24.999c0 4 1 8 3 12l138 238c6 10.667 14 16 24 16c2 0 6.33301 -1.33301 13 -4l20 -9c10 -4.66699 15 -12.667 15 -24c0 -3.33301 -1 -7.66602 -3 -12.999l-97 -256
c-4 -10 -12.333 -15 -25 -15z" />
    <glyph glyph-name="quoteright" unicode="&#x2019;" horiz-adv-x="413" 
d="M140 424c-5.33301 0 -9.66797 1 -13.001 3l-19 10c-10.667 5.33301 -16 13.333 -16 24l3 12l97 257c3.33301 10 12 15 26 15c4.66699 0 8.33398 -0.666992 11.001 -2l61 -29c9.33301 -4 14 -12 14 -24c0 -5.33301 -1 -9.33301 -3 -12l-136 -238
c-6 -10.667 -14.333 -16 -25 -16z" />
    <glyph glyph-name="quotesinglbase" unicode="&#x201a;" horiz-adv-x="413" 
d="M139 -94c-4.66699 0 -8.66602 0.998047 -11.999 2.99805l-22 12c-8.66699 4.66699 -13 11.334 -13 20.001c0 4.66699 1 9.33398 3 14.001l97 257c4 10.667 12 16 24 16c4 0 8.33301 -1 13 -3l61 -28c10.667 -4.66699 16 -12 16 -22c0 -4.66699 -1.33301 -9.66699 -4 -15
l-140 -237c-6.66699 -11.333 -14.334 -17 -23.001 -17z" />
    <glyph glyph-name="quotedblleft" unicode="&#x201c;" horiz-adv-x="630" 
d="M179 425c-3.33301 0 -7 0.666992 -11 2l-61 28c-10.667 5.33301 -16 13.666 -16 24.999c0 4 1 8 3 12l138 238c6 10.667 14 16 24 16c2 0 6.33301 -1.33301 13 -4l20 -9c10 -4.66699 15 -12.667 15 -24c0 -3.33301 -1 -7.66602 -3 -12.999l-97 -256
c-4 -10 -12.333 -15 -25 -15zM376 425c-3.33301 0 -7 0.666992 -11 2l-61 28c-10 4.66699 -15 13 -15 25c0 4 1 8 3 12l137 238c6 10.667 14 16 24 16c2 0 6.33301 -1.33301 13 -4l19 -9c10.667 -4.66699 16 -13 16 -25c0 -4.66699 -0.666992 -8.66699 -2 -12l-98 -256
c-4 -10 -12.333 -15 -25 -15z" />
    <glyph glyph-name="quotedblright" unicode="&#x201d;" horiz-adv-x="630" 
d="M344 424c-5.33301 0 -10 0.999023 -14 2.99902l-19 10c-10 4.66699 -15 12.334 -15 23.001c0 6 0.666992 10.333 2 13l98 257c3.33301 10 11.333 15 24 15c3.33301 0 7 -0.666992 11 -2l61 -29c10.667 -5.33301 16 -13.666 16 -24.999c0 -4.66699 -1 -8.33398 -3 -11.001
l-137 -238c-6 -10.667 -14 -16 -24 -16zM146 423.999c-4.66699 0 -9.00098 1 -13.001 3l-19 10c-10.667 5.33301 -16 13.333 -16 24c0 4 1 8 3 12l97 257c3.33301 10 12 15 26 15c4.66699 0 8.33398 -0.666992 11.001 -2l60 -29c10 -5.33301 15 -13.333 15 -24
c0 -5.33301 -1 -9.33301 -3 -12l-137 -238c-6 -10.667 -14 -16 -24 -16z" />
    <glyph glyph-name="quotedblbase" unicode="&#x201e;" horiz-adv-x="630" 
d="M336 -94c-4.66699 0 -8.66699 0.99707 -12 2.99707l-22 12c-8.66699 4.66699 -13 11.334 -13 20.001c0 4.66699 1 9.33398 3 14.001l98 257c4 10.667 11.667 16 23 16c4.66699 0 9 -1 13 -3l61 -28c10.667 -5.33301 16 -12.666 16 -21.999
c0 -6.66699 -1.33301 -11.667 -4 -15l-139 -237c-6 -11.333 -14 -17 -24 -17zM139 -94.0029c-4.66699 0 -8.66602 0.998047 -11.999 2.99805l-22 12c-8.66699 4.66699 -13 11.334 -13 20.001c0 4.66699 1 9.33398 3 14.001l97 257c4 10.667 12 16 24 16
c4 0 8.33301 -1 13 -3l61 -28c10.667 -4.66699 16 -12 16 -22c0 -4.66699 -1.33301 -9.66699 -4 -15l-140 -237c-6.66699 -11.333 -14.334 -17 -23.001 -17z" />
    <glyph glyph-name="dagger" unicode="&#x2020;" 
d="M291 -88v516h-180v87h180v197h89v-197h180v-87h-180v-516h-89z" />
    <glyph glyph-name="daggerdbl" unicode="&#x2021;" 
d="M291 -88v198h-180v87h180v231h-180v87h180v197h89v-197h180v-87h-180v-231h180v-87h-180v-198h-89z" />
    <glyph glyph-name="bullet" unicode="&#x2022;" horiz-adv-x="429" 
d="M174 281c-9.33301 0 -17.5 3.16699 -24.5 9.5s-10.5 13.833 -10.5 22.5v87c0 8.66699 3.5 16.167 10.5 22.5s15.167 9.5 24.5 9.5h82c9.33301 0 17.166 -3.16699 23.499 -9.5s9.5 -13.833 9.5 -22.5v-87c0 -8.66699 -3.16699 -16.167 -9.5 -22.5
s-14.166 -9.5 -23.499 -9.5h-82z" />
    <glyph glyph-name="ellipsis" unicode="&#x2026;" horiz-adv-x="751" 
d="M116 0c-8 0 -15 2.83301 -21 8.5s-9 12.167 -9 19.5v74c0 7.33301 3 13.833 9 19.5s13 8.5 21 8.5h74c7.33301 0 14 -2.83301 20 -8.5s9 -12.167 9 -19.5v-74c0 -7.33301 -3 -13.833 -9 -19.5s-12.667 -8.5 -20 -8.5h-74zM562 0c-8 0 -15 2.83301 -21 8.5
s-9 12.167 -9 19.5v74c0 7.33301 3 13.833 9 19.5s13 8.5 21 8.5h73c8 0 15 -2.83301 21 -8.5s9 -12.167 9 -19.5v-74c0 -7.33301 -3 -13.833 -9 -19.5s-13 -8.5 -21 -8.5h-73zM339 0c-8 0 -14.833 2.83301 -20.5 8.5s-8.5 12.167 -8.5 19.5v74
c0 7.33301 2.83301 13.833 8.5 19.5s12.5 8.5 20.5 8.5h73c8 0 15 -2.83301 21 -8.5s9 -12.167 9 -19.5v-74c0 -7.33301 -3 -13.833 -9 -19.5s-13 -8.5 -21 -8.5h-73z" />
    <glyph glyph-name="perthousand" unicode="&#x2030;" horiz-adv-x="923" 
d="M202 -49l-75 33l357 763l75 -34zM490 113c-8 0 -14.833 2.83301 -20.5 8.5s-8.5 12.5 -8.5 20.5v83c0 8 2.83301 14.833 8.5 20.5s12.5 8.5 20.5 8.5h86c8 0 14.833 -2.83301 20.5 -8.5s8.5 -12.5 8.5 -20.5v-83c0 -8 -2.83301 -14.833 -8.5 -20.5s-12.5 -8.5 -20.5 -8.5
h-86zM681 113c-8 0 -14.833 2.83301 -20.5 8.5s-8.5 12.5 -8.5 20.5v83c0 8 2.83301 14.833 8.5 20.5s12.5 8.5 20.5 8.5h86c8 0 14.833 -2.83301 20.5 -8.5s8.5 -12.5 8.5 -20.5v-83c0 -8 -2.83301 -14.833 -8.5 -20.5s-12.5 -8.5 -20.5 -8.5h-86zM116 470
c-8 0 -14.833 3 -20.5 9s-8.5 13 -8.5 21v82c0 8 2.83301 14.833 8.5 20.5s12.5 8.5 20.5 8.5h86c8 0 14.833 -2.83301 20.5 -8.5s8.5 -12.5 8.5 -20.5v-82c0 -8 -2.83301 -15 -8.5 -21s-12.5 -9 -20.5 -9h-86z" />
    <glyph glyph-name="guilsinglleft" unicode="&#x2039;" horiz-adv-x="387" 
d="M275 116c-6.66699 0 -13 2.66895 -19 8.00195l-191 172c-5.33301 5.33301 -8 11.666 -8 18.999c0 8.66699 2.66699 15 8 19l191 173c5.33301 5.33301 11.333 8 18 8s12.667 -2.66699 18 -8l12 -10c5.33301 -4.66699 8 -11.334 8 -20.001c0 -6.66699 -2.66699 -13 -8 -19
l-123 -142l123 -144c5.33301 -6.66699 8 -13 8 -19c0 -6.66699 -2.66699 -12.667 -8 -18l-11 -11c-5.33301 -5.33301 -11.333 -8 -18 -8z" />
    <glyph glyph-name="guilsinglright" unicode="&#x203a;" horiz-adv-x="387" 
d="M112 116c-6.66699 0 -12.668 2.66797 -18.001 8.00098l-10 10c-6 6 -9 12.333 -9 19c0 6 2.66699 12.333 8 19l122 144l-121 142c-6 6.66699 -9 13 -9 19c0 7.33301 2.66699 13.666 8 18.999l12 11c5.33301 5.33301 11.333 8 18 8s12.667 -2.66699 18 -8l191 -173
c4.66699 -4.66699 7 -11 7 -19s-2.33301 -14.333 -7 -19l-191 -172c-5.33301 -5.33301 -11.666 -8 -18.999 -8z" />
    <glyph glyph-name="fraction" unicode="&#x2044;" horiz-adv-x="550" 
d="M152 -50l-84 38l360 772l85 -39z" />
    <glyph glyph-name="Euro" unicode="&#x20ac;" 
d="M293 0c-51.333 0 -94.333 17.333 -129 52s-52 77.667 -52 129v41l-84 -16v81l84 15v80l-84 -15v81l84 15v68c0 51.333 17.333 94.333 52 129s77.667 52 129 52h139c52.667 0 94.167 -15.667 124.5 -47s49.833 -72.333 58.5 -123l-84 -23l-7 28c-12 49.333 -41 74 -87 74
h-151c-24 0 -44 -8.16699 -60 -24.5s-24 -36.5 -24 -60.5v-57l181 33v-81l-181 -32v-81l181 33v-80l-181 -33v-62c0 -24 8 -44.167 24 -60.5s36 -24.5 60 -24.5h150c47.333 0 76.333 25 87 75l6 27l85 -23c-8.66699 -50.667 -28.167 -91.667 -58.5 -123
s-71.833 -47 -124.5 -47h-138z" />
    <glyph glyph-name="afii61352" unicode="&#x2116;" horiz-adv-x="1001" 
d="M104 0v712h96l313 -526v526h91v-712h-92l-317 536v-536h-91zM931 276v-65h-255v65h255zM836 356h-65c-26.667 0 -49.167 9.16699 -67.5 27.5s-27.5 40.833 -27.5 67.5v166c0 26 9.16699 48.333 27.5 67s40.833 28 67.5 28h65c26 0 48.333 -9.33301 67 -28s28 -41 28 -67
v-166c0 -26.667 -9.33301 -49.167 -28 -67.5s-41 -27.5 -67 -27.5zM768 420h71c7.33301 0 13.666 2.83301 18.999 8.5s8 12.167 8 19.5v172c0 7.33301 -2.66699 13.666 -8 18.999s-11.666 8 -18.999 8h-71c-7.33301 0 -13.666 -2.66699 -18.999 -8s-8 -11.666 -8 -18.999
v-172c0 -7.33301 2.66699 -13.833 8 -19.5s11.666 -8.5 18.999 -8.5z" />
    <glyph glyph-name="trademark" unicode="&#x2122;" horiz-adv-x="646" 
d="M333 427v285h50l72 -161l73 161h50v-285h-54v146l-53 -111h-30l-54 111v-146h-54zM132 427v224h-83v61h226v-61h-85v-224h-58z" />
    <glyph glyph-name="minus" unicode="&#x2212;" horiz-adv-x="571" 
d="M117 317v76h337v-76h-337z" />
    <glyph glyph-name="uni25FC" unicode="&#x25fc;" horiz-adv-x="515" 
d="M0 515h515v-515h-515v515z" />
    <glyph glyph-name=".null" horiz-adv-x="0" 
 />
    <glyph glyph-name="nonmarkingreturn" horiz-adv-x="333" 
 />
    </font>
</defs>
</svg>
